<mxfile host="app.diagrams.net" modified="2024-07-16T08:36:44.684Z" agent="Mozilla/5.0 (Windows NT 10.0; Win64; x64) AppleWebKit/537.36 (KHTML, like Gecko) Chrome/126.0.0.0 Safari/537.36" etag="RF7R6VPaEUAnyXcNlEUx" version="24.6.5" type="device">
  <diagram name="페이지-1" id="gdEKGkvY7_546Ifa-r0L">
    <mxGraphModel dx="989" dy="538" grid="1" gridSize="10" guides="1" tooltips="1" connect="1" arrows="1" fold="1" page="1" pageScale="1" pageWidth="827" pageHeight="1169" math="0" shadow="0">
      <root>
        <mxCell id="0" />
        <mxCell id="1" parent="0" />
        <mxCell id="ACu0_U7MY-6dZaPbagmZ-1" value="Render Pipeline&lt;div&gt;(정점데이터가 화면에 출력되기 까지의 일련의과정)&lt;/div&gt;" style="rounded=0;whiteSpace=wrap;html=1;" vertex="1" parent="1">
          <mxGeometry x="10" y="10" width="220" height="50" as="geometry" />
        </mxCell>
        <mxCell id="ACu0_U7MY-6dZaPbagmZ-8" style="edgeStyle=orthogonalEdgeStyle;rounded=0;orthogonalLoop=1;jettySize=auto;html=1;entryX=0;entryY=0.5;entryDx=0;entryDy=0;" edge="1" parent="1" source="ACu0_U7MY-6dZaPbagmZ-2" target="ACu0_U7MY-6dZaPbagmZ-7">
          <mxGeometry relative="1" as="geometry" />
        </mxCell>
        <mxCell id="ACu0_U7MY-6dZaPbagmZ-2" value="CPU" style="rounded=0;whiteSpace=wrap;html=1;" vertex="1" parent="1">
          <mxGeometry x="40" y="80" width="80" height="40" as="geometry" />
        </mxCell>
        <mxCell id="ACu0_U7MY-6dZaPbagmZ-4" value="Frustum Culling" style="rounded=1;whiteSpace=wrap;html=1;" vertex="1" parent="1">
          <mxGeometry x="10" y="140" width="140" height="40" as="geometry" />
        </mxCell>
        <mxCell id="ACu0_U7MY-6dZaPbagmZ-5" value="Occlusion Culling" style="rounded=1;whiteSpace=wrap;html=1;" vertex="1" parent="1">
          <mxGeometry x="10" y="190" width="140" height="40" as="geometry" />
        </mxCell>
        <mxCell id="ACu0_U7MY-6dZaPbagmZ-7" value="GPU" style="rounded=0;whiteSpace=wrap;html=1;" vertex="1" parent="1">
          <mxGeometry x="270" y="80" width="80" height="40" as="geometry" />
        </mxCell>
        <mxCell id="ACu0_U7MY-6dZaPbagmZ-9" value="Draw Call" style="rounded=1;whiteSpace=wrap;html=1;" vertex="1" parent="1">
          <mxGeometry x="160" y="70" width="80" height="20" as="geometry" />
        </mxCell>
        <mxCell id="ACu0_U7MY-6dZaPbagmZ-11" value="Vertex&lt;div&gt;Shader&lt;/div&gt;" style="rounded=1;whiteSpace=wrap;html=1;" vertex="1" parent="1">
          <mxGeometry x="270" y="140" width="80" height="40" as="geometry" />
        </mxCell>
        <mxCell id="ACu0_U7MY-6dZaPbagmZ-12" value="Geometry&lt;div&gt;Transform&lt;/div&gt;" style="rounded=1;whiteSpace=wrap;html=1;verticalAlign=top;" vertex="1" parent="1">
          <mxGeometry x="235" y="200" width="150" height="190" as="geometry" />
        </mxCell>
        <mxCell id="ACu0_U7MY-6dZaPbagmZ-13" value="Local -&amp;gt; World" style="rounded=1;whiteSpace=wrap;html=1;" vertex="1" parent="1">
          <mxGeometry x="255" y="240" width="110" height="40" as="geometry" />
        </mxCell>
        <mxCell id="ACu0_U7MY-6dZaPbagmZ-14" value="World -&amp;gt; View" style="rounded=1;whiteSpace=wrap;html=1;" vertex="1" parent="1">
          <mxGeometry x="255" y="290" width="110" height="40" as="geometry" />
        </mxCell>
        <mxCell id="ACu0_U7MY-6dZaPbagmZ-15" value="View -&amp;gt; Projection" style="rounded=1;whiteSpace=wrap;html=1;" vertex="1" parent="1">
          <mxGeometry x="255" y="340" width="110" height="40" as="geometry" />
        </mxCell>
        <mxCell id="ACu0_U7MY-6dZaPbagmZ-16" value="Perpective&lt;div&gt;Division&lt;/div&gt;" style="rounded=1;whiteSpace=wrap;html=1;verticalAlign=top;" vertex="1" parent="1">
          <mxGeometry x="255" y="400" width="110" height="40" as="geometry" />
        </mxCell>
        <mxCell id="ACu0_U7MY-6dZaPbagmZ-17" value="Rasterizing" style="rounded=1;whiteSpace=wrap;html=1;" vertex="1" parent="1">
          <mxGeometry x="444" y="140" width="80" height="40" as="geometry" />
        </mxCell>
        <mxCell id="ACu0_U7MY-6dZaPbagmZ-18" value="Forward&lt;div&gt;Lighting&lt;/div&gt;" style="text;html=1;align=center;verticalAlign=middle;whiteSpace=wrap;rounded=0;" vertex="1" parent="1">
          <mxGeometry x="590" y="290" width="70" height="30" as="geometry" />
        </mxCell>
        <mxCell id="ACu0_U7MY-6dZaPbagmZ-20" value="" style="rounded=0;whiteSpace=wrap;html=1;" vertex="1" parent="1">
          <mxGeometry x="414" y="200" width="140" height="80" as="geometry" />
        </mxCell>
        <mxCell id="ACu0_U7MY-6dZaPbagmZ-151" style="edgeStyle=orthogonalEdgeStyle;rounded=0;orthogonalLoop=1;jettySize=auto;html=1;entryX=0;entryY=0;entryDx=0;entryDy=0;" edge="1" parent="1" source="ACu0_U7MY-6dZaPbagmZ-21" target="ACu0_U7MY-6dZaPbagmZ-32">
          <mxGeometry relative="1" as="geometry" />
        </mxCell>
        <mxCell id="ACu0_U7MY-6dZaPbagmZ-21" value="" style="rounded=0;whiteSpace=wrap;html=1;fillColor=#fa6800;fontColor=#000000;strokeColor=#C73500;" vertex="1" parent="1">
          <mxGeometry x="439" y="240" width="90" height="40" as="geometry" />
        </mxCell>
        <mxCell id="ACu0_U7MY-6dZaPbagmZ-22" value="" style="shape=trapezoid;perimeter=trapezoidPerimeter;whiteSpace=wrap;html=1;fixedSize=1;fillColor=#fa6800;fontColor=#000000;strokeColor=#C73500;" vertex="1" parent="1">
          <mxGeometry x="439" y="220" width="90" height="20" as="geometry" />
        </mxCell>
        <mxCell id="ACu0_U7MY-6dZaPbagmZ-23" value="" style="whiteSpace=wrap;html=1;aspect=fixed;" vertex="1" parent="1">
          <mxGeometry x="414" y="320" width="10" height="10" as="geometry" />
        </mxCell>
        <mxCell id="ACu0_U7MY-6dZaPbagmZ-24" value="" style="whiteSpace=wrap;html=1;aspect=fixed;" vertex="1" parent="1">
          <mxGeometry x="424" y="320" width="10" height="10" as="geometry" />
        </mxCell>
        <mxCell id="ACu0_U7MY-6dZaPbagmZ-25" value="" style="whiteSpace=wrap;html=1;aspect=fixed;" vertex="1" parent="1">
          <mxGeometry x="434" y="320" width="10" height="10" as="geometry" />
        </mxCell>
        <mxCell id="ACu0_U7MY-6dZaPbagmZ-26" value="" style="whiteSpace=wrap;html=1;aspect=fixed;" vertex="1" parent="1">
          <mxGeometry x="444" y="320" width="10" height="10" as="geometry" />
        </mxCell>
        <mxCell id="ACu0_U7MY-6dZaPbagmZ-27" value="" style="whiteSpace=wrap;html=1;aspect=fixed;" vertex="1" parent="1">
          <mxGeometry x="454" y="320" width="10" height="10" as="geometry" />
        </mxCell>
        <mxCell id="ACu0_U7MY-6dZaPbagmZ-28" value="" style="whiteSpace=wrap;html=1;aspect=fixed;" vertex="1" parent="1">
          <mxGeometry x="464" y="320" width="10" height="10" as="geometry" />
        </mxCell>
        <mxCell id="ACu0_U7MY-6dZaPbagmZ-29" value="" style="whiteSpace=wrap;html=1;aspect=fixed;" vertex="1" parent="1">
          <mxGeometry x="474" y="320" width="10" height="10" as="geometry" />
        </mxCell>
        <mxCell id="ACu0_U7MY-6dZaPbagmZ-30" value="" style="whiteSpace=wrap;html=1;aspect=fixed;" vertex="1" parent="1">
          <mxGeometry x="484" y="320" width="10" height="10" as="geometry" />
        </mxCell>
        <mxCell id="ACu0_U7MY-6dZaPbagmZ-31" value="" style="whiteSpace=wrap;html=1;aspect=fixed;" vertex="1" parent="1">
          <mxGeometry x="474" y="320" width="10" height="10" as="geometry" />
        </mxCell>
        <mxCell id="ACu0_U7MY-6dZaPbagmZ-32" value="" style="whiteSpace=wrap;html=1;aspect=fixed;" vertex="1" parent="1">
          <mxGeometry x="484" y="320" width="10" height="10" as="geometry" />
        </mxCell>
        <mxCell id="ACu0_U7MY-6dZaPbagmZ-33" value="" style="whiteSpace=wrap;html=1;aspect=fixed;" vertex="1" parent="1">
          <mxGeometry x="494" y="320" width="10" height="10" as="geometry" />
        </mxCell>
        <mxCell id="ACu0_U7MY-6dZaPbagmZ-34" value="" style="whiteSpace=wrap;html=1;aspect=fixed;" vertex="1" parent="1">
          <mxGeometry x="504" y="320" width="10" height="10" as="geometry" />
        </mxCell>
        <mxCell id="ACu0_U7MY-6dZaPbagmZ-35" value="" style="whiteSpace=wrap;html=1;aspect=fixed;" vertex="1" parent="1">
          <mxGeometry x="514" y="320" width="10" height="10" as="geometry" />
        </mxCell>
        <mxCell id="ACu0_U7MY-6dZaPbagmZ-36" value="" style="whiteSpace=wrap;html=1;aspect=fixed;" vertex="1" parent="1">
          <mxGeometry x="524" y="320" width="10" height="10" as="geometry" />
        </mxCell>
        <mxCell id="ACu0_U7MY-6dZaPbagmZ-37" value="" style="whiteSpace=wrap;html=1;aspect=fixed;" vertex="1" parent="1">
          <mxGeometry x="534" y="320" width="10" height="10" as="geometry" />
        </mxCell>
        <mxCell id="ACu0_U7MY-6dZaPbagmZ-38" value="" style="whiteSpace=wrap;html=1;aspect=fixed;" vertex="1" parent="1">
          <mxGeometry x="544" y="320" width="10" height="10" as="geometry" />
        </mxCell>
        <mxCell id="ACu0_U7MY-6dZaPbagmZ-39" value="" style="whiteSpace=wrap;html=1;aspect=fixed;" vertex="1" parent="1">
          <mxGeometry x="414" y="330" width="10" height="10" as="geometry" />
        </mxCell>
        <mxCell id="ACu0_U7MY-6dZaPbagmZ-40" value="" style="whiteSpace=wrap;html=1;aspect=fixed;" vertex="1" parent="1">
          <mxGeometry x="424" y="330" width="10" height="10" as="geometry" />
        </mxCell>
        <mxCell id="ACu0_U7MY-6dZaPbagmZ-41" value="" style="whiteSpace=wrap;html=1;aspect=fixed;" vertex="1" parent="1">
          <mxGeometry x="434" y="330" width="10" height="10" as="geometry" />
        </mxCell>
        <mxCell id="ACu0_U7MY-6dZaPbagmZ-42" value="" style="whiteSpace=wrap;html=1;aspect=fixed;" vertex="1" parent="1">
          <mxGeometry x="444" y="330" width="10" height="10" as="geometry" />
        </mxCell>
        <mxCell id="ACu0_U7MY-6dZaPbagmZ-43" value="" style="whiteSpace=wrap;html=1;aspect=fixed;" vertex="1" parent="1">
          <mxGeometry x="454" y="330" width="10" height="10" as="geometry" />
        </mxCell>
        <mxCell id="ACu0_U7MY-6dZaPbagmZ-44" value="" style="whiteSpace=wrap;html=1;aspect=fixed;fillColor=#fa6800;fontColor=#000000;strokeColor=#C73500;" vertex="1" parent="1">
          <mxGeometry x="464" y="330" width="10" height="10" as="geometry" />
        </mxCell>
        <mxCell id="ACu0_U7MY-6dZaPbagmZ-45" value="" style="whiteSpace=wrap;html=1;aspect=fixed;" vertex="1" parent="1">
          <mxGeometry x="474" y="330" width="10" height="10" as="geometry" />
        </mxCell>
        <mxCell id="ACu0_U7MY-6dZaPbagmZ-46" value="" style="whiteSpace=wrap;html=1;aspect=fixed;" vertex="1" parent="1">
          <mxGeometry x="484" y="330" width="10" height="10" as="geometry" />
        </mxCell>
        <mxCell id="ACu0_U7MY-6dZaPbagmZ-47" value="" style="whiteSpace=wrap;html=1;aspect=fixed;fillColor=#fa6800;fontColor=#000000;strokeColor=#C73500;" vertex="1" parent="1">
          <mxGeometry x="474" y="330" width="10" height="10" as="geometry" />
        </mxCell>
        <mxCell id="ACu0_U7MY-6dZaPbagmZ-48" value="" style="whiteSpace=wrap;html=1;aspect=fixed;fillColor=#fa6800;fontColor=#000000;strokeColor=#C73500;" vertex="1" parent="1">
          <mxGeometry x="484" y="330" width="10" height="10" as="geometry" />
        </mxCell>
        <mxCell id="ACu0_U7MY-6dZaPbagmZ-49" value="" style="whiteSpace=wrap;html=1;aspect=fixed;fillColor=#fa6800;fontColor=#000000;strokeColor=#C73500;" vertex="1" parent="1">
          <mxGeometry x="494" y="330" width="10" height="10" as="geometry" />
        </mxCell>
        <mxCell id="ACu0_U7MY-6dZaPbagmZ-50" value="" style="whiteSpace=wrap;html=1;aspect=fixed;" vertex="1" parent="1">
          <mxGeometry x="504" y="330" width="10" height="10" as="geometry" />
        </mxCell>
        <mxCell id="ACu0_U7MY-6dZaPbagmZ-51" value="" style="whiteSpace=wrap;html=1;aspect=fixed;" vertex="1" parent="1">
          <mxGeometry x="514" y="330" width="10" height="10" as="geometry" />
        </mxCell>
        <mxCell id="ACu0_U7MY-6dZaPbagmZ-52" value="" style="whiteSpace=wrap;html=1;aspect=fixed;" vertex="1" parent="1">
          <mxGeometry x="524" y="330" width="10" height="10" as="geometry" />
        </mxCell>
        <mxCell id="ACu0_U7MY-6dZaPbagmZ-53" value="" style="whiteSpace=wrap;html=1;aspect=fixed;" vertex="1" parent="1">
          <mxGeometry x="534" y="330" width="10" height="10" as="geometry" />
        </mxCell>
        <mxCell id="ACu0_U7MY-6dZaPbagmZ-54" value="" style="whiteSpace=wrap;html=1;aspect=fixed;" vertex="1" parent="1">
          <mxGeometry x="544" y="330" width="10" height="10" as="geometry" />
        </mxCell>
        <mxCell id="ACu0_U7MY-6dZaPbagmZ-55" value="" style="whiteSpace=wrap;html=1;aspect=fixed;" vertex="1" parent="1">
          <mxGeometry x="414" y="340" width="10" height="10" as="geometry" />
        </mxCell>
        <mxCell id="ACu0_U7MY-6dZaPbagmZ-56" value="" style="whiteSpace=wrap;html=1;aspect=fixed;" vertex="1" parent="1">
          <mxGeometry x="424" y="340" width="10" height="10" as="geometry" />
        </mxCell>
        <mxCell id="ACu0_U7MY-6dZaPbagmZ-57" value="" style="whiteSpace=wrap;html=1;aspect=fixed;" vertex="1" parent="1">
          <mxGeometry x="434" y="340" width="10" height="10" as="geometry" />
        </mxCell>
        <mxCell id="ACu0_U7MY-6dZaPbagmZ-58" value="" style="whiteSpace=wrap;html=1;aspect=fixed;" vertex="1" parent="1">
          <mxGeometry x="444" y="340" width="10" height="10" as="geometry" />
        </mxCell>
        <mxCell id="ACu0_U7MY-6dZaPbagmZ-59" value="" style="whiteSpace=wrap;html=1;aspect=fixed;fillColor=#fa6800;fontColor=#000000;strokeColor=#C73500;" vertex="1" parent="1">
          <mxGeometry x="454" y="340" width="10" height="10" as="geometry" />
        </mxCell>
        <mxCell id="ACu0_U7MY-6dZaPbagmZ-60" value="" style="whiteSpace=wrap;html=1;aspect=fixed;fillColor=#fa6800;fontColor=#000000;strokeColor=#C73500;" vertex="1" parent="1">
          <mxGeometry x="464" y="340" width="10" height="10" as="geometry" />
        </mxCell>
        <mxCell id="ACu0_U7MY-6dZaPbagmZ-61" value="" style="whiteSpace=wrap;html=1;aspect=fixed;fillColor=#fa6800;fontColor=#000000;strokeColor=#C73500;" vertex="1" parent="1">
          <mxGeometry x="474" y="340" width="10" height="10" as="geometry" />
        </mxCell>
        <mxCell id="ACu0_U7MY-6dZaPbagmZ-62" value="" style="whiteSpace=wrap;html=1;aspect=fixed;fillColor=#fa6800;fontColor=#000000;strokeColor=#C73500;" vertex="1" parent="1">
          <mxGeometry x="484" y="340" width="10" height="10" as="geometry" />
        </mxCell>
        <mxCell id="ACu0_U7MY-6dZaPbagmZ-63" value="" style="whiteSpace=wrap;html=1;aspect=fixed;fillColor=#fa6800;fontColor=#000000;strokeColor=#C73500;" vertex="1" parent="1">
          <mxGeometry x="474" y="340" width="10" height="10" as="geometry" />
        </mxCell>
        <mxCell id="ACu0_U7MY-6dZaPbagmZ-64" value="" style="whiteSpace=wrap;html=1;aspect=fixed;fillColor=#fa6800;fontColor=#000000;strokeColor=#C73500;" vertex="1" parent="1">
          <mxGeometry x="484" y="340" width="10" height="10" as="geometry" />
        </mxCell>
        <mxCell id="ACu0_U7MY-6dZaPbagmZ-65" value="" style="whiteSpace=wrap;html=1;aspect=fixed;fillColor=#fa6800;fontColor=#000000;strokeColor=#C73500;" vertex="1" parent="1">
          <mxGeometry x="494" y="340" width="10" height="10" as="geometry" />
        </mxCell>
        <mxCell id="ACu0_U7MY-6dZaPbagmZ-66" value="" style="whiteSpace=wrap;html=1;aspect=fixed;fillColor=#fa6800;fontColor=#000000;strokeColor=#C73500;" vertex="1" parent="1">
          <mxGeometry x="504" y="340" width="10" height="10" as="geometry" />
        </mxCell>
        <mxCell id="ACu0_U7MY-6dZaPbagmZ-67" value="" style="whiteSpace=wrap;html=1;aspect=fixed;" vertex="1" parent="1">
          <mxGeometry x="514" y="340" width="10" height="10" as="geometry" />
        </mxCell>
        <mxCell id="ACu0_U7MY-6dZaPbagmZ-68" value="" style="whiteSpace=wrap;html=1;aspect=fixed;" vertex="1" parent="1">
          <mxGeometry x="524" y="340" width="10" height="10" as="geometry" />
        </mxCell>
        <mxCell id="ACu0_U7MY-6dZaPbagmZ-69" value="" style="whiteSpace=wrap;html=1;aspect=fixed;" vertex="1" parent="1">
          <mxGeometry x="534" y="340" width="10" height="10" as="geometry" />
        </mxCell>
        <mxCell id="ACu0_U7MY-6dZaPbagmZ-70" value="" style="whiteSpace=wrap;html=1;aspect=fixed;" vertex="1" parent="1">
          <mxGeometry x="544" y="340" width="10" height="10" as="geometry" />
        </mxCell>
        <mxCell id="ACu0_U7MY-6dZaPbagmZ-71" value="" style="whiteSpace=wrap;html=1;aspect=fixed;" vertex="1" parent="1">
          <mxGeometry x="414" y="350" width="10" height="10" as="geometry" />
        </mxCell>
        <mxCell id="ACu0_U7MY-6dZaPbagmZ-72" value="" style="whiteSpace=wrap;html=1;aspect=fixed;" vertex="1" parent="1">
          <mxGeometry x="424" y="350" width="10" height="10" as="geometry" />
        </mxCell>
        <mxCell id="ACu0_U7MY-6dZaPbagmZ-73" value="" style="whiteSpace=wrap;html=1;aspect=fixed;" vertex="1" parent="1">
          <mxGeometry x="434" y="350" width="10" height="10" as="geometry" />
        </mxCell>
        <mxCell id="ACu0_U7MY-6dZaPbagmZ-74" value="" style="whiteSpace=wrap;html=1;aspect=fixed;fillColor=#fa6800;fontColor=#000000;strokeColor=#C73500;" vertex="1" parent="1">
          <mxGeometry x="444" y="350" width="10" height="10" as="geometry" />
        </mxCell>
        <mxCell id="ACu0_U7MY-6dZaPbagmZ-75" value="" style="whiteSpace=wrap;html=1;aspect=fixed;fillColor=#fa6800;fontColor=#000000;strokeColor=#C73500;" vertex="1" parent="1">
          <mxGeometry x="454" y="350" width="10" height="10" as="geometry" />
        </mxCell>
        <mxCell id="ACu0_U7MY-6dZaPbagmZ-76" value="" style="whiteSpace=wrap;html=1;aspect=fixed;fillColor=#fa6800;fontColor=#000000;strokeColor=#C73500;" vertex="1" parent="1">
          <mxGeometry x="464" y="350" width="10" height="10" as="geometry" />
        </mxCell>
        <mxCell id="ACu0_U7MY-6dZaPbagmZ-77" value="" style="whiteSpace=wrap;html=1;aspect=fixed;fillColor=#fa6800;fontColor=#000000;strokeColor=#C73500;" vertex="1" parent="1">
          <mxGeometry x="474" y="350" width="10" height="10" as="geometry" />
        </mxCell>
        <mxCell id="ACu0_U7MY-6dZaPbagmZ-78" value="" style="whiteSpace=wrap;html=1;aspect=fixed;fillColor=#fa6800;fontColor=#000000;strokeColor=#C73500;" vertex="1" parent="1">
          <mxGeometry x="484" y="350" width="10" height="10" as="geometry" />
        </mxCell>
        <mxCell id="ACu0_U7MY-6dZaPbagmZ-79" value="" style="whiteSpace=wrap;html=1;aspect=fixed;fillColor=#fa6800;fontColor=#000000;strokeColor=#C73500;" vertex="1" parent="1">
          <mxGeometry x="474" y="350" width="10" height="10" as="geometry" />
        </mxCell>
        <mxCell id="ACu0_U7MY-6dZaPbagmZ-80" value="" style="whiteSpace=wrap;html=1;aspect=fixed;fillColor=#fa6800;fontColor=#000000;strokeColor=#C73500;" vertex="1" parent="1">
          <mxGeometry x="484" y="350" width="10" height="10" as="geometry" />
        </mxCell>
        <mxCell id="ACu0_U7MY-6dZaPbagmZ-81" value="" style="whiteSpace=wrap;html=1;aspect=fixed;fillColor=#fa6800;fontColor=#000000;strokeColor=#C73500;" vertex="1" parent="1">
          <mxGeometry x="494" y="350" width="10" height="10" as="geometry" />
        </mxCell>
        <mxCell id="ACu0_U7MY-6dZaPbagmZ-82" value="" style="whiteSpace=wrap;html=1;aspect=fixed;fillColor=#fa6800;fontColor=#000000;strokeColor=#C73500;" vertex="1" parent="1">
          <mxGeometry x="504" y="350" width="10" height="10" as="geometry" />
        </mxCell>
        <mxCell id="ACu0_U7MY-6dZaPbagmZ-83" value="" style="whiteSpace=wrap;html=1;aspect=fixed;fillColor=#fa6800;fontColor=#000000;strokeColor=#C73500;" vertex="1" parent="1">
          <mxGeometry x="514" y="350" width="10" height="10" as="geometry" />
        </mxCell>
        <mxCell id="ACu0_U7MY-6dZaPbagmZ-84" value="" style="whiteSpace=wrap;html=1;aspect=fixed;" vertex="1" parent="1">
          <mxGeometry x="524" y="350" width="10" height="10" as="geometry" />
        </mxCell>
        <mxCell id="ACu0_U7MY-6dZaPbagmZ-85" value="" style="whiteSpace=wrap;html=1;aspect=fixed;" vertex="1" parent="1">
          <mxGeometry x="534" y="350" width="10" height="10" as="geometry" />
        </mxCell>
        <mxCell id="ACu0_U7MY-6dZaPbagmZ-86" value="" style="whiteSpace=wrap;html=1;aspect=fixed;" vertex="1" parent="1">
          <mxGeometry x="544" y="350" width="10" height="10" as="geometry" />
        </mxCell>
        <mxCell id="ACu0_U7MY-6dZaPbagmZ-87" value="" style="whiteSpace=wrap;html=1;aspect=fixed;" vertex="1" parent="1">
          <mxGeometry x="414" y="360" width="10" height="10" as="geometry" />
        </mxCell>
        <mxCell id="ACu0_U7MY-6dZaPbagmZ-88" value="" style="whiteSpace=wrap;html=1;aspect=fixed;" vertex="1" parent="1">
          <mxGeometry x="424" y="360" width="10" height="10" as="geometry" />
        </mxCell>
        <mxCell id="ACu0_U7MY-6dZaPbagmZ-89" value="" style="whiteSpace=wrap;html=1;aspect=fixed;" vertex="1" parent="1">
          <mxGeometry x="434" y="360" width="10" height="10" as="geometry" />
        </mxCell>
        <mxCell id="ACu0_U7MY-6dZaPbagmZ-90" value="" style="whiteSpace=wrap;html=1;aspect=fixed;fillColor=#fa6800;fontColor=#000000;strokeColor=#C73500;" vertex="1" parent="1">
          <mxGeometry x="444" y="360" width="10" height="10" as="geometry" />
        </mxCell>
        <mxCell id="ACu0_U7MY-6dZaPbagmZ-91" value="" style="whiteSpace=wrap;html=1;aspect=fixed;fillColor=#fa6800;fontColor=#000000;strokeColor=#C73500;" vertex="1" parent="1">
          <mxGeometry x="454" y="360" width="10" height="10" as="geometry" />
        </mxCell>
        <mxCell id="ACu0_U7MY-6dZaPbagmZ-92" value="" style="whiteSpace=wrap;html=1;aspect=fixed;fillColor=#fa6800;fontColor=#000000;strokeColor=#C73500;" vertex="1" parent="1">
          <mxGeometry x="464" y="360" width="10" height="10" as="geometry" />
        </mxCell>
        <mxCell id="ACu0_U7MY-6dZaPbagmZ-93" value="" style="whiteSpace=wrap;html=1;aspect=fixed;fillColor=#fa6800;fontColor=#000000;strokeColor=#C73500;" vertex="1" parent="1">
          <mxGeometry x="474" y="360" width="10" height="10" as="geometry" />
        </mxCell>
        <mxCell id="ACu0_U7MY-6dZaPbagmZ-94" value="" style="whiteSpace=wrap;html=1;aspect=fixed;fillColor=#fa6800;fontColor=#000000;strokeColor=#C73500;" vertex="1" parent="1">
          <mxGeometry x="484" y="360" width="10" height="10" as="geometry" />
        </mxCell>
        <mxCell id="ACu0_U7MY-6dZaPbagmZ-95" value="" style="whiteSpace=wrap;html=1;aspect=fixed;fillColor=#fa6800;fontColor=#000000;strokeColor=#C73500;" vertex="1" parent="1">
          <mxGeometry x="474" y="360" width="10" height="10" as="geometry" />
        </mxCell>
        <mxCell id="ACu0_U7MY-6dZaPbagmZ-96" value="" style="whiteSpace=wrap;html=1;aspect=fixed;fillColor=#fa6800;fontColor=#000000;strokeColor=#C73500;" vertex="1" parent="1">
          <mxGeometry x="484" y="360" width="10" height="10" as="geometry" />
        </mxCell>
        <mxCell id="ACu0_U7MY-6dZaPbagmZ-97" value="" style="whiteSpace=wrap;html=1;aspect=fixed;fillColor=#fa6800;fontColor=#000000;strokeColor=#C73500;" vertex="1" parent="1">
          <mxGeometry x="494" y="360" width="10" height="10" as="geometry" />
        </mxCell>
        <mxCell id="ACu0_U7MY-6dZaPbagmZ-98" value="" style="whiteSpace=wrap;html=1;aspect=fixed;fillColor=#fa6800;fontColor=#000000;strokeColor=#C73500;" vertex="1" parent="1">
          <mxGeometry x="504" y="360" width="10" height="10" as="geometry" />
        </mxCell>
        <mxCell id="ACu0_U7MY-6dZaPbagmZ-99" value="" style="whiteSpace=wrap;html=1;aspect=fixed;fillColor=#fa6800;fontColor=#000000;strokeColor=#C73500;" vertex="1" parent="1">
          <mxGeometry x="514" y="360" width="10" height="10" as="geometry" />
        </mxCell>
        <mxCell id="ACu0_U7MY-6dZaPbagmZ-100" value="" style="whiteSpace=wrap;html=1;aspect=fixed;" vertex="1" parent="1">
          <mxGeometry x="524" y="360" width="10" height="10" as="geometry" />
        </mxCell>
        <mxCell id="ACu0_U7MY-6dZaPbagmZ-101" value="" style="whiteSpace=wrap;html=1;aspect=fixed;" vertex="1" parent="1">
          <mxGeometry x="534" y="360" width="10" height="10" as="geometry" />
        </mxCell>
        <mxCell id="ACu0_U7MY-6dZaPbagmZ-102" value="" style="whiteSpace=wrap;html=1;aspect=fixed;" vertex="1" parent="1">
          <mxGeometry x="544" y="360" width="10" height="10" as="geometry" />
        </mxCell>
        <mxCell id="ACu0_U7MY-6dZaPbagmZ-103" value="" style="whiteSpace=wrap;html=1;aspect=fixed;" vertex="1" parent="1">
          <mxGeometry x="414" y="370" width="10" height="10" as="geometry" />
        </mxCell>
        <mxCell id="ACu0_U7MY-6dZaPbagmZ-104" value="" style="whiteSpace=wrap;html=1;aspect=fixed;" vertex="1" parent="1">
          <mxGeometry x="424" y="370" width="10" height="10" as="geometry" />
        </mxCell>
        <mxCell id="ACu0_U7MY-6dZaPbagmZ-105" value="" style="whiteSpace=wrap;html=1;aspect=fixed;" vertex="1" parent="1">
          <mxGeometry x="434" y="370" width="10" height="10" as="geometry" />
        </mxCell>
        <mxCell id="ACu0_U7MY-6dZaPbagmZ-106" value="" style="whiteSpace=wrap;html=1;aspect=fixed;fillColor=#fa6800;fontColor=#000000;strokeColor=#C73500;" vertex="1" parent="1">
          <mxGeometry x="444" y="370" width="10" height="10" as="geometry" />
        </mxCell>
        <mxCell id="ACu0_U7MY-6dZaPbagmZ-107" value="" style="whiteSpace=wrap;html=1;aspect=fixed;fillColor=#fa6800;fontColor=#000000;strokeColor=#C73500;" vertex="1" parent="1">
          <mxGeometry x="454" y="370" width="10" height="10" as="geometry" />
        </mxCell>
        <mxCell id="ACu0_U7MY-6dZaPbagmZ-108" value="" style="whiteSpace=wrap;html=1;aspect=fixed;fillColor=#fa6800;fontColor=#000000;strokeColor=#C73500;" vertex="1" parent="1">
          <mxGeometry x="464" y="370" width="10" height="10" as="geometry" />
        </mxCell>
        <mxCell id="ACu0_U7MY-6dZaPbagmZ-109" value="" style="whiteSpace=wrap;html=1;aspect=fixed;fillColor=#fa6800;fontColor=#000000;strokeColor=#C73500;" vertex="1" parent="1">
          <mxGeometry x="474" y="370" width="10" height="10" as="geometry" />
        </mxCell>
        <mxCell id="ACu0_U7MY-6dZaPbagmZ-110" value="" style="whiteSpace=wrap;html=1;aspect=fixed;fillColor=#fa6800;fontColor=#000000;strokeColor=#C73500;" vertex="1" parent="1">
          <mxGeometry x="484" y="370" width="10" height="10" as="geometry" />
        </mxCell>
        <mxCell id="ACu0_U7MY-6dZaPbagmZ-111" value="" style="whiteSpace=wrap;html=1;aspect=fixed;fillColor=#fa6800;fontColor=#000000;strokeColor=#C73500;" vertex="1" parent="1">
          <mxGeometry x="474" y="370" width="10" height="10" as="geometry" />
        </mxCell>
        <mxCell id="ACu0_U7MY-6dZaPbagmZ-112" value="" style="whiteSpace=wrap;html=1;aspect=fixed;fillColor=#fa6800;fontColor=#000000;strokeColor=#C73500;" vertex="1" parent="1">
          <mxGeometry x="484" y="370" width="10" height="10" as="geometry" />
        </mxCell>
        <mxCell id="ACu0_U7MY-6dZaPbagmZ-113" value="" style="whiteSpace=wrap;html=1;aspect=fixed;fillColor=#fa6800;fontColor=#000000;strokeColor=#C73500;" vertex="1" parent="1">
          <mxGeometry x="494" y="370" width="10" height="10" as="geometry" />
        </mxCell>
        <mxCell id="ACu0_U7MY-6dZaPbagmZ-114" value="" style="whiteSpace=wrap;html=1;aspect=fixed;fillColor=#fa6800;fontColor=#000000;strokeColor=#C73500;" vertex="1" parent="1">
          <mxGeometry x="504" y="370" width="10" height="10" as="geometry" />
        </mxCell>
        <mxCell id="ACu0_U7MY-6dZaPbagmZ-115" value="" style="whiteSpace=wrap;html=1;aspect=fixed;fillColor=#fa6800;fontColor=#000000;strokeColor=#C73500;" vertex="1" parent="1">
          <mxGeometry x="514" y="370" width="10" height="10" as="geometry" />
        </mxCell>
        <mxCell id="ACu0_U7MY-6dZaPbagmZ-116" value="" style="whiteSpace=wrap;html=1;aspect=fixed;" vertex="1" parent="1">
          <mxGeometry x="524" y="370" width="10" height="10" as="geometry" />
        </mxCell>
        <mxCell id="ACu0_U7MY-6dZaPbagmZ-117" value="" style="whiteSpace=wrap;html=1;aspect=fixed;" vertex="1" parent="1">
          <mxGeometry x="534" y="370" width="10" height="10" as="geometry" />
        </mxCell>
        <mxCell id="ACu0_U7MY-6dZaPbagmZ-118" value="" style="whiteSpace=wrap;html=1;aspect=fixed;" vertex="1" parent="1">
          <mxGeometry x="544" y="370" width="10" height="10" as="geometry" />
        </mxCell>
        <mxCell id="ACu0_U7MY-6dZaPbagmZ-119" value="" style="whiteSpace=wrap;html=1;aspect=fixed;" vertex="1" parent="1">
          <mxGeometry x="414" y="380" width="10" height="10" as="geometry" />
        </mxCell>
        <mxCell id="ACu0_U7MY-6dZaPbagmZ-120" value="" style="whiteSpace=wrap;html=1;aspect=fixed;" vertex="1" parent="1">
          <mxGeometry x="424" y="380" width="10" height="10" as="geometry" />
        </mxCell>
        <mxCell id="ACu0_U7MY-6dZaPbagmZ-121" value="" style="whiteSpace=wrap;html=1;aspect=fixed;" vertex="1" parent="1">
          <mxGeometry x="434" y="380" width="10" height="10" as="geometry" />
        </mxCell>
        <mxCell id="ACu0_U7MY-6dZaPbagmZ-122" value="" style="whiteSpace=wrap;html=1;aspect=fixed;fillColor=#fa6800;fontColor=#000000;strokeColor=#C73500;" vertex="1" parent="1">
          <mxGeometry x="444" y="380" width="10" height="10" as="geometry" />
        </mxCell>
        <mxCell id="ACu0_U7MY-6dZaPbagmZ-123" value="" style="whiteSpace=wrap;html=1;aspect=fixed;fillColor=#fa6800;fontColor=#000000;strokeColor=#C73500;" vertex="1" parent="1">
          <mxGeometry x="454" y="380" width="10" height="10" as="geometry" />
        </mxCell>
        <mxCell id="ACu0_U7MY-6dZaPbagmZ-124" value="" style="whiteSpace=wrap;html=1;aspect=fixed;fillColor=#fa6800;fontColor=#000000;strokeColor=#C73500;" vertex="1" parent="1">
          <mxGeometry x="464" y="380" width="10" height="10" as="geometry" />
        </mxCell>
        <mxCell id="ACu0_U7MY-6dZaPbagmZ-125" value="" style="whiteSpace=wrap;html=1;aspect=fixed;fillColor=#fa6800;fontColor=#000000;strokeColor=#C73500;" vertex="1" parent="1">
          <mxGeometry x="474" y="380" width="10" height="10" as="geometry" />
        </mxCell>
        <mxCell id="ACu0_U7MY-6dZaPbagmZ-126" value="" style="whiteSpace=wrap;html=1;aspect=fixed;fillColor=#fa6800;fontColor=#000000;strokeColor=#C73500;" vertex="1" parent="1">
          <mxGeometry x="484" y="380" width="10" height="10" as="geometry" />
        </mxCell>
        <mxCell id="ACu0_U7MY-6dZaPbagmZ-127" value="" style="whiteSpace=wrap;html=1;aspect=fixed;fillColor=#fa6800;fontColor=#000000;strokeColor=#C73500;" vertex="1" parent="1">
          <mxGeometry x="474" y="380" width="10" height="10" as="geometry" />
        </mxCell>
        <mxCell id="ACu0_U7MY-6dZaPbagmZ-128" value="" style="whiteSpace=wrap;html=1;aspect=fixed;fillColor=#fa6800;fontColor=#000000;strokeColor=#C73500;" vertex="1" parent="1">
          <mxGeometry x="484" y="380" width="10" height="10" as="geometry" />
        </mxCell>
        <mxCell id="ACu0_U7MY-6dZaPbagmZ-129" value="" style="whiteSpace=wrap;html=1;aspect=fixed;fillColor=#fa6800;fontColor=#000000;strokeColor=#C73500;" vertex="1" parent="1">
          <mxGeometry x="494" y="380" width="10" height="10" as="geometry" />
        </mxCell>
        <mxCell id="ACu0_U7MY-6dZaPbagmZ-130" value="" style="whiteSpace=wrap;html=1;aspect=fixed;fillColor=#fa6800;fontColor=#000000;strokeColor=#C73500;" vertex="1" parent="1">
          <mxGeometry x="504" y="380" width="10" height="10" as="geometry" />
        </mxCell>
        <mxCell id="ACu0_U7MY-6dZaPbagmZ-131" value="" style="whiteSpace=wrap;html=1;aspect=fixed;fillColor=#fa6800;fontColor=#000000;strokeColor=#C73500;" vertex="1" parent="1">
          <mxGeometry x="514" y="380" width="10" height="10" as="geometry" />
        </mxCell>
        <mxCell id="ACu0_U7MY-6dZaPbagmZ-132" value="" style="whiteSpace=wrap;html=1;aspect=fixed;" vertex="1" parent="1">
          <mxGeometry x="524" y="380" width="10" height="10" as="geometry" />
        </mxCell>
        <mxCell id="ACu0_U7MY-6dZaPbagmZ-133" value="" style="whiteSpace=wrap;html=1;aspect=fixed;" vertex="1" parent="1">
          <mxGeometry x="534" y="380" width="10" height="10" as="geometry" />
        </mxCell>
        <mxCell id="ACu0_U7MY-6dZaPbagmZ-134" value="" style="whiteSpace=wrap;html=1;aspect=fixed;" vertex="1" parent="1">
          <mxGeometry x="544" y="380" width="10" height="10" as="geometry" />
        </mxCell>
        <mxCell id="ACu0_U7MY-6dZaPbagmZ-135" value="" style="whiteSpace=wrap;html=1;aspect=fixed;" vertex="1" parent="1">
          <mxGeometry x="414" y="390" width="10" height="10" as="geometry" />
        </mxCell>
        <mxCell id="ACu0_U7MY-6dZaPbagmZ-136" value="" style="whiteSpace=wrap;html=1;aspect=fixed;" vertex="1" parent="1">
          <mxGeometry x="424" y="390" width="10" height="10" as="geometry" />
        </mxCell>
        <mxCell id="ACu0_U7MY-6dZaPbagmZ-137" value="" style="whiteSpace=wrap;html=1;aspect=fixed;" vertex="1" parent="1">
          <mxGeometry x="434" y="390" width="10" height="10" as="geometry" />
        </mxCell>
        <mxCell id="ACu0_U7MY-6dZaPbagmZ-138" value="" style="whiteSpace=wrap;html=1;aspect=fixed;fillColor=#fa6800;fontColor=#000000;strokeColor=#C73500;" vertex="1" parent="1">
          <mxGeometry x="444" y="390" width="10" height="10" as="geometry" />
        </mxCell>
        <mxCell id="ACu0_U7MY-6dZaPbagmZ-139" value="" style="whiteSpace=wrap;html=1;aspect=fixed;fillColor=#fa6800;fontColor=#000000;strokeColor=#C73500;" vertex="1" parent="1">
          <mxGeometry x="454" y="390" width="10" height="10" as="geometry" />
        </mxCell>
        <mxCell id="ACu0_U7MY-6dZaPbagmZ-140" value="" style="whiteSpace=wrap;html=1;aspect=fixed;fillColor=#fa6800;fontColor=#000000;strokeColor=#C73500;" vertex="1" parent="1">
          <mxGeometry x="464" y="390" width="10" height="10" as="geometry" />
        </mxCell>
        <mxCell id="ACu0_U7MY-6dZaPbagmZ-141" value="" style="whiteSpace=wrap;html=1;aspect=fixed;fillColor=#fa6800;fontColor=#000000;strokeColor=#C73500;" vertex="1" parent="1">
          <mxGeometry x="474" y="390" width="10" height="10" as="geometry" />
        </mxCell>
        <mxCell id="ACu0_U7MY-6dZaPbagmZ-142" value="" style="whiteSpace=wrap;html=1;aspect=fixed;fillColor=#fa6800;fontColor=#000000;strokeColor=#C73500;" vertex="1" parent="1">
          <mxGeometry x="484" y="390" width="10" height="10" as="geometry" />
        </mxCell>
        <mxCell id="ACu0_U7MY-6dZaPbagmZ-143" value="" style="whiteSpace=wrap;html=1;aspect=fixed;fillColor=#fa6800;fontColor=#000000;strokeColor=#C73500;" vertex="1" parent="1">
          <mxGeometry x="474" y="390" width="10" height="10" as="geometry" />
        </mxCell>
        <mxCell id="ACu0_U7MY-6dZaPbagmZ-144" value="" style="whiteSpace=wrap;html=1;aspect=fixed;fillColor=#fa6800;fontColor=#000000;strokeColor=#C73500;" vertex="1" parent="1">
          <mxGeometry x="484" y="390" width="10" height="10" as="geometry" />
        </mxCell>
        <mxCell id="ACu0_U7MY-6dZaPbagmZ-145" value="" style="whiteSpace=wrap;html=1;aspect=fixed;fillColor=#fa6800;fontColor=#000000;strokeColor=#C73500;" vertex="1" parent="1">
          <mxGeometry x="494" y="390" width="10" height="10" as="geometry" />
        </mxCell>
        <mxCell id="ACu0_U7MY-6dZaPbagmZ-146" value="" style="whiteSpace=wrap;html=1;aspect=fixed;fillColor=#fa6800;fontColor=#000000;strokeColor=#C73500;" vertex="1" parent="1">
          <mxGeometry x="504" y="390" width="10" height="10" as="geometry" />
        </mxCell>
        <mxCell id="ACu0_U7MY-6dZaPbagmZ-147" value="" style="whiteSpace=wrap;html=1;aspect=fixed;fillColor=#fa6800;fontColor=#000000;strokeColor=#C73500;" vertex="1" parent="1">
          <mxGeometry x="514" y="390" width="10" height="10" as="geometry" />
        </mxCell>
        <mxCell id="ACu0_U7MY-6dZaPbagmZ-148" value="" style="whiteSpace=wrap;html=1;aspect=fixed;" vertex="1" parent="1">
          <mxGeometry x="524" y="390" width="10" height="10" as="geometry" />
        </mxCell>
        <mxCell id="ACu0_U7MY-6dZaPbagmZ-149" value="" style="whiteSpace=wrap;html=1;aspect=fixed;" vertex="1" parent="1">
          <mxGeometry x="534" y="390" width="10" height="10" as="geometry" />
        </mxCell>
        <mxCell id="ACu0_U7MY-6dZaPbagmZ-150" value="" style="whiteSpace=wrap;html=1;aspect=fixed;" vertex="1" parent="1">
          <mxGeometry x="544" y="390" width="10" height="10" as="geometry" />
        </mxCell>
        <mxCell id="ACu0_U7MY-6dZaPbagmZ-152" value="Fragment&lt;div&gt;Process&lt;/div&gt;" style="rounded=1;whiteSpace=wrap;html=1;" vertex="1" parent="1">
          <mxGeometry x="610" y="140" width="80" height="40" as="geometry" />
        </mxCell>
        <mxCell id="ACu0_U7MY-6dZaPbagmZ-156" value="" style="whiteSpace=wrap;html=1;aspect=fixed;" vertex="1" parent="1">
          <mxGeometry x="590" y="200" width="10" height="10" as="geometry" />
        </mxCell>
        <mxCell id="ACu0_U7MY-6dZaPbagmZ-157" value="" style="whiteSpace=wrap;html=1;aspect=fixed;" vertex="1" parent="1">
          <mxGeometry x="600" y="200" width="10" height="10" as="geometry" />
        </mxCell>
        <mxCell id="ACu0_U7MY-6dZaPbagmZ-158" value="" style="whiteSpace=wrap;html=1;aspect=fixed;" vertex="1" parent="1">
          <mxGeometry x="610" y="200" width="10" height="10" as="geometry" />
        </mxCell>
        <mxCell id="ACu0_U7MY-6dZaPbagmZ-159" value="" style="whiteSpace=wrap;html=1;aspect=fixed;" vertex="1" parent="1">
          <mxGeometry x="620" y="200" width="10" height="10" as="geometry" />
        </mxCell>
        <mxCell id="ACu0_U7MY-6dZaPbagmZ-160" value="" style="whiteSpace=wrap;html=1;aspect=fixed;" vertex="1" parent="1">
          <mxGeometry x="630" y="200" width="10" height="10" as="geometry" />
        </mxCell>
        <mxCell id="ACu0_U7MY-6dZaPbagmZ-161" value="" style="whiteSpace=wrap;html=1;aspect=fixed;" vertex="1" parent="1">
          <mxGeometry x="640" y="200" width="10" height="10" as="geometry" />
        </mxCell>
        <mxCell id="ACu0_U7MY-6dZaPbagmZ-162" value="" style="whiteSpace=wrap;html=1;aspect=fixed;" vertex="1" parent="1">
          <mxGeometry x="650" y="200" width="10" height="10" as="geometry" />
        </mxCell>
        <mxCell id="ACu0_U7MY-6dZaPbagmZ-163" value="" style="whiteSpace=wrap;html=1;aspect=fixed;" vertex="1" parent="1">
          <mxGeometry x="660" y="200" width="10" height="10" as="geometry" />
        </mxCell>
        <mxCell id="ACu0_U7MY-6dZaPbagmZ-164" value="" style="whiteSpace=wrap;html=1;aspect=fixed;" vertex="1" parent="1">
          <mxGeometry x="650" y="200" width="10" height="10" as="geometry" />
        </mxCell>
        <mxCell id="ACu0_U7MY-6dZaPbagmZ-165" value="" style="whiteSpace=wrap;html=1;aspect=fixed;" vertex="1" parent="1">
          <mxGeometry x="660" y="200" width="10" height="10" as="geometry" />
        </mxCell>
        <mxCell id="ACu0_U7MY-6dZaPbagmZ-166" value="" style="whiteSpace=wrap;html=1;aspect=fixed;" vertex="1" parent="1">
          <mxGeometry x="670" y="200" width="10" height="10" as="geometry" />
        </mxCell>
        <mxCell id="ACu0_U7MY-6dZaPbagmZ-167" value="" style="whiteSpace=wrap;html=1;aspect=fixed;" vertex="1" parent="1">
          <mxGeometry x="680" y="200" width="10" height="10" as="geometry" />
        </mxCell>
        <mxCell id="ACu0_U7MY-6dZaPbagmZ-168" value="" style="whiteSpace=wrap;html=1;aspect=fixed;" vertex="1" parent="1">
          <mxGeometry x="690" y="200" width="10" height="10" as="geometry" />
        </mxCell>
        <mxCell id="ACu0_U7MY-6dZaPbagmZ-169" value="" style="whiteSpace=wrap;html=1;aspect=fixed;" vertex="1" parent="1">
          <mxGeometry x="700" y="200" width="10" height="10" as="geometry" />
        </mxCell>
        <mxCell id="ACu0_U7MY-6dZaPbagmZ-170" value="" style="whiteSpace=wrap;html=1;aspect=fixed;" vertex="1" parent="1">
          <mxGeometry x="710" y="200" width="10" height="10" as="geometry" />
        </mxCell>
        <mxCell id="ACu0_U7MY-6dZaPbagmZ-171" value="" style="whiteSpace=wrap;html=1;aspect=fixed;" vertex="1" parent="1">
          <mxGeometry x="720" y="200" width="10" height="10" as="geometry" />
        </mxCell>
        <mxCell id="ACu0_U7MY-6dZaPbagmZ-172" value="" style="whiteSpace=wrap;html=1;aspect=fixed;" vertex="1" parent="1">
          <mxGeometry x="590" y="210" width="10" height="10" as="geometry" />
        </mxCell>
        <mxCell id="ACu0_U7MY-6dZaPbagmZ-173" value="" style="whiteSpace=wrap;html=1;aspect=fixed;" vertex="1" parent="1">
          <mxGeometry x="600" y="210" width="10" height="10" as="geometry" />
        </mxCell>
        <mxCell id="ACu0_U7MY-6dZaPbagmZ-174" value="" style="whiteSpace=wrap;html=1;aspect=fixed;" vertex="1" parent="1">
          <mxGeometry x="610" y="210" width="10" height="10" as="geometry" />
        </mxCell>
        <mxCell id="ACu0_U7MY-6dZaPbagmZ-175" value="" style="whiteSpace=wrap;html=1;aspect=fixed;" vertex="1" parent="1">
          <mxGeometry x="620" y="210" width="10" height="10" as="geometry" />
        </mxCell>
        <mxCell id="ACu0_U7MY-6dZaPbagmZ-176" value="" style="whiteSpace=wrap;html=1;aspect=fixed;" vertex="1" parent="1">
          <mxGeometry x="630" y="210" width="10" height="10" as="geometry" />
        </mxCell>
        <mxCell id="ACu0_U7MY-6dZaPbagmZ-177" value="" style="whiteSpace=wrap;html=1;aspect=fixed;fillColor=#fa6800;fontColor=#000000;strokeColor=#C73500;" vertex="1" parent="1">
          <mxGeometry x="640" y="210" width="10" height="10" as="geometry" />
        </mxCell>
        <mxCell id="ACu0_U7MY-6dZaPbagmZ-178" value="" style="whiteSpace=wrap;html=1;aspect=fixed;" vertex="1" parent="1">
          <mxGeometry x="650" y="210" width="10" height="10" as="geometry" />
        </mxCell>
        <mxCell id="ACu0_U7MY-6dZaPbagmZ-179" value="" style="whiteSpace=wrap;html=1;aspect=fixed;" vertex="1" parent="1">
          <mxGeometry x="660" y="210" width="10" height="10" as="geometry" />
        </mxCell>
        <mxCell id="ACu0_U7MY-6dZaPbagmZ-180" value="" style="whiteSpace=wrap;html=1;aspect=fixed;fillColor=#fa6800;fontColor=#000000;strokeColor=#C73500;" vertex="1" parent="1">
          <mxGeometry x="650" y="210" width="10" height="10" as="geometry" />
        </mxCell>
        <mxCell id="ACu0_U7MY-6dZaPbagmZ-181" value="" style="whiteSpace=wrap;html=1;aspect=fixed;fillColor=#fa6800;fontColor=#000000;strokeColor=#C73500;" vertex="1" parent="1">
          <mxGeometry x="660" y="210" width="10" height="10" as="geometry" />
        </mxCell>
        <mxCell id="ACu0_U7MY-6dZaPbagmZ-182" value="" style="whiteSpace=wrap;html=1;aspect=fixed;fillColor=#fa6800;fontColor=#000000;strokeColor=#C73500;" vertex="1" parent="1">
          <mxGeometry x="670" y="210" width="10" height="10" as="geometry" />
        </mxCell>
        <mxCell id="ACu0_U7MY-6dZaPbagmZ-183" value="" style="whiteSpace=wrap;html=1;aspect=fixed;" vertex="1" parent="1">
          <mxGeometry x="680" y="210" width="10" height="10" as="geometry" />
        </mxCell>
        <mxCell id="ACu0_U7MY-6dZaPbagmZ-184" value="" style="whiteSpace=wrap;html=1;aspect=fixed;" vertex="1" parent="1">
          <mxGeometry x="690" y="210" width="10" height="10" as="geometry" />
        </mxCell>
        <mxCell id="ACu0_U7MY-6dZaPbagmZ-185" value="" style="whiteSpace=wrap;html=1;aspect=fixed;" vertex="1" parent="1">
          <mxGeometry x="700" y="210" width="10" height="10" as="geometry" />
        </mxCell>
        <mxCell id="ACu0_U7MY-6dZaPbagmZ-186" value="" style="whiteSpace=wrap;html=1;aspect=fixed;" vertex="1" parent="1">
          <mxGeometry x="710" y="210" width="10" height="10" as="geometry" />
        </mxCell>
        <mxCell id="ACu0_U7MY-6dZaPbagmZ-187" value="" style="whiteSpace=wrap;html=1;aspect=fixed;" vertex="1" parent="1">
          <mxGeometry x="720" y="210" width="10" height="10" as="geometry" />
        </mxCell>
        <mxCell id="ACu0_U7MY-6dZaPbagmZ-188" value="" style="whiteSpace=wrap;html=1;aspect=fixed;" vertex="1" parent="1">
          <mxGeometry x="590" y="220" width="10" height="10" as="geometry" />
        </mxCell>
        <mxCell id="ACu0_U7MY-6dZaPbagmZ-189" value="" style="whiteSpace=wrap;html=1;aspect=fixed;" vertex="1" parent="1">
          <mxGeometry x="600" y="220" width="10" height="10" as="geometry" />
        </mxCell>
        <mxCell id="ACu0_U7MY-6dZaPbagmZ-190" value="" style="whiteSpace=wrap;html=1;aspect=fixed;" vertex="1" parent="1">
          <mxGeometry x="610" y="220" width="10" height="10" as="geometry" />
        </mxCell>
        <mxCell id="ACu0_U7MY-6dZaPbagmZ-191" value="" style="whiteSpace=wrap;html=1;aspect=fixed;" vertex="1" parent="1">
          <mxGeometry x="620" y="220" width="10" height="10" as="geometry" />
        </mxCell>
        <mxCell id="ACu0_U7MY-6dZaPbagmZ-192" value="" style="whiteSpace=wrap;html=1;aspect=fixed;fillColor=#fa6800;fontColor=#000000;strokeColor=#C73500;" vertex="1" parent="1">
          <mxGeometry x="630" y="220" width="10" height="10" as="geometry" />
        </mxCell>
        <mxCell id="ACu0_U7MY-6dZaPbagmZ-193" value="" style="whiteSpace=wrap;html=1;aspect=fixed;fillColor=#fa6800;fontColor=#000000;strokeColor=#C73500;" vertex="1" parent="1">
          <mxGeometry x="640" y="220" width="10" height="10" as="geometry" />
        </mxCell>
        <mxCell id="ACu0_U7MY-6dZaPbagmZ-194" value="" style="whiteSpace=wrap;html=1;aspect=fixed;fillColor=#fa6800;fontColor=#000000;strokeColor=#C73500;" vertex="1" parent="1">
          <mxGeometry x="650" y="220" width="10" height="10" as="geometry" />
        </mxCell>
        <mxCell id="ACu0_U7MY-6dZaPbagmZ-195" value="" style="whiteSpace=wrap;html=1;aspect=fixed;fillColor=#fa6800;fontColor=#000000;strokeColor=#C73500;" vertex="1" parent="1">
          <mxGeometry x="660" y="220" width="10" height="10" as="geometry" />
        </mxCell>
        <mxCell id="ACu0_U7MY-6dZaPbagmZ-196" value="" style="whiteSpace=wrap;html=1;aspect=fixed;fillColor=#fa6800;fontColor=#000000;strokeColor=#C73500;" vertex="1" parent="1">
          <mxGeometry x="650" y="220" width="10" height="10" as="geometry" />
        </mxCell>
        <mxCell id="ACu0_U7MY-6dZaPbagmZ-197" value="" style="whiteSpace=wrap;html=1;aspect=fixed;fillColor=#fa6800;fontColor=#000000;strokeColor=#C73500;" vertex="1" parent="1">
          <mxGeometry x="660" y="220" width="10" height="10" as="geometry" />
        </mxCell>
        <mxCell id="ACu0_U7MY-6dZaPbagmZ-198" value="" style="whiteSpace=wrap;html=1;aspect=fixed;fillColor=#fa6800;fontColor=#000000;strokeColor=#C73500;" vertex="1" parent="1">
          <mxGeometry x="670" y="220" width="10" height="10" as="geometry" />
        </mxCell>
        <mxCell id="ACu0_U7MY-6dZaPbagmZ-199" value="" style="whiteSpace=wrap;html=1;aspect=fixed;fillColor=#fa6800;fontColor=#000000;strokeColor=#C73500;" vertex="1" parent="1">
          <mxGeometry x="680" y="220" width="10" height="10" as="geometry" />
        </mxCell>
        <mxCell id="ACu0_U7MY-6dZaPbagmZ-200" value="" style="whiteSpace=wrap;html=1;aspect=fixed;" vertex="1" parent="1">
          <mxGeometry x="690" y="220" width="10" height="10" as="geometry" />
        </mxCell>
        <mxCell id="ACu0_U7MY-6dZaPbagmZ-201" value="" style="whiteSpace=wrap;html=1;aspect=fixed;" vertex="1" parent="1">
          <mxGeometry x="700" y="220" width="10" height="10" as="geometry" />
        </mxCell>
        <mxCell id="ACu0_U7MY-6dZaPbagmZ-202" value="" style="whiteSpace=wrap;html=1;aspect=fixed;" vertex="1" parent="1">
          <mxGeometry x="710" y="220" width="10" height="10" as="geometry" />
        </mxCell>
        <mxCell id="ACu0_U7MY-6dZaPbagmZ-203" value="" style="whiteSpace=wrap;html=1;aspect=fixed;" vertex="1" parent="1">
          <mxGeometry x="720" y="220" width="10" height="10" as="geometry" />
        </mxCell>
        <mxCell id="ACu0_U7MY-6dZaPbagmZ-204" value="" style="whiteSpace=wrap;html=1;aspect=fixed;" vertex="1" parent="1">
          <mxGeometry x="590" y="230" width="10" height="10" as="geometry" />
        </mxCell>
        <mxCell id="ACu0_U7MY-6dZaPbagmZ-205" value="" style="whiteSpace=wrap;html=1;aspect=fixed;" vertex="1" parent="1">
          <mxGeometry x="600" y="230" width="10" height="10" as="geometry" />
        </mxCell>
        <mxCell id="ACu0_U7MY-6dZaPbagmZ-206" value="" style="whiteSpace=wrap;html=1;aspect=fixed;" vertex="1" parent="1">
          <mxGeometry x="610" y="230" width="10" height="10" as="geometry" />
        </mxCell>
        <mxCell id="ACu0_U7MY-6dZaPbagmZ-207" value="" style="whiteSpace=wrap;html=1;aspect=fixed;fillColor=#fa6800;fontColor=#000000;strokeColor=#C73500;" vertex="1" parent="1">
          <mxGeometry x="620" y="230" width="10" height="10" as="geometry" />
        </mxCell>
        <mxCell id="ACu0_U7MY-6dZaPbagmZ-208" value="" style="whiteSpace=wrap;html=1;aspect=fixed;fillColor=#fa6800;fontColor=#000000;strokeColor=#C73500;" vertex="1" parent="1">
          <mxGeometry x="630" y="230" width="10" height="10" as="geometry" />
        </mxCell>
        <mxCell id="ACu0_U7MY-6dZaPbagmZ-209" value="" style="whiteSpace=wrap;html=1;aspect=fixed;fillColor=#fa6800;fontColor=#000000;strokeColor=#C73500;" vertex="1" parent="1">
          <mxGeometry x="640" y="230" width="10" height="10" as="geometry" />
        </mxCell>
        <mxCell id="ACu0_U7MY-6dZaPbagmZ-210" value="" style="whiteSpace=wrap;html=1;aspect=fixed;fillColor=#fa6800;fontColor=#000000;strokeColor=#C73500;" vertex="1" parent="1">
          <mxGeometry x="650" y="230" width="10" height="10" as="geometry" />
        </mxCell>
        <mxCell id="ACu0_U7MY-6dZaPbagmZ-211" value="" style="whiteSpace=wrap;html=1;aspect=fixed;fillColor=#fa6800;fontColor=#000000;strokeColor=#C73500;" vertex="1" parent="1">
          <mxGeometry x="660" y="230" width="10" height="10" as="geometry" />
        </mxCell>
        <mxCell id="ACu0_U7MY-6dZaPbagmZ-212" value="" style="whiteSpace=wrap;html=1;aspect=fixed;fillColor=#fa6800;fontColor=#000000;strokeColor=#C73500;" vertex="1" parent="1">
          <mxGeometry x="650" y="230" width="10" height="10" as="geometry" />
        </mxCell>
        <mxCell id="ACu0_U7MY-6dZaPbagmZ-213" value="" style="whiteSpace=wrap;html=1;aspect=fixed;fillColor=#fa6800;fontColor=#000000;strokeColor=#C73500;" vertex="1" parent="1">
          <mxGeometry x="660" y="230" width="10" height="10" as="geometry" />
        </mxCell>
        <mxCell id="ACu0_U7MY-6dZaPbagmZ-214" value="" style="whiteSpace=wrap;html=1;aspect=fixed;fillColor=#fa6800;fontColor=#000000;strokeColor=#C73500;" vertex="1" parent="1">
          <mxGeometry x="670" y="230" width="10" height="10" as="geometry" />
        </mxCell>
        <mxCell id="ACu0_U7MY-6dZaPbagmZ-215" value="" style="whiteSpace=wrap;html=1;aspect=fixed;fillColor=#fa6800;fontColor=#000000;strokeColor=#C73500;" vertex="1" parent="1">
          <mxGeometry x="680" y="230" width="10" height="10" as="geometry" />
        </mxCell>
        <mxCell id="ACu0_U7MY-6dZaPbagmZ-216" value="" style="whiteSpace=wrap;html=1;aspect=fixed;fillColor=#fa6800;fontColor=#000000;strokeColor=#C73500;" vertex="1" parent="1">
          <mxGeometry x="690" y="230" width="10" height="10" as="geometry" />
        </mxCell>
        <mxCell id="ACu0_U7MY-6dZaPbagmZ-217" value="" style="whiteSpace=wrap;html=1;aspect=fixed;" vertex="1" parent="1">
          <mxGeometry x="700" y="230" width="10" height="10" as="geometry" />
        </mxCell>
        <mxCell id="ACu0_U7MY-6dZaPbagmZ-218" value="" style="whiteSpace=wrap;html=1;aspect=fixed;" vertex="1" parent="1">
          <mxGeometry x="710" y="230" width="10" height="10" as="geometry" />
        </mxCell>
        <mxCell id="ACu0_U7MY-6dZaPbagmZ-219" value="" style="whiteSpace=wrap;html=1;aspect=fixed;" vertex="1" parent="1">
          <mxGeometry x="720" y="230" width="10" height="10" as="geometry" />
        </mxCell>
        <mxCell id="ACu0_U7MY-6dZaPbagmZ-220" value="" style="whiteSpace=wrap;html=1;aspect=fixed;" vertex="1" parent="1">
          <mxGeometry x="590" y="240" width="10" height="10" as="geometry" />
        </mxCell>
        <mxCell id="ACu0_U7MY-6dZaPbagmZ-221" value="" style="whiteSpace=wrap;html=1;aspect=fixed;" vertex="1" parent="1">
          <mxGeometry x="600" y="240" width="10" height="10" as="geometry" />
        </mxCell>
        <mxCell id="ACu0_U7MY-6dZaPbagmZ-222" value="" style="whiteSpace=wrap;html=1;aspect=fixed;" vertex="1" parent="1">
          <mxGeometry x="610" y="240" width="10" height="10" as="geometry" />
        </mxCell>
        <mxCell id="ACu0_U7MY-6dZaPbagmZ-223" value="" style="whiteSpace=wrap;html=1;aspect=fixed;fillColor=#fa6800;fontColor=#000000;strokeColor=#C73500;" vertex="1" parent="1">
          <mxGeometry x="620" y="240" width="10" height="10" as="geometry" />
        </mxCell>
        <mxCell id="ACu0_U7MY-6dZaPbagmZ-224" value="" style="whiteSpace=wrap;html=1;aspect=fixed;fillColor=#fa6800;fontColor=#000000;strokeColor=#C73500;" vertex="1" parent="1">
          <mxGeometry x="630" y="240" width="10" height="10" as="geometry" />
        </mxCell>
        <mxCell id="ACu0_U7MY-6dZaPbagmZ-225" value="" style="whiteSpace=wrap;html=1;aspect=fixed;fillColor=#fa6800;fontColor=#000000;strokeColor=#C73500;" vertex="1" parent="1">
          <mxGeometry x="640" y="240" width="10" height="10" as="geometry" />
        </mxCell>
        <mxCell id="ACu0_U7MY-6dZaPbagmZ-226" value="" style="whiteSpace=wrap;html=1;aspect=fixed;fillColor=#fa6800;fontColor=#000000;strokeColor=#C73500;" vertex="1" parent="1">
          <mxGeometry x="650" y="240" width="10" height="10" as="geometry" />
        </mxCell>
        <mxCell id="ACu0_U7MY-6dZaPbagmZ-227" value="" style="whiteSpace=wrap;html=1;aspect=fixed;fillColor=#fa6800;fontColor=#000000;strokeColor=#C73500;" vertex="1" parent="1">
          <mxGeometry x="660" y="240" width="10" height="10" as="geometry" />
        </mxCell>
        <mxCell id="ACu0_U7MY-6dZaPbagmZ-228" value="" style="whiteSpace=wrap;html=1;aspect=fixed;fillColor=#fa6800;fontColor=#000000;strokeColor=#C73500;" vertex="1" parent="1">
          <mxGeometry x="650" y="240" width="10" height="10" as="geometry" />
        </mxCell>
        <mxCell id="ACu0_U7MY-6dZaPbagmZ-229" value="" style="whiteSpace=wrap;html=1;aspect=fixed;fillColor=#fa6800;fontColor=#000000;strokeColor=#C73500;" vertex="1" parent="1">
          <mxGeometry x="660" y="240" width="10" height="10" as="geometry" />
        </mxCell>
        <mxCell id="ACu0_U7MY-6dZaPbagmZ-230" value="" style="whiteSpace=wrap;html=1;aspect=fixed;fillColor=#fa6800;fontColor=#000000;strokeColor=#C73500;" vertex="1" parent="1">
          <mxGeometry x="670" y="240" width="10" height="10" as="geometry" />
        </mxCell>
        <mxCell id="ACu0_U7MY-6dZaPbagmZ-231" value="" style="whiteSpace=wrap;html=1;aspect=fixed;fillColor=#fa6800;fontColor=#000000;strokeColor=#C73500;" vertex="1" parent="1">
          <mxGeometry x="680" y="240" width="10" height="10" as="geometry" />
        </mxCell>
        <mxCell id="ACu0_U7MY-6dZaPbagmZ-232" value="" style="whiteSpace=wrap;html=1;aspect=fixed;fillColor=#fa6800;fontColor=#000000;strokeColor=#C73500;" vertex="1" parent="1">
          <mxGeometry x="690" y="240" width="10" height="10" as="geometry" />
        </mxCell>
        <mxCell id="ACu0_U7MY-6dZaPbagmZ-233" value="" style="whiteSpace=wrap;html=1;aspect=fixed;" vertex="1" parent="1">
          <mxGeometry x="700" y="240" width="10" height="10" as="geometry" />
        </mxCell>
        <mxCell id="ACu0_U7MY-6dZaPbagmZ-234" value="" style="whiteSpace=wrap;html=1;aspect=fixed;" vertex="1" parent="1">
          <mxGeometry x="710" y="240" width="10" height="10" as="geometry" />
        </mxCell>
        <mxCell id="ACu0_U7MY-6dZaPbagmZ-235" value="" style="whiteSpace=wrap;html=1;aspect=fixed;" vertex="1" parent="1">
          <mxGeometry x="720" y="240" width="10" height="10" as="geometry" />
        </mxCell>
        <mxCell id="ACu0_U7MY-6dZaPbagmZ-236" value="" style="whiteSpace=wrap;html=1;aspect=fixed;" vertex="1" parent="1">
          <mxGeometry x="590" y="250" width="10" height="10" as="geometry" />
        </mxCell>
        <mxCell id="ACu0_U7MY-6dZaPbagmZ-237" value="" style="whiteSpace=wrap;html=1;aspect=fixed;" vertex="1" parent="1">
          <mxGeometry x="600" y="250" width="10" height="10" as="geometry" />
        </mxCell>
        <mxCell id="ACu0_U7MY-6dZaPbagmZ-238" value="" style="whiteSpace=wrap;html=1;aspect=fixed;" vertex="1" parent="1">
          <mxGeometry x="610" y="250" width="10" height="10" as="geometry" />
        </mxCell>
        <mxCell id="ACu0_U7MY-6dZaPbagmZ-239" value="" style="whiteSpace=wrap;html=1;aspect=fixed;fillColor=#fa6800;fontColor=#000000;strokeColor=#C73500;" vertex="1" parent="1">
          <mxGeometry x="620" y="250" width="10" height="10" as="geometry" />
        </mxCell>
        <mxCell id="ACu0_U7MY-6dZaPbagmZ-240" value="" style="whiteSpace=wrap;html=1;aspect=fixed;fillColor=#fa6800;fontColor=#000000;strokeColor=#C73500;" vertex="1" parent="1">
          <mxGeometry x="630" y="250" width="10" height="10" as="geometry" />
        </mxCell>
        <mxCell id="ACu0_U7MY-6dZaPbagmZ-241" value="" style="whiteSpace=wrap;html=1;aspect=fixed;fillColor=#fa6800;fontColor=#000000;strokeColor=#C73500;" vertex="1" parent="1">
          <mxGeometry x="640" y="250" width="10" height="10" as="geometry" />
        </mxCell>
        <mxCell id="ACu0_U7MY-6dZaPbagmZ-242" value="" style="whiteSpace=wrap;html=1;aspect=fixed;fillColor=#fa6800;fontColor=#000000;strokeColor=#C73500;" vertex="1" parent="1">
          <mxGeometry x="650" y="250" width="10" height="10" as="geometry" />
        </mxCell>
        <mxCell id="ACu0_U7MY-6dZaPbagmZ-243" value="" style="whiteSpace=wrap;html=1;aspect=fixed;fillColor=#fa6800;fontColor=#000000;strokeColor=#C73500;" vertex="1" parent="1">
          <mxGeometry x="660" y="250" width="10" height="10" as="geometry" />
        </mxCell>
        <mxCell id="ACu0_U7MY-6dZaPbagmZ-244" value="" style="whiteSpace=wrap;html=1;aspect=fixed;fillColor=#fa6800;fontColor=#000000;strokeColor=#C73500;" vertex="1" parent="1">
          <mxGeometry x="650" y="250" width="10" height="10" as="geometry" />
        </mxCell>
        <mxCell id="ACu0_U7MY-6dZaPbagmZ-245" value="" style="whiteSpace=wrap;html=1;aspect=fixed;fillColor=#fa6800;fontColor=#000000;strokeColor=#C73500;" vertex="1" parent="1">
          <mxGeometry x="660" y="250" width="10" height="10" as="geometry" />
        </mxCell>
        <mxCell id="ACu0_U7MY-6dZaPbagmZ-246" value="" style="whiteSpace=wrap;html=1;aspect=fixed;fillColor=#fa6800;fontColor=#000000;strokeColor=#C73500;" vertex="1" parent="1">
          <mxGeometry x="670" y="250" width="10" height="10" as="geometry" />
        </mxCell>
        <mxCell id="ACu0_U7MY-6dZaPbagmZ-247" value="" style="whiteSpace=wrap;html=1;aspect=fixed;fillColor=#fa6800;fontColor=#000000;strokeColor=#C73500;" vertex="1" parent="1">
          <mxGeometry x="680" y="250" width="10" height="10" as="geometry" />
        </mxCell>
        <mxCell id="ACu0_U7MY-6dZaPbagmZ-248" value="" style="whiteSpace=wrap;html=1;aspect=fixed;fillColor=#fa6800;fontColor=#000000;strokeColor=#C73500;" vertex="1" parent="1">
          <mxGeometry x="690" y="250" width="10" height="10" as="geometry" />
        </mxCell>
        <mxCell id="ACu0_U7MY-6dZaPbagmZ-249" value="" style="whiteSpace=wrap;html=1;aspect=fixed;" vertex="1" parent="1">
          <mxGeometry x="700" y="250" width="10" height="10" as="geometry" />
        </mxCell>
        <mxCell id="ACu0_U7MY-6dZaPbagmZ-250" value="" style="whiteSpace=wrap;html=1;aspect=fixed;" vertex="1" parent="1">
          <mxGeometry x="710" y="250" width="10" height="10" as="geometry" />
        </mxCell>
        <mxCell id="ACu0_U7MY-6dZaPbagmZ-251" value="" style="whiteSpace=wrap;html=1;aspect=fixed;" vertex="1" parent="1">
          <mxGeometry x="720" y="250" width="10" height="10" as="geometry" />
        </mxCell>
        <mxCell id="ACu0_U7MY-6dZaPbagmZ-252" value="" style="whiteSpace=wrap;html=1;aspect=fixed;" vertex="1" parent="1">
          <mxGeometry x="590" y="260" width="10" height="10" as="geometry" />
        </mxCell>
        <mxCell id="ACu0_U7MY-6dZaPbagmZ-253" value="" style="whiteSpace=wrap;html=1;aspect=fixed;" vertex="1" parent="1">
          <mxGeometry x="600" y="260" width="10" height="10" as="geometry" />
        </mxCell>
        <mxCell id="ACu0_U7MY-6dZaPbagmZ-254" value="" style="whiteSpace=wrap;html=1;aspect=fixed;" vertex="1" parent="1">
          <mxGeometry x="610" y="260" width="10" height="10" as="geometry" />
        </mxCell>
        <mxCell id="ACu0_U7MY-6dZaPbagmZ-255" value="" style="whiteSpace=wrap;html=1;aspect=fixed;fillColor=#fa6800;fontColor=#000000;strokeColor=#C73500;" vertex="1" parent="1">
          <mxGeometry x="620" y="260" width="10" height="10" as="geometry" />
        </mxCell>
        <mxCell id="ACu0_U7MY-6dZaPbagmZ-256" value="" style="whiteSpace=wrap;html=1;aspect=fixed;fillColor=#fa6800;fontColor=#000000;strokeColor=#C73500;" vertex="1" parent="1">
          <mxGeometry x="630" y="260" width="10" height="10" as="geometry" />
        </mxCell>
        <mxCell id="ACu0_U7MY-6dZaPbagmZ-257" value="" style="whiteSpace=wrap;html=1;aspect=fixed;fillColor=#fa6800;fontColor=#000000;strokeColor=#C73500;" vertex="1" parent="1">
          <mxGeometry x="640" y="260" width="10" height="10" as="geometry" />
        </mxCell>
        <mxCell id="ACu0_U7MY-6dZaPbagmZ-258" value="" style="whiteSpace=wrap;html=1;aspect=fixed;fillColor=#fa6800;fontColor=#000000;strokeColor=#C73500;" vertex="1" parent="1">
          <mxGeometry x="650" y="260" width="10" height="10" as="geometry" />
        </mxCell>
        <mxCell id="ACu0_U7MY-6dZaPbagmZ-259" value="" style="whiteSpace=wrap;html=1;aspect=fixed;fillColor=#fa6800;fontColor=#000000;strokeColor=#C73500;" vertex="1" parent="1">
          <mxGeometry x="660" y="260" width="10" height="10" as="geometry" />
        </mxCell>
        <mxCell id="ACu0_U7MY-6dZaPbagmZ-260" value="" style="whiteSpace=wrap;html=1;aspect=fixed;fillColor=#fa6800;fontColor=#000000;strokeColor=#C73500;" vertex="1" parent="1">
          <mxGeometry x="650" y="260" width="10" height="10" as="geometry" />
        </mxCell>
        <mxCell id="ACu0_U7MY-6dZaPbagmZ-261" value="" style="whiteSpace=wrap;html=1;aspect=fixed;fillColor=#fa6800;fontColor=#000000;strokeColor=#C73500;" vertex="1" parent="1">
          <mxGeometry x="660" y="260" width="10" height="10" as="geometry" />
        </mxCell>
        <mxCell id="ACu0_U7MY-6dZaPbagmZ-262" value="" style="whiteSpace=wrap;html=1;aspect=fixed;fillColor=#fa6800;fontColor=#000000;strokeColor=#C73500;" vertex="1" parent="1">
          <mxGeometry x="670" y="260" width="10" height="10" as="geometry" />
        </mxCell>
        <mxCell id="ACu0_U7MY-6dZaPbagmZ-263" value="" style="whiteSpace=wrap;html=1;aspect=fixed;fillColor=#fa6800;fontColor=#000000;strokeColor=#C73500;" vertex="1" parent="1">
          <mxGeometry x="680" y="260" width="10" height="10" as="geometry" />
        </mxCell>
        <mxCell id="ACu0_U7MY-6dZaPbagmZ-264" value="" style="whiteSpace=wrap;html=1;aspect=fixed;fillColor=#fa6800;fontColor=#000000;strokeColor=#C73500;" vertex="1" parent="1">
          <mxGeometry x="690" y="260" width="10" height="10" as="geometry" />
        </mxCell>
        <mxCell id="ACu0_U7MY-6dZaPbagmZ-265" value="" style="whiteSpace=wrap;html=1;aspect=fixed;" vertex="1" parent="1">
          <mxGeometry x="700" y="260" width="10" height="10" as="geometry" />
        </mxCell>
        <mxCell id="ACu0_U7MY-6dZaPbagmZ-266" value="" style="whiteSpace=wrap;html=1;aspect=fixed;" vertex="1" parent="1">
          <mxGeometry x="710" y="260" width="10" height="10" as="geometry" />
        </mxCell>
        <mxCell id="ACu0_U7MY-6dZaPbagmZ-267" value="" style="whiteSpace=wrap;html=1;aspect=fixed;" vertex="1" parent="1">
          <mxGeometry x="720" y="260" width="10" height="10" as="geometry" />
        </mxCell>
        <mxCell id="ACu0_U7MY-6dZaPbagmZ-268" value="" style="whiteSpace=wrap;html=1;aspect=fixed;" vertex="1" parent="1">
          <mxGeometry x="590" y="270" width="10" height="10" as="geometry" />
        </mxCell>
        <mxCell id="ACu0_U7MY-6dZaPbagmZ-269" value="" style="whiteSpace=wrap;html=1;aspect=fixed;" vertex="1" parent="1">
          <mxGeometry x="600" y="270" width="10" height="10" as="geometry" />
        </mxCell>
        <mxCell id="ACu0_U7MY-6dZaPbagmZ-270" value="" style="whiteSpace=wrap;html=1;aspect=fixed;" vertex="1" parent="1">
          <mxGeometry x="610" y="270" width="10" height="10" as="geometry" />
        </mxCell>
        <mxCell id="ACu0_U7MY-6dZaPbagmZ-271" value="" style="whiteSpace=wrap;html=1;aspect=fixed;fillColor=#fa6800;fontColor=#000000;strokeColor=#C73500;" vertex="1" parent="1">
          <mxGeometry x="620" y="270" width="10" height="10" as="geometry" />
        </mxCell>
        <mxCell id="ACu0_U7MY-6dZaPbagmZ-272" value="" style="whiteSpace=wrap;html=1;aspect=fixed;fillColor=#fa6800;fontColor=#000000;strokeColor=#C73500;" vertex="1" parent="1">
          <mxGeometry x="630" y="270" width="10" height="10" as="geometry" />
        </mxCell>
        <mxCell id="ACu0_U7MY-6dZaPbagmZ-273" value="" style="whiteSpace=wrap;html=1;aspect=fixed;fillColor=#fa6800;fontColor=#000000;strokeColor=#C73500;" vertex="1" parent="1">
          <mxGeometry x="640" y="270" width="10" height="10" as="geometry" />
        </mxCell>
        <mxCell id="ACu0_U7MY-6dZaPbagmZ-274" value="" style="whiteSpace=wrap;html=1;aspect=fixed;fillColor=#fa6800;fontColor=#000000;strokeColor=#C73500;" vertex="1" parent="1">
          <mxGeometry x="650" y="270" width="10" height="10" as="geometry" />
        </mxCell>
        <mxCell id="ACu0_U7MY-6dZaPbagmZ-275" value="" style="whiteSpace=wrap;html=1;aspect=fixed;fillColor=#fa6800;fontColor=#000000;strokeColor=#C73500;" vertex="1" parent="1">
          <mxGeometry x="660" y="270" width="10" height="10" as="geometry" />
        </mxCell>
        <mxCell id="ACu0_U7MY-6dZaPbagmZ-276" value="" style="whiteSpace=wrap;html=1;aspect=fixed;fillColor=#fa6800;fontColor=#000000;strokeColor=#C73500;" vertex="1" parent="1">
          <mxGeometry x="650" y="270" width="10" height="10" as="geometry" />
        </mxCell>
        <mxCell id="ACu0_U7MY-6dZaPbagmZ-277" value="" style="whiteSpace=wrap;html=1;aspect=fixed;fillColor=#fa6800;fontColor=#000000;strokeColor=#C73500;" vertex="1" parent="1">
          <mxGeometry x="660" y="270" width="10" height="10" as="geometry" />
        </mxCell>
        <mxCell id="ACu0_U7MY-6dZaPbagmZ-278" value="" style="whiteSpace=wrap;html=1;aspect=fixed;fillColor=#fa6800;fontColor=#000000;strokeColor=#C73500;" vertex="1" parent="1">
          <mxGeometry x="670" y="270" width="10" height="10" as="geometry" />
        </mxCell>
        <mxCell id="ACu0_U7MY-6dZaPbagmZ-279" value="" style="whiteSpace=wrap;html=1;aspect=fixed;fillColor=#fa6800;fontColor=#000000;strokeColor=#C73500;" vertex="1" parent="1">
          <mxGeometry x="680" y="270" width="10" height="10" as="geometry" />
        </mxCell>
        <mxCell id="ACu0_U7MY-6dZaPbagmZ-280" value="" style="whiteSpace=wrap;html=1;aspect=fixed;fillColor=#fa6800;fontColor=#000000;strokeColor=#C73500;" vertex="1" parent="1">
          <mxGeometry x="690" y="270" width="10" height="10" as="geometry" />
        </mxCell>
        <mxCell id="ACu0_U7MY-6dZaPbagmZ-281" value="" style="whiteSpace=wrap;html=1;aspect=fixed;" vertex="1" parent="1">
          <mxGeometry x="700" y="270" width="10" height="10" as="geometry" />
        </mxCell>
        <mxCell id="ACu0_U7MY-6dZaPbagmZ-282" value="" style="whiteSpace=wrap;html=1;aspect=fixed;" vertex="1" parent="1">
          <mxGeometry x="710" y="270" width="10" height="10" as="geometry" />
        </mxCell>
        <mxCell id="ACu0_U7MY-6dZaPbagmZ-283" value="" style="whiteSpace=wrap;html=1;aspect=fixed;" vertex="1" parent="1">
          <mxGeometry x="720" y="270" width="10" height="10" as="geometry" />
        </mxCell>
        <mxCell id="ACu0_U7MY-6dZaPbagmZ-284" value="" style="whiteSpace=wrap;html=1;aspect=fixed;" vertex="1" parent="1">
          <mxGeometry x="590" y="320" width="10" height="10" as="geometry" />
        </mxCell>
        <mxCell id="ACu0_U7MY-6dZaPbagmZ-285" value="" style="whiteSpace=wrap;html=1;aspect=fixed;" vertex="1" parent="1">
          <mxGeometry x="600" y="320" width="10" height="10" as="geometry" />
        </mxCell>
        <mxCell id="ACu0_U7MY-6dZaPbagmZ-286" value="" style="whiteSpace=wrap;html=1;aspect=fixed;" vertex="1" parent="1">
          <mxGeometry x="610" y="320" width="10" height="10" as="geometry" />
        </mxCell>
        <mxCell id="ACu0_U7MY-6dZaPbagmZ-287" value="" style="whiteSpace=wrap;html=1;aspect=fixed;" vertex="1" parent="1">
          <mxGeometry x="620" y="320" width="10" height="10" as="geometry" />
        </mxCell>
        <mxCell id="ACu0_U7MY-6dZaPbagmZ-288" value="" style="whiteSpace=wrap;html=1;aspect=fixed;" vertex="1" parent="1">
          <mxGeometry x="630" y="320" width="10" height="10" as="geometry" />
        </mxCell>
        <mxCell id="ACu0_U7MY-6dZaPbagmZ-289" value="" style="whiteSpace=wrap;html=1;aspect=fixed;" vertex="1" parent="1">
          <mxGeometry x="640" y="320" width="10" height="10" as="geometry" />
        </mxCell>
        <mxCell id="ACu0_U7MY-6dZaPbagmZ-290" value="" style="whiteSpace=wrap;html=1;aspect=fixed;" vertex="1" parent="1">
          <mxGeometry x="650" y="320" width="10" height="10" as="geometry" />
        </mxCell>
        <mxCell id="ACu0_U7MY-6dZaPbagmZ-291" value="" style="whiteSpace=wrap;html=1;aspect=fixed;" vertex="1" parent="1">
          <mxGeometry x="660" y="320" width="10" height="10" as="geometry" />
        </mxCell>
        <mxCell id="ACu0_U7MY-6dZaPbagmZ-292" value="" style="whiteSpace=wrap;html=1;aspect=fixed;" vertex="1" parent="1">
          <mxGeometry x="650" y="320" width="10" height="10" as="geometry" />
        </mxCell>
        <mxCell id="ACu0_U7MY-6dZaPbagmZ-293" value="" style="whiteSpace=wrap;html=1;aspect=fixed;" vertex="1" parent="1">
          <mxGeometry x="660" y="320" width="10" height="10" as="geometry" />
        </mxCell>
        <mxCell id="ACu0_U7MY-6dZaPbagmZ-294" value="" style="whiteSpace=wrap;html=1;aspect=fixed;" vertex="1" parent="1">
          <mxGeometry x="670" y="320" width="10" height="10" as="geometry" />
        </mxCell>
        <mxCell id="ACu0_U7MY-6dZaPbagmZ-295" value="" style="whiteSpace=wrap;html=1;aspect=fixed;" vertex="1" parent="1">
          <mxGeometry x="680" y="320" width="10" height="10" as="geometry" />
        </mxCell>
        <mxCell id="ACu0_U7MY-6dZaPbagmZ-296" value="" style="whiteSpace=wrap;html=1;aspect=fixed;" vertex="1" parent="1">
          <mxGeometry x="690" y="320" width="10" height="10" as="geometry" />
        </mxCell>
        <mxCell id="ACu0_U7MY-6dZaPbagmZ-297" value="" style="whiteSpace=wrap;html=1;aspect=fixed;" vertex="1" parent="1">
          <mxGeometry x="700" y="320" width="10" height="10" as="geometry" />
        </mxCell>
        <mxCell id="ACu0_U7MY-6dZaPbagmZ-298" value="" style="whiteSpace=wrap;html=1;aspect=fixed;" vertex="1" parent="1">
          <mxGeometry x="710" y="320" width="10" height="10" as="geometry" />
        </mxCell>
        <mxCell id="ACu0_U7MY-6dZaPbagmZ-299" value="" style="whiteSpace=wrap;html=1;aspect=fixed;" vertex="1" parent="1">
          <mxGeometry x="720" y="320" width="10" height="10" as="geometry" />
        </mxCell>
        <mxCell id="ACu0_U7MY-6dZaPbagmZ-300" value="" style="whiteSpace=wrap;html=1;aspect=fixed;" vertex="1" parent="1">
          <mxGeometry x="590" y="330" width="10" height="10" as="geometry" />
        </mxCell>
        <mxCell id="ACu0_U7MY-6dZaPbagmZ-301" value="" style="whiteSpace=wrap;html=1;aspect=fixed;" vertex="1" parent="1">
          <mxGeometry x="600" y="330" width="10" height="10" as="geometry" />
        </mxCell>
        <mxCell id="ACu0_U7MY-6dZaPbagmZ-302" value="" style="whiteSpace=wrap;html=1;aspect=fixed;" vertex="1" parent="1">
          <mxGeometry x="610" y="330" width="10" height="10" as="geometry" />
        </mxCell>
        <mxCell id="ACu0_U7MY-6dZaPbagmZ-303" value="" style="whiteSpace=wrap;html=1;aspect=fixed;" vertex="1" parent="1">
          <mxGeometry x="620" y="330" width="10" height="10" as="geometry" />
        </mxCell>
        <mxCell id="ACu0_U7MY-6dZaPbagmZ-304" value="" style="whiteSpace=wrap;html=1;aspect=fixed;" vertex="1" parent="1">
          <mxGeometry x="630" y="330" width="10" height="10" as="geometry" />
        </mxCell>
        <mxCell id="ACu0_U7MY-6dZaPbagmZ-305" value="" style="whiteSpace=wrap;html=1;aspect=fixed;fillColor=#662A00;fontColor=#000000;strokeColor=#C73500;" vertex="1" parent="1">
          <mxGeometry x="640" y="330" width="10" height="10" as="geometry" />
        </mxCell>
        <mxCell id="ACu0_U7MY-6dZaPbagmZ-306" value="" style="whiteSpace=wrap;html=1;aspect=fixed;" vertex="1" parent="1">
          <mxGeometry x="650" y="330" width="10" height="10" as="geometry" />
        </mxCell>
        <mxCell id="ACu0_U7MY-6dZaPbagmZ-307" value="" style="whiteSpace=wrap;html=1;aspect=fixed;" vertex="1" parent="1">
          <mxGeometry x="660" y="330" width="10" height="10" as="geometry" />
        </mxCell>
        <mxCell id="ACu0_U7MY-6dZaPbagmZ-308" value="" style="whiteSpace=wrap;html=1;aspect=fixed;fillColor=#662A00;fontColor=#000000;strokeColor=#C73500;" vertex="1" parent="1">
          <mxGeometry x="650" y="330" width="10" height="10" as="geometry" />
        </mxCell>
        <mxCell id="ACu0_U7MY-6dZaPbagmZ-309" value="" style="whiteSpace=wrap;html=1;aspect=fixed;fillColor=#662A00;fontColor=#000000;strokeColor=#C73500;" vertex="1" parent="1">
          <mxGeometry x="660" y="330" width="10" height="10" as="geometry" />
        </mxCell>
        <mxCell id="ACu0_U7MY-6dZaPbagmZ-310" value="" style="whiteSpace=wrap;html=1;aspect=fixed;fillColor=#662A00;fontColor=#000000;strokeColor=#C73500;" vertex="1" parent="1">
          <mxGeometry x="670" y="330" width="10" height="10" as="geometry" />
        </mxCell>
        <mxCell id="ACu0_U7MY-6dZaPbagmZ-311" value="" style="whiteSpace=wrap;html=1;aspect=fixed;" vertex="1" parent="1">
          <mxGeometry x="680" y="330" width="10" height="10" as="geometry" />
        </mxCell>
        <mxCell id="ACu0_U7MY-6dZaPbagmZ-312" value="" style="whiteSpace=wrap;html=1;aspect=fixed;" vertex="1" parent="1">
          <mxGeometry x="690" y="330" width="10" height="10" as="geometry" />
        </mxCell>
        <mxCell id="ACu0_U7MY-6dZaPbagmZ-313" value="" style="whiteSpace=wrap;html=1;aspect=fixed;" vertex="1" parent="1">
          <mxGeometry x="700" y="330" width="10" height="10" as="geometry" />
        </mxCell>
        <mxCell id="ACu0_U7MY-6dZaPbagmZ-314" value="" style="whiteSpace=wrap;html=1;aspect=fixed;" vertex="1" parent="1">
          <mxGeometry x="710" y="330" width="10" height="10" as="geometry" />
        </mxCell>
        <mxCell id="ACu0_U7MY-6dZaPbagmZ-315" value="" style="whiteSpace=wrap;html=1;aspect=fixed;" vertex="1" parent="1">
          <mxGeometry x="720" y="330" width="10" height="10" as="geometry" />
        </mxCell>
        <mxCell id="ACu0_U7MY-6dZaPbagmZ-316" value="" style="whiteSpace=wrap;html=1;aspect=fixed;" vertex="1" parent="1">
          <mxGeometry x="590" y="340" width="10" height="10" as="geometry" />
        </mxCell>
        <mxCell id="ACu0_U7MY-6dZaPbagmZ-317" value="" style="whiteSpace=wrap;html=1;aspect=fixed;" vertex="1" parent="1">
          <mxGeometry x="600" y="340" width="10" height="10" as="geometry" />
        </mxCell>
        <mxCell id="ACu0_U7MY-6dZaPbagmZ-318" value="" style="whiteSpace=wrap;html=1;aspect=fixed;" vertex="1" parent="1">
          <mxGeometry x="610" y="340" width="10" height="10" as="geometry" />
        </mxCell>
        <mxCell id="ACu0_U7MY-6dZaPbagmZ-319" value="" style="whiteSpace=wrap;html=1;aspect=fixed;" vertex="1" parent="1">
          <mxGeometry x="620" y="340" width="10" height="10" as="geometry" />
        </mxCell>
        <mxCell id="ACu0_U7MY-6dZaPbagmZ-320" value="" style="whiteSpace=wrap;html=1;aspect=fixed;fillColor=#CC5500;fontColor=#000000;strokeColor=#C73500;" vertex="1" parent="1">
          <mxGeometry x="630" y="340" width="10" height="10" as="geometry" />
        </mxCell>
        <mxCell id="ACu0_U7MY-6dZaPbagmZ-321" value="" style="whiteSpace=wrap;html=1;aspect=fixed;fillColor=#CC5500;fontColor=#000000;strokeColor=#C73500;" vertex="1" parent="1">
          <mxGeometry x="640" y="340" width="10" height="10" as="geometry" />
        </mxCell>
        <mxCell id="ACu0_U7MY-6dZaPbagmZ-322" value="" style="whiteSpace=wrap;html=1;aspect=fixed;fillColor=#fa6800;fontColor=#000000;strokeColor=#C73500;" vertex="1" parent="1">
          <mxGeometry x="650" y="340" width="10" height="10" as="geometry" />
        </mxCell>
        <mxCell id="ACu0_U7MY-6dZaPbagmZ-323" value="" style="whiteSpace=wrap;html=1;aspect=fixed;fillColor=#fa6800;fontColor=#000000;strokeColor=#C73500;" vertex="1" parent="1">
          <mxGeometry x="660" y="340" width="10" height="10" as="geometry" />
        </mxCell>
        <mxCell id="ACu0_U7MY-6dZaPbagmZ-324" value="" style="whiteSpace=wrap;html=1;aspect=fixed;fillColor=#CC5500;fontColor=#000000;strokeColor=#C73500;" vertex="1" parent="1">
          <mxGeometry x="650" y="340" width="10" height="10" as="geometry" />
        </mxCell>
        <mxCell id="ACu0_U7MY-6dZaPbagmZ-325" value="" style="whiteSpace=wrap;html=1;aspect=fixed;fillColor=#CC5500;fontColor=#000000;strokeColor=#C73500;" vertex="1" parent="1">
          <mxGeometry x="660" y="340" width="10" height="10" as="geometry" />
        </mxCell>
        <mxCell id="ACu0_U7MY-6dZaPbagmZ-326" value="" style="whiteSpace=wrap;html=1;aspect=fixed;fillColor=#CC5500;fontColor=#000000;strokeColor=#C73500;" vertex="1" parent="1">
          <mxGeometry x="670" y="340" width="10" height="10" as="geometry" />
        </mxCell>
        <mxCell id="ACu0_U7MY-6dZaPbagmZ-327" value="" style="whiteSpace=wrap;html=1;aspect=fixed;fillColor=#CC5500;fontColor=#000000;strokeColor=#C73500;" vertex="1" parent="1">
          <mxGeometry x="680" y="340" width="10" height="10" as="geometry" />
        </mxCell>
        <mxCell id="ACu0_U7MY-6dZaPbagmZ-328" value="" style="whiteSpace=wrap;html=1;aspect=fixed;" vertex="1" parent="1">
          <mxGeometry x="690" y="340" width="10" height="10" as="geometry" />
        </mxCell>
        <mxCell id="ACu0_U7MY-6dZaPbagmZ-329" value="" style="whiteSpace=wrap;html=1;aspect=fixed;" vertex="1" parent="1">
          <mxGeometry x="700" y="340" width="10" height="10" as="geometry" />
        </mxCell>
        <mxCell id="ACu0_U7MY-6dZaPbagmZ-330" value="" style="whiteSpace=wrap;html=1;aspect=fixed;" vertex="1" parent="1">
          <mxGeometry x="710" y="340" width="10" height="10" as="geometry" />
        </mxCell>
        <mxCell id="ACu0_U7MY-6dZaPbagmZ-331" value="" style="whiteSpace=wrap;html=1;aspect=fixed;" vertex="1" parent="1">
          <mxGeometry x="720" y="340" width="10" height="10" as="geometry" />
        </mxCell>
        <mxCell id="ACu0_U7MY-6dZaPbagmZ-332" value="" style="whiteSpace=wrap;html=1;aspect=fixed;" vertex="1" parent="1">
          <mxGeometry x="590" y="350" width="10" height="10" as="geometry" />
        </mxCell>
        <mxCell id="ACu0_U7MY-6dZaPbagmZ-333" value="" style="whiteSpace=wrap;html=1;aspect=fixed;" vertex="1" parent="1">
          <mxGeometry x="600" y="350" width="10" height="10" as="geometry" />
        </mxCell>
        <mxCell id="ACu0_U7MY-6dZaPbagmZ-334" value="" style="whiteSpace=wrap;html=1;aspect=fixed;" vertex="1" parent="1">
          <mxGeometry x="610" y="350" width="10" height="10" as="geometry" />
        </mxCell>
        <mxCell id="ACu0_U7MY-6dZaPbagmZ-335" value="" style="whiteSpace=wrap;html=1;aspect=fixed;fillColor=#fa6800;fontColor=#000000;strokeColor=#C73500;" vertex="1" parent="1">
          <mxGeometry x="620" y="350" width="10" height="10" as="geometry" />
        </mxCell>
        <mxCell id="ACu0_U7MY-6dZaPbagmZ-336" value="" style="whiteSpace=wrap;html=1;aspect=fixed;fillColor=#fa6800;fontColor=#000000;strokeColor=#C73500;" vertex="1" parent="1">
          <mxGeometry x="630" y="350" width="10" height="10" as="geometry" />
        </mxCell>
        <mxCell id="ACu0_U7MY-6dZaPbagmZ-337" value="" style="whiteSpace=wrap;html=1;aspect=fixed;fillColor=#fa6800;fontColor=#000000;strokeColor=#C73500;" vertex="1" parent="1">
          <mxGeometry x="640" y="350" width="10" height="10" as="geometry" />
        </mxCell>
        <mxCell id="ACu0_U7MY-6dZaPbagmZ-338" value="" style="whiteSpace=wrap;html=1;aspect=fixed;fillColor=#fa6800;fontColor=#000000;strokeColor=#C73500;" vertex="1" parent="1">
          <mxGeometry x="650" y="350" width="10" height="10" as="geometry" />
        </mxCell>
        <mxCell id="ACu0_U7MY-6dZaPbagmZ-339" value="" style="whiteSpace=wrap;html=1;aspect=fixed;fillColor=#fa6800;fontColor=#000000;strokeColor=#C73500;" vertex="1" parent="1">
          <mxGeometry x="660" y="350" width="10" height="10" as="geometry" />
        </mxCell>
        <mxCell id="ACu0_U7MY-6dZaPbagmZ-340" value="" style="whiteSpace=wrap;html=1;aspect=fixed;fillColor=#fa6800;fontColor=#000000;strokeColor=#C73500;" vertex="1" parent="1">
          <mxGeometry x="650" y="350" width="10" height="10" as="geometry" />
        </mxCell>
        <mxCell id="ACu0_U7MY-6dZaPbagmZ-341" value="" style="whiteSpace=wrap;html=1;aspect=fixed;fillColor=#fa6800;fontColor=#000000;strokeColor=#C73500;" vertex="1" parent="1">
          <mxGeometry x="660" y="350" width="10" height="10" as="geometry" />
        </mxCell>
        <mxCell id="ACu0_U7MY-6dZaPbagmZ-342" value="" style="whiteSpace=wrap;html=1;aspect=fixed;fillColor=#fa6800;fontColor=#000000;strokeColor=#C73500;" vertex="1" parent="1">
          <mxGeometry x="670" y="350" width="10" height="10" as="geometry" />
        </mxCell>
        <mxCell id="ACu0_U7MY-6dZaPbagmZ-343" value="" style="whiteSpace=wrap;html=1;aspect=fixed;fillColor=#fa6800;fontColor=#000000;strokeColor=#C73500;" vertex="1" parent="1">
          <mxGeometry x="680" y="350" width="10" height="10" as="geometry" />
        </mxCell>
        <mxCell id="ACu0_U7MY-6dZaPbagmZ-344" value="" style="whiteSpace=wrap;html=1;aspect=fixed;fillColor=#fa6800;fontColor=#000000;strokeColor=#C73500;" vertex="1" parent="1">
          <mxGeometry x="690" y="350" width="10" height="10" as="geometry" />
        </mxCell>
        <mxCell id="ACu0_U7MY-6dZaPbagmZ-345" value="" style="whiteSpace=wrap;html=1;aspect=fixed;" vertex="1" parent="1">
          <mxGeometry x="700" y="350" width="10" height="10" as="geometry" />
        </mxCell>
        <mxCell id="ACu0_U7MY-6dZaPbagmZ-346" value="" style="whiteSpace=wrap;html=1;aspect=fixed;" vertex="1" parent="1">
          <mxGeometry x="710" y="350" width="10" height="10" as="geometry" />
        </mxCell>
        <mxCell id="ACu0_U7MY-6dZaPbagmZ-347" value="" style="whiteSpace=wrap;html=1;aspect=fixed;" vertex="1" parent="1">
          <mxGeometry x="720" y="350" width="10" height="10" as="geometry" />
        </mxCell>
        <mxCell id="ACu0_U7MY-6dZaPbagmZ-348" value="" style="whiteSpace=wrap;html=1;aspect=fixed;" vertex="1" parent="1">
          <mxGeometry x="590" y="360" width="10" height="10" as="geometry" />
        </mxCell>
        <mxCell id="ACu0_U7MY-6dZaPbagmZ-349" value="" style="whiteSpace=wrap;html=1;aspect=fixed;" vertex="1" parent="1">
          <mxGeometry x="600" y="360" width="10" height="10" as="geometry" />
        </mxCell>
        <mxCell id="ACu0_U7MY-6dZaPbagmZ-350" value="" style="whiteSpace=wrap;html=1;aspect=fixed;" vertex="1" parent="1">
          <mxGeometry x="610" y="360" width="10" height="10" as="geometry" />
        </mxCell>
        <mxCell id="ACu0_U7MY-6dZaPbagmZ-351" value="" style="whiteSpace=wrap;html=1;aspect=fixed;fillColor=#FA9600;fontColor=#000000;strokeColor=#C73500;" vertex="1" parent="1">
          <mxGeometry x="620" y="360" width="10" height="10" as="geometry" />
        </mxCell>
        <mxCell id="ACu0_U7MY-6dZaPbagmZ-352" value="" style="whiteSpace=wrap;html=1;aspect=fixed;fillColor=#FA9600;fontColor=#000000;strokeColor=#C73500;" vertex="1" parent="1">
          <mxGeometry x="630" y="360" width="10" height="10" as="geometry" />
        </mxCell>
        <mxCell id="ACu0_U7MY-6dZaPbagmZ-353" value="" style="whiteSpace=wrap;html=1;aspect=fixed;fillColor=#FA9600;fontColor=#000000;strokeColor=#C73500;" vertex="1" parent="1">
          <mxGeometry x="640" y="360" width="10" height="10" as="geometry" />
        </mxCell>
        <mxCell id="ACu0_U7MY-6dZaPbagmZ-354" value="" style="whiteSpace=wrap;html=1;aspect=fixed;fillColor=#FA9600;fontColor=#000000;strokeColor=#C73500;" vertex="1" parent="1">
          <mxGeometry x="650" y="360" width="10" height="10" as="geometry" />
        </mxCell>
        <mxCell id="ACu0_U7MY-6dZaPbagmZ-355" value="" style="whiteSpace=wrap;html=1;aspect=fixed;fillColor=#FA9600;fontColor=#000000;strokeColor=#C73500;" vertex="1" parent="1">
          <mxGeometry x="660" y="360" width="10" height="10" as="geometry" />
        </mxCell>
        <mxCell id="ACu0_U7MY-6dZaPbagmZ-356" value="" style="whiteSpace=wrap;html=1;aspect=fixed;fillColor=#FA9600;fontColor=#000000;strokeColor=#C73500;" vertex="1" parent="1">
          <mxGeometry x="650" y="360" width="10" height="10" as="geometry" />
        </mxCell>
        <mxCell id="ACu0_U7MY-6dZaPbagmZ-357" value="" style="whiteSpace=wrap;html=1;aspect=fixed;fillColor=#FA9600;fontColor=#000000;strokeColor=#C73500;" vertex="1" parent="1">
          <mxGeometry x="660" y="360" width="10" height="10" as="geometry" />
        </mxCell>
        <mxCell id="ACu0_U7MY-6dZaPbagmZ-358" value="" style="whiteSpace=wrap;html=1;aspect=fixed;fillColor=#FA9600;fontColor=#000000;strokeColor=#C73500;" vertex="1" parent="1">
          <mxGeometry x="670" y="360" width="10" height="10" as="geometry" />
        </mxCell>
        <mxCell id="ACu0_U7MY-6dZaPbagmZ-359" value="" style="whiteSpace=wrap;html=1;aspect=fixed;fillColor=#FA9600;fontColor=#000000;strokeColor=#C73500;" vertex="1" parent="1">
          <mxGeometry x="680" y="360" width="10" height="10" as="geometry" />
        </mxCell>
        <mxCell id="ACu0_U7MY-6dZaPbagmZ-360" value="" style="whiteSpace=wrap;html=1;aspect=fixed;fillColor=#FA9600;fontColor=#000000;strokeColor=#C73500;" vertex="1" parent="1">
          <mxGeometry x="690" y="360" width="10" height="10" as="geometry" />
        </mxCell>
        <mxCell id="ACu0_U7MY-6dZaPbagmZ-361" value="" style="whiteSpace=wrap;html=1;aspect=fixed;" vertex="1" parent="1">
          <mxGeometry x="700" y="360" width="10" height="10" as="geometry" />
        </mxCell>
        <mxCell id="ACu0_U7MY-6dZaPbagmZ-362" value="" style="whiteSpace=wrap;html=1;aspect=fixed;" vertex="1" parent="1">
          <mxGeometry x="710" y="360" width="10" height="10" as="geometry" />
        </mxCell>
        <mxCell id="ACu0_U7MY-6dZaPbagmZ-363" value="" style="whiteSpace=wrap;html=1;aspect=fixed;" vertex="1" parent="1">
          <mxGeometry x="720" y="360" width="10" height="10" as="geometry" />
        </mxCell>
        <mxCell id="ACu0_U7MY-6dZaPbagmZ-364" value="" style="whiteSpace=wrap;html=1;aspect=fixed;" vertex="1" parent="1">
          <mxGeometry x="590" y="370" width="10" height="10" as="geometry" />
        </mxCell>
        <mxCell id="ACu0_U7MY-6dZaPbagmZ-365" value="" style="whiteSpace=wrap;html=1;aspect=fixed;" vertex="1" parent="1">
          <mxGeometry x="600" y="370" width="10" height="10" as="geometry" />
        </mxCell>
        <mxCell id="ACu0_U7MY-6dZaPbagmZ-366" value="" style="whiteSpace=wrap;html=1;aspect=fixed;" vertex="1" parent="1">
          <mxGeometry x="610" y="370" width="10" height="10" as="geometry" />
        </mxCell>
        <mxCell id="ACu0_U7MY-6dZaPbagmZ-367" value="" style="whiteSpace=wrap;html=1;aspect=fixed;fillColor=#FA9600;fontColor=#000000;strokeColor=#C73500;" vertex="1" parent="1">
          <mxGeometry x="620" y="370" width="10" height="10" as="geometry" />
        </mxCell>
        <mxCell id="ACu0_U7MY-6dZaPbagmZ-368" value="" style="whiteSpace=wrap;html=1;aspect=fixed;fillColor=#FA9600;fontColor=#000000;strokeColor=#C73500;" vertex="1" parent="1">
          <mxGeometry x="630" y="370" width="10" height="10" as="geometry" />
        </mxCell>
        <mxCell id="ACu0_U7MY-6dZaPbagmZ-369" value="" style="whiteSpace=wrap;html=1;aspect=fixed;fillColor=#FA9600;fontColor=#000000;strokeColor=#C73500;" vertex="1" parent="1">
          <mxGeometry x="640" y="370" width="10" height="10" as="geometry" />
        </mxCell>
        <mxCell id="ACu0_U7MY-6dZaPbagmZ-370" value="" style="whiteSpace=wrap;html=1;aspect=fixed;fillColor=#FA9600;fontColor=#000000;strokeColor=#C73500;" vertex="1" parent="1">
          <mxGeometry x="650" y="370" width="10" height="10" as="geometry" />
        </mxCell>
        <mxCell id="ACu0_U7MY-6dZaPbagmZ-371" value="" style="whiteSpace=wrap;html=1;aspect=fixed;fillColor=#FA9600;fontColor=#000000;strokeColor=#C73500;" vertex="1" parent="1">
          <mxGeometry x="660" y="370" width="10" height="10" as="geometry" />
        </mxCell>
        <mxCell id="ACu0_U7MY-6dZaPbagmZ-372" value="" style="whiteSpace=wrap;html=1;aspect=fixed;fillColor=#FA9600;fontColor=#000000;strokeColor=#C73500;" vertex="1" parent="1">
          <mxGeometry x="650" y="370" width="10" height="10" as="geometry" />
        </mxCell>
        <mxCell id="ACu0_U7MY-6dZaPbagmZ-373" value="" style="whiteSpace=wrap;html=1;aspect=fixed;fillColor=#FA9600;fontColor=#000000;strokeColor=#C73500;" vertex="1" parent="1">
          <mxGeometry x="660" y="370" width="10" height="10" as="geometry" />
        </mxCell>
        <mxCell id="ACu0_U7MY-6dZaPbagmZ-374" value="" style="whiteSpace=wrap;html=1;aspect=fixed;fillColor=#FA9600;fontColor=#000000;strokeColor=#C73500;" vertex="1" parent="1">
          <mxGeometry x="670" y="370" width="10" height="10" as="geometry" />
        </mxCell>
        <mxCell id="ACu0_U7MY-6dZaPbagmZ-375" value="" style="whiteSpace=wrap;html=1;aspect=fixed;fillColor=#FA9600;fontColor=#000000;strokeColor=#C73500;" vertex="1" parent="1">
          <mxGeometry x="680" y="370" width="10" height="10" as="geometry" />
        </mxCell>
        <mxCell id="ACu0_U7MY-6dZaPbagmZ-376" value="" style="whiteSpace=wrap;html=1;aspect=fixed;fillColor=#FA9600;fontColor=#000000;strokeColor=#C73500;" vertex="1" parent="1">
          <mxGeometry x="690" y="370" width="10" height="10" as="geometry" />
        </mxCell>
        <mxCell id="ACu0_U7MY-6dZaPbagmZ-377" value="" style="whiteSpace=wrap;html=1;aspect=fixed;" vertex="1" parent="1">
          <mxGeometry x="700" y="370" width="10" height="10" as="geometry" />
        </mxCell>
        <mxCell id="ACu0_U7MY-6dZaPbagmZ-378" value="" style="whiteSpace=wrap;html=1;aspect=fixed;" vertex="1" parent="1">
          <mxGeometry x="710" y="370" width="10" height="10" as="geometry" />
        </mxCell>
        <mxCell id="ACu0_U7MY-6dZaPbagmZ-379" value="" style="whiteSpace=wrap;html=1;aspect=fixed;" vertex="1" parent="1">
          <mxGeometry x="720" y="370" width="10" height="10" as="geometry" />
        </mxCell>
        <mxCell id="ACu0_U7MY-6dZaPbagmZ-380" value="" style="whiteSpace=wrap;html=1;aspect=fixed;" vertex="1" parent="1">
          <mxGeometry x="590" y="380" width="10" height="10" as="geometry" />
        </mxCell>
        <mxCell id="ACu0_U7MY-6dZaPbagmZ-381" value="" style="whiteSpace=wrap;html=1;aspect=fixed;" vertex="1" parent="1">
          <mxGeometry x="600" y="380" width="10" height="10" as="geometry" />
        </mxCell>
        <mxCell id="ACu0_U7MY-6dZaPbagmZ-382" value="" style="whiteSpace=wrap;html=1;aspect=fixed;" vertex="1" parent="1">
          <mxGeometry x="610" y="380" width="10" height="10" as="geometry" />
        </mxCell>
        <mxCell id="ACu0_U7MY-6dZaPbagmZ-383" value="" style="whiteSpace=wrap;html=1;aspect=fixed;fillColor=#FA9600;fontColor=#000000;strokeColor=#C73500;" vertex="1" parent="1">
          <mxGeometry x="620" y="380" width="10" height="10" as="geometry" />
        </mxCell>
        <mxCell id="ACu0_U7MY-6dZaPbagmZ-384" value="" style="whiteSpace=wrap;html=1;aspect=fixed;fillColor=#FA9600;fontColor=#000000;strokeColor=#C73500;" vertex="1" parent="1">
          <mxGeometry x="630" y="380" width="10" height="10" as="geometry" />
        </mxCell>
        <mxCell id="ACu0_U7MY-6dZaPbagmZ-385" value="" style="whiteSpace=wrap;html=1;aspect=fixed;fillColor=#FA9600;fontColor=#000000;strokeColor=#C73500;" vertex="1" parent="1">
          <mxGeometry x="640" y="380" width="10" height="10" as="geometry" />
        </mxCell>
        <mxCell id="ACu0_U7MY-6dZaPbagmZ-386" value="" style="whiteSpace=wrap;html=1;aspect=fixed;fillColor=#FA9600;fontColor=#000000;strokeColor=#C73500;" vertex="1" parent="1">
          <mxGeometry x="650" y="380" width="10" height="10" as="geometry" />
        </mxCell>
        <mxCell id="ACu0_U7MY-6dZaPbagmZ-387" value="" style="whiteSpace=wrap;html=1;aspect=fixed;fillColor=#FA9600;fontColor=#000000;strokeColor=#C73500;" vertex="1" parent="1">
          <mxGeometry x="660" y="380" width="10" height="10" as="geometry" />
        </mxCell>
        <mxCell id="ACu0_U7MY-6dZaPbagmZ-388" value="" style="whiteSpace=wrap;html=1;aspect=fixed;fillColor=#FA9600;fontColor=#000000;strokeColor=#C73500;" vertex="1" parent="1">
          <mxGeometry x="650" y="380" width="10" height="10" as="geometry" />
        </mxCell>
        <mxCell id="ACu0_U7MY-6dZaPbagmZ-389" value="" style="whiteSpace=wrap;html=1;aspect=fixed;fillColor=#FA9600;fontColor=#000000;strokeColor=#C73500;" vertex="1" parent="1">
          <mxGeometry x="660" y="380" width="10" height="10" as="geometry" />
        </mxCell>
        <mxCell id="ACu0_U7MY-6dZaPbagmZ-390" value="" style="whiteSpace=wrap;html=1;aspect=fixed;fillColor=#FA9600;fontColor=#000000;strokeColor=#C73500;" vertex="1" parent="1">
          <mxGeometry x="670" y="380" width="10" height="10" as="geometry" />
        </mxCell>
        <mxCell id="ACu0_U7MY-6dZaPbagmZ-391" value="" style="whiteSpace=wrap;html=1;aspect=fixed;fillColor=#FA9600;fontColor=#000000;strokeColor=#C73500;" vertex="1" parent="1">
          <mxGeometry x="680" y="380" width="10" height="10" as="geometry" />
        </mxCell>
        <mxCell id="ACu0_U7MY-6dZaPbagmZ-392" value="" style="whiteSpace=wrap;html=1;aspect=fixed;fillColor=#FA9600;fontColor=#000000;strokeColor=#C73500;" vertex="1" parent="1">
          <mxGeometry x="690" y="380" width="10" height="10" as="geometry" />
        </mxCell>
        <mxCell id="ACu0_U7MY-6dZaPbagmZ-393" value="" style="whiteSpace=wrap;html=1;aspect=fixed;" vertex="1" parent="1">
          <mxGeometry x="700" y="380" width="10" height="10" as="geometry" />
        </mxCell>
        <mxCell id="ACu0_U7MY-6dZaPbagmZ-394" value="" style="whiteSpace=wrap;html=1;aspect=fixed;" vertex="1" parent="1">
          <mxGeometry x="710" y="380" width="10" height="10" as="geometry" />
        </mxCell>
        <mxCell id="ACu0_U7MY-6dZaPbagmZ-395" value="" style="whiteSpace=wrap;html=1;aspect=fixed;" vertex="1" parent="1">
          <mxGeometry x="720" y="380" width="10" height="10" as="geometry" />
        </mxCell>
        <mxCell id="ACu0_U7MY-6dZaPbagmZ-396" value="" style="whiteSpace=wrap;html=1;aspect=fixed;" vertex="1" parent="1">
          <mxGeometry x="590" y="390" width="10" height="10" as="geometry" />
        </mxCell>
        <mxCell id="ACu0_U7MY-6dZaPbagmZ-397" value="" style="whiteSpace=wrap;html=1;aspect=fixed;" vertex="1" parent="1">
          <mxGeometry x="600" y="390" width="10" height="10" as="geometry" />
        </mxCell>
        <mxCell id="ACu0_U7MY-6dZaPbagmZ-398" value="" style="whiteSpace=wrap;html=1;aspect=fixed;" vertex="1" parent="1">
          <mxGeometry x="610" y="390" width="10" height="10" as="geometry" />
        </mxCell>
        <mxCell id="ACu0_U7MY-6dZaPbagmZ-399" value="" style="whiteSpace=wrap;html=1;aspect=fixed;fillColor=#FA9600;fontColor=#000000;strokeColor=#C73500;" vertex="1" parent="1">
          <mxGeometry x="620" y="390" width="10" height="10" as="geometry" />
        </mxCell>
        <mxCell id="ACu0_U7MY-6dZaPbagmZ-400" value="" style="whiteSpace=wrap;html=1;aspect=fixed;fillColor=#FA9600;fontColor=#000000;strokeColor=#C73500;" vertex="1" parent="1">
          <mxGeometry x="630" y="390" width="10" height="10" as="geometry" />
        </mxCell>
        <mxCell id="ACu0_U7MY-6dZaPbagmZ-401" value="" style="whiteSpace=wrap;html=1;aspect=fixed;fillColor=#FA9600;fontColor=#000000;strokeColor=#C73500;" vertex="1" parent="1">
          <mxGeometry x="640" y="390" width="10" height="10" as="geometry" />
        </mxCell>
        <mxCell id="ACu0_U7MY-6dZaPbagmZ-402" value="" style="whiteSpace=wrap;html=1;aspect=fixed;fillColor=#FA9600;fontColor=#000000;strokeColor=#C73500;" vertex="1" parent="1">
          <mxGeometry x="650" y="390" width="10" height="10" as="geometry" />
        </mxCell>
        <mxCell id="ACu0_U7MY-6dZaPbagmZ-403" value="" style="whiteSpace=wrap;html=1;aspect=fixed;fillColor=#FA9600;fontColor=#000000;strokeColor=#C73500;" vertex="1" parent="1">
          <mxGeometry x="660" y="390" width="10" height="10" as="geometry" />
        </mxCell>
        <mxCell id="ACu0_U7MY-6dZaPbagmZ-404" value="" style="whiteSpace=wrap;html=1;aspect=fixed;fillColor=#FA9600;fontColor=#000000;strokeColor=#C73500;" vertex="1" parent="1">
          <mxGeometry x="650" y="390" width="10" height="10" as="geometry" />
        </mxCell>
        <mxCell id="ACu0_U7MY-6dZaPbagmZ-405" value="" style="whiteSpace=wrap;html=1;aspect=fixed;fillColor=#FA9600;fontColor=#000000;strokeColor=#C73500;" vertex="1" parent="1">
          <mxGeometry x="660" y="390" width="10" height="10" as="geometry" />
        </mxCell>
        <mxCell id="ACu0_U7MY-6dZaPbagmZ-406" value="" style="whiteSpace=wrap;html=1;aspect=fixed;fillColor=#FA9600;fontColor=#000000;strokeColor=#C73500;" vertex="1" parent="1">
          <mxGeometry x="670" y="390" width="10" height="10" as="geometry" />
        </mxCell>
        <mxCell id="ACu0_U7MY-6dZaPbagmZ-407" value="" style="whiteSpace=wrap;html=1;aspect=fixed;fillColor=#FA9600;fontColor=#000000;strokeColor=#C73500;" vertex="1" parent="1">
          <mxGeometry x="680" y="390" width="10" height="10" as="geometry" />
        </mxCell>
        <mxCell id="ACu0_U7MY-6dZaPbagmZ-408" value="" style="whiteSpace=wrap;html=1;aspect=fixed;fillColor=#FA9600;fontColor=#000000;strokeColor=#C73500;" vertex="1" parent="1">
          <mxGeometry x="690" y="390" width="10" height="10" as="geometry" />
        </mxCell>
        <mxCell id="ACu0_U7MY-6dZaPbagmZ-409" value="" style="whiteSpace=wrap;html=1;aspect=fixed;" vertex="1" parent="1">
          <mxGeometry x="700" y="390" width="10" height="10" as="geometry" />
        </mxCell>
        <mxCell id="ACu0_U7MY-6dZaPbagmZ-410" value="" style="whiteSpace=wrap;html=1;aspect=fixed;" vertex="1" parent="1">
          <mxGeometry x="710" y="390" width="10" height="10" as="geometry" />
        </mxCell>
        <mxCell id="ACu0_U7MY-6dZaPbagmZ-411" value="" style="whiteSpace=wrap;html=1;aspect=fixed;" vertex="1" parent="1">
          <mxGeometry x="720" y="390" width="10" height="10" as="geometry" />
        </mxCell>
        <mxCell id="ACu0_U7MY-6dZaPbagmZ-413" value="" style="endArrow=classic;html=1;rounded=0;exitX=0;exitY=1;exitDx=0;exitDy=0;entryX=0;entryY=0;entryDx=0;entryDy=0;" edge="1" parent="1" source="ACu0_U7MY-6dZaPbagmZ-277" target="ACu0_U7MY-6dZaPbagmZ-293">
          <mxGeometry width="50" height="50" relative="1" as="geometry">
            <mxPoint x="600" y="320" as="sourcePoint" />
            <mxPoint x="660" y="310" as="targetPoint" />
          </mxGeometry>
        </mxCell>
        <mxCell id="ACu0_U7MY-6dZaPbagmZ-415" value="to&lt;div&gt;Bitmap data&lt;/div&gt;" style="text;html=1;align=center;verticalAlign=middle;whiteSpace=wrap;rounded=0;" vertex="1" parent="1">
          <mxGeometry x="414" y="290" width="70" height="30" as="geometry" />
        </mxCell>
        <mxCell id="ACu0_U7MY-6dZaPbagmZ-416" value="" style="whiteSpace=wrap;html=1;aspect=fixed;" vertex="1" parent="1">
          <mxGeometry x="750" y="200" width="10" height="10" as="geometry" />
        </mxCell>
        <mxCell id="ACu0_U7MY-6dZaPbagmZ-417" value="" style="whiteSpace=wrap;html=1;aspect=fixed;" vertex="1" parent="1">
          <mxGeometry x="760" y="200" width="10" height="10" as="geometry" />
        </mxCell>
        <mxCell id="ACu0_U7MY-6dZaPbagmZ-418" value="" style="whiteSpace=wrap;html=1;aspect=fixed;" vertex="1" parent="1">
          <mxGeometry x="770" y="200" width="10" height="10" as="geometry" />
        </mxCell>
        <mxCell id="ACu0_U7MY-6dZaPbagmZ-419" value="" style="whiteSpace=wrap;html=1;aspect=fixed;" vertex="1" parent="1">
          <mxGeometry x="780" y="200" width="10" height="10" as="geometry" />
        </mxCell>
        <mxCell id="ACu0_U7MY-6dZaPbagmZ-420" value="" style="whiteSpace=wrap;html=1;aspect=fixed;" vertex="1" parent="1">
          <mxGeometry x="790" y="200" width="10" height="10" as="geometry" />
        </mxCell>
        <mxCell id="ACu0_U7MY-6dZaPbagmZ-421" value="" style="whiteSpace=wrap;html=1;aspect=fixed;" vertex="1" parent="1">
          <mxGeometry x="800" y="200" width="10" height="10" as="geometry" />
        </mxCell>
        <mxCell id="ACu0_U7MY-6dZaPbagmZ-422" value="" style="whiteSpace=wrap;html=1;aspect=fixed;" vertex="1" parent="1">
          <mxGeometry x="810" y="200" width="10" height="10" as="geometry" />
        </mxCell>
        <mxCell id="ACu0_U7MY-6dZaPbagmZ-423" value="" style="whiteSpace=wrap;html=1;aspect=fixed;" vertex="1" parent="1">
          <mxGeometry x="820" y="200" width="10" height="10" as="geometry" />
        </mxCell>
        <mxCell id="ACu0_U7MY-6dZaPbagmZ-424" value="" style="whiteSpace=wrap;html=1;aspect=fixed;" vertex="1" parent="1">
          <mxGeometry x="810" y="200" width="10" height="10" as="geometry" />
        </mxCell>
        <mxCell id="ACu0_U7MY-6dZaPbagmZ-425" value="" style="whiteSpace=wrap;html=1;aspect=fixed;" vertex="1" parent="1">
          <mxGeometry x="820" y="200" width="10" height="10" as="geometry" />
        </mxCell>
        <mxCell id="ACu0_U7MY-6dZaPbagmZ-426" value="" style="whiteSpace=wrap;html=1;aspect=fixed;" vertex="1" parent="1">
          <mxGeometry x="830" y="200" width="10" height="10" as="geometry" />
        </mxCell>
        <mxCell id="ACu0_U7MY-6dZaPbagmZ-427" value="" style="whiteSpace=wrap;html=1;aspect=fixed;" vertex="1" parent="1">
          <mxGeometry x="840" y="200" width="10" height="10" as="geometry" />
        </mxCell>
        <mxCell id="ACu0_U7MY-6dZaPbagmZ-428" value="" style="whiteSpace=wrap;html=1;aspect=fixed;" vertex="1" parent="1">
          <mxGeometry x="850" y="200" width="10" height="10" as="geometry" />
        </mxCell>
        <mxCell id="ACu0_U7MY-6dZaPbagmZ-429" value="" style="whiteSpace=wrap;html=1;aspect=fixed;" vertex="1" parent="1">
          <mxGeometry x="860" y="200" width="10" height="10" as="geometry" />
        </mxCell>
        <mxCell id="ACu0_U7MY-6dZaPbagmZ-430" value="" style="whiteSpace=wrap;html=1;aspect=fixed;" vertex="1" parent="1">
          <mxGeometry x="870" y="200" width="10" height="10" as="geometry" />
        </mxCell>
        <mxCell id="ACu0_U7MY-6dZaPbagmZ-431" value="" style="whiteSpace=wrap;html=1;aspect=fixed;" vertex="1" parent="1">
          <mxGeometry x="880" y="200" width="10" height="10" as="geometry" />
        </mxCell>
        <mxCell id="ACu0_U7MY-6dZaPbagmZ-432" value="" style="whiteSpace=wrap;html=1;aspect=fixed;" vertex="1" parent="1">
          <mxGeometry x="750" y="210" width="10" height="10" as="geometry" />
        </mxCell>
        <mxCell id="ACu0_U7MY-6dZaPbagmZ-433" value="" style="whiteSpace=wrap;html=1;aspect=fixed;" vertex="1" parent="1">
          <mxGeometry x="760" y="210" width="10" height="10" as="geometry" />
        </mxCell>
        <mxCell id="ACu0_U7MY-6dZaPbagmZ-434" value="" style="whiteSpace=wrap;html=1;aspect=fixed;" vertex="1" parent="1">
          <mxGeometry x="770" y="210" width="10" height="10" as="geometry" />
        </mxCell>
        <mxCell id="ACu0_U7MY-6dZaPbagmZ-435" value="" style="whiteSpace=wrap;html=1;aspect=fixed;" vertex="1" parent="1">
          <mxGeometry x="780" y="210" width="10" height="10" as="geometry" />
        </mxCell>
        <mxCell id="ACu0_U7MY-6dZaPbagmZ-436" value="" style="whiteSpace=wrap;html=1;aspect=fixed;" vertex="1" parent="1">
          <mxGeometry x="790" y="210" width="10" height="10" as="geometry" />
        </mxCell>
        <mxCell id="ACu0_U7MY-6dZaPbagmZ-437" value="" style="whiteSpace=wrap;html=1;aspect=fixed;fillColor=#662A00;fontColor=#000000;strokeColor=#C73500;" vertex="1" parent="1">
          <mxGeometry x="800" y="210" width="10" height="10" as="geometry" />
        </mxCell>
        <mxCell id="ACu0_U7MY-6dZaPbagmZ-438" value="" style="whiteSpace=wrap;html=1;aspect=fixed;" vertex="1" parent="1">
          <mxGeometry x="810" y="210" width="10" height="10" as="geometry" />
        </mxCell>
        <mxCell id="ACu0_U7MY-6dZaPbagmZ-439" value="" style="whiteSpace=wrap;html=1;aspect=fixed;" vertex="1" parent="1">
          <mxGeometry x="820" y="210" width="10" height="10" as="geometry" />
        </mxCell>
        <mxCell id="ACu0_U7MY-6dZaPbagmZ-440" value="" style="whiteSpace=wrap;html=1;aspect=fixed;fillColor=#662A00;fontColor=#000000;strokeColor=#C73500;" vertex="1" parent="1">
          <mxGeometry x="810" y="210" width="10" height="10" as="geometry" />
        </mxCell>
        <mxCell id="ACu0_U7MY-6dZaPbagmZ-441" value="" style="whiteSpace=wrap;html=1;aspect=fixed;fillColor=#662A00;fontColor=#000000;strokeColor=#C73500;" vertex="1" parent="1">
          <mxGeometry x="820" y="210" width="10" height="10" as="geometry" />
        </mxCell>
        <mxCell id="ACu0_U7MY-6dZaPbagmZ-442" value="" style="whiteSpace=wrap;html=1;aspect=fixed;fillColor=#662A00;fontColor=#000000;strokeColor=#C73500;" vertex="1" parent="1">
          <mxGeometry x="830" y="210" width="10" height="10" as="geometry" />
        </mxCell>
        <mxCell id="ACu0_U7MY-6dZaPbagmZ-443" value="" style="whiteSpace=wrap;html=1;aspect=fixed;" vertex="1" parent="1">
          <mxGeometry x="840" y="210" width="10" height="10" as="geometry" />
        </mxCell>
        <mxCell id="ACu0_U7MY-6dZaPbagmZ-444" value="" style="whiteSpace=wrap;html=1;aspect=fixed;" vertex="1" parent="1">
          <mxGeometry x="850" y="210" width="10" height="10" as="geometry" />
        </mxCell>
        <mxCell id="ACu0_U7MY-6dZaPbagmZ-445" value="" style="whiteSpace=wrap;html=1;aspect=fixed;" vertex="1" parent="1">
          <mxGeometry x="860" y="210" width="10" height="10" as="geometry" />
        </mxCell>
        <mxCell id="ACu0_U7MY-6dZaPbagmZ-446" value="" style="whiteSpace=wrap;html=1;aspect=fixed;" vertex="1" parent="1">
          <mxGeometry x="870" y="210" width="10" height="10" as="geometry" />
        </mxCell>
        <mxCell id="ACu0_U7MY-6dZaPbagmZ-447" value="" style="whiteSpace=wrap;html=1;aspect=fixed;" vertex="1" parent="1">
          <mxGeometry x="880" y="210" width="10" height="10" as="geometry" />
        </mxCell>
        <mxCell id="ACu0_U7MY-6dZaPbagmZ-448" value="" style="whiteSpace=wrap;html=1;aspect=fixed;" vertex="1" parent="1">
          <mxGeometry x="750" y="220" width="10" height="10" as="geometry" />
        </mxCell>
        <mxCell id="ACu0_U7MY-6dZaPbagmZ-449" value="" style="whiteSpace=wrap;html=1;aspect=fixed;" vertex="1" parent="1">
          <mxGeometry x="760" y="220" width="10" height="10" as="geometry" />
        </mxCell>
        <mxCell id="ACu0_U7MY-6dZaPbagmZ-450" value="" style="whiteSpace=wrap;html=1;aspect=fixed;" vertex="1" parent="1">
          <mxGeometry x="770" y="220" width="10" height="10" as="geometry" />
        </mxCell>
        <mxCell id="ACu0_U7MY-6dZaPbagmZ-451" value="" style="whiteSpace=wrap;html=1;aspect=fixed;" vertex="1" parent="1">
          <mxGeometry x="780" y="220" width="10" height="10" as="geometry" />
        </mxCell>
        <mxCell id="ACu0_U7MY-6dZaPbagmZ-452" value="" style="whiteSpace=wrap;html=1;aspect=fixed;fillColor=#CC5500;fontColor=#000000;strokeColor=#C73500;" vertex="1" parent="1">
          <mxGeometry x="790" y="220" width="10" height="10" as="geometry" />
        </mxCell>
        <mxCell id="ACu0_U7MY-6dZaPbagmZ-453" value="" style="whiteSpace=wrap;html=1;aspect=fixed;fillColor=#CC5500;fontColor=#000000;strokeColor=#C73500;" vertex="1" parent="1">
          <mxGeometry x="800" y="220" width="10" height="10" as="geometry" />
        </mxCell>
        <mxCell id="ACu0_U7MY-6dZaPbagmZ-454" value="" style="whiteSpace=wrap;html=1;aspect=fixed;fillColor=#fa6800;fontColor=#000000;strokeColor=#C73500;" vertex="1" parent="1">
          <mxGeometry x="810" y="220" width="10" height="10" as="geometry" />
        </mxCell>
        <mxCell id="ACu0_U7MY-6dZaPbagmZ-455" value="" style="whiteSpace=wrap;html=1;aspect=fixed;fillColor=#fa6800;fontColor=#000000;strokeColor=#C73500;" vertex="1" parent="1">
          <mxGeometry x="820" y="220" width="10" height="10" as="geometry" />
        </mxCell>
        <mxCell id="ACu0_U7MY-6dZaPbagmZ-456" value="" style="whiteSpace=wrap;html=1;aspect=fixed;fillColor=#CC5500;fontColor=#000000;strokeColor=#C73500;" vertex="1" parent="1">
          <mxGeometry x="810" y="220" width="10" height="10" as="geometry" />
        </mxCell>
        <mxCell id="ACu0_U7MY-6dZaPbagmZ-457" value="" style="whiteSpace=wrap;html=1;aspect=fixed;fillColor=#CC5500;fontColor=#000000;strokeColor=#C73500;" vertex="1" parent="1">
          <mxGeometry x="820" y="220" width="10" height="10" as="geometry" />
        </mxCell>
        <mxCell id="ACu0_U7MY-6dZaPbagmZ-458" value="" style="whiteSpace=wrap;html=1;aspect=fixed;fillColor=#CC5500;fontColor=#000000;strokeColor=#C73500;" vertex="1" parent="1">
          <mxGeometry x="830" y="220" width="10" height="10" as="geometry" />
        </mxCell>
        <mxCell id="ACu0_U7MY-6dZaPbagmZ-459" value="" style="whiteSpace=wrap;html=1;aspect=fixed;fillColor=#CC5500;fontColor=#000000;strokeColor=#C73500;" vertex="1" parent="1">
          <mxGeometry x="840" y="220" width="10" height="10" as="geometry" />
        </mxCell>
        <mxCell id="ACu0_U7MY-6dZaPbagmZ-460" value="" style="whiteSpace=wrap;html=1;aspect=fixed;" vertex="1" parent="1">
          <mxGeometry x="850" y="220" width="10" height="10" as="geometry" />
        </mxCell>
        <mxCell id="ACu0_U7MY-6dZaPbagmZ-461" value="" style="whiteSpace=wrap;html=1;aspect=fixed;" vertex="1" parent="1">
          <mxGeometry x="860" y="220" width="10" height="10" as="geometry" />
        </mxCell>
        <mxCell id="ACu0_U7MY-6dZaPbagmZ-462" value="" style="whiteSpace=wrap;html=1;aspect=fixed;" vertex="1" parent="1">
          <mxGeometry x="870" y="220" width="10" height="10" as="geometry" />
        </mxCell>
        <mxCell id="ACu0_U7MY-6dZaPbagmZ-463" value="" style="whiteSpace=wrap;html=1;aspect=fixed;" vertex="1" parent="1">
          <mxGeometry x="880" y="220" width="10" height="10" as="geometry" />
        </mxCell>
        <mxCell id="ACu0_U7MY-6dZaPbagmZ-464" value="" style="whiteSpace=wrap;html=1;aspect=fixed;" vertex="1" parent="1">
          <mxGeometry x="750" y="230" width="10" height="10" as="geometry" />
        </mxCell>
        <mxCell id="ACu0_U7MY-6dZaPbagmZ-465" value="" style="whiteSpace=wrap;html=1;aspect=fixed;" vertex="1" parent="1">
          <mxGeometry x="760" y="230" width="10" height="10" as="geometry" />
        </mxCell>
        <mxCell id="ACu0_U7MY-6dZaPbagmZ-466" value="" style="whiteSpace=wrap;html=1;aspect=fixed;" vertex="1" parent="1">
          <mxGeometry x="770" y="230" width="10" height="10" as="geometry" />
        </mxCell>
        <mxCell id="ACu0_U7MY-6dZaPbagmZ-467" value="" style="whiteSpace=wrap;html=1;aspect=fixed;fillColor=#fa6800;fontColor=#000000;strokeColor=#C73500;" vertex="1" parent="1">
          <mxGeometry x="780" y="230" width="10" height="10" as="geometry" />
        </mxCell>
        <mxCell id="ACu0_U7MY-6dZaPbagmZ-468" value="" style="whiteSpace=wrap;html=1;aspect=fixed;fillColor=#fa6800;fontColor=#000000;strokeColor=#C73500;" vertex="1" parent="1">
          <mxGeometry x="790" y="230" width="10" height="10" as="geometry" />
        </mxCell>
        <mxCell id="ACu0_U7MY-6dZaPbagmZ-469" value="" style="whiteSpace=wrap;html=1;aspect=fixed;fillColor=#fa6800;fontColor=#000000;strokeColor=#C73500;" vertex="1" parent="1">
          <mxGeometry x="800" y="230" width="10" height="10" as="geometry" />
        </mxCell>
        <mxCell id="ACu0_U7MY-6dZaPbagmZ-470" value="" style="whiteSpace=wrap;html=1;aspect=fixed;fillColor=#fa6800;fontColor=#000000;strokeColor=#C73500;" vertex="1" parent="1">
          <mxGeometry x="810" y="230" width="10" height="10" as="geometry" />
        </mxCell>
        <mxCell id="ACu0_U7MY-6dZaPbagmZ-471" value="" style="whiteSpace=wrap;html=1;aspect=fixed;fillColor=#fa6800;fontColor=#000000;strokeColor=#C73500;" vertex="1" parent="1">
          <mxGeometry x="820" y="230" width="10" height="10" as="geometry" />
        </mxCell>
        <mxCell id="ACu0_U7MY-6dZaPbagmZ-472" value="" style="whiteSpace=wrap;html=1;aspect=fixed;fillColor=#fa6800;fontColor=#000000;strokeColor=#C73500;" vertex="1" parent="1">
          <mxGeometry x="810" y="230" width="10" height="10" as="geometry" />
        </mxCell>
        <mxCell id="ACu0_U7MY-6dZaPbagmZ-473" value="" style="whiteSpace=wrap;html=1;aspect=fixed;fillColor=#fa6800;fontColor=#000000;strokeColor=#C73500;" vertex="1" parent="1">
          <mxGeometry x="820" y="230" width="10" height="10" as="geometry" />
        </mxCell>
        <mxCell id="ACu0_U7MY-6dZaPbagmZ-474" value="" style="whiteSpace=wrap;html=1;aspect=fixed;fillColor=#fa6800;fontColor=#000000;strokeColor=#C73500;" vertex="1" parent="1">
          <mxGeometry x="830" y="230" width="10" height="10" as="geometry" />
        </mxCell>
        <mxCell id="ACu0_U7MY-6dZaPbagmZ-475" value="" style="whiteSpace=wrap;html=1;aspect=fixed;fillColor=#fa6800;fontColor=#000000;strokeColor=#C73500;" vertex="1" parent="1">
          <mxGeometry x="840" y="230" width="10" height="10" as="geometry" />
        </mxCell>
        <mxCell id="ACu0_U7MY-6dZaPbagmZ-476" value="" style="whiteSpace=wrap;html=1;aspect=fixed;fillColor=#fa6800;fontColor=#000000;strokeColor=#C73500;" vertex="1" parent="1">
          <mxGeometry x="850" y="230" width="10" height="10" as="geometry" />
        </mxCell>
        <mxCell id="ACu0_U7MY-6dZaPbagmZ-477" value="" style="whiteSpace=wrap;html=1;aspect=fixed;" vertex="1" parent="1">
          <mxGeometry x="860" y="230" width="10" height="10" as="geometry" />
        </mxCell>
        <mxCell id="ACu0_U7MY-6dZaPbagmZ-478" value="" style="whiteSpace=wrap;html=1;aspect=fixed;" vertex="1" parent="1">
          <mxGeometry x="870" y="230" width="10" height="10" as="geometry" />
        </mxCell>
        <mxCell id="ACu0_U7MY-6dZaPbagmZ-479" value="" style="whiteSpace=wrap;html=1;aspect=fixed;" vertex="1" parent="1">
          <mxGeometry x="880" y="230" width="10" height="10" as="geometry" />
        </mxCell>
        <mxCell id="ACu0_U7MY-6dZaPbagmZ-480" value="" style="whiteSpace=wrap;html=1;aspect=fixed;" vertex="1" parent="1">
          <mxGeometry x="750" y="240" width="10" height="10" as="geometry" />
        </mxCell>
        <mxCell id="ACu0_U7MY-6dZaPbagmZ-481" value="" style="whiteSpace=wrap;html=1;aspect=fixed;" vertex="1" parent="1">
          <mxGeometry x="760" y="240" width="10" height="10" as="geometry" />
        </mxCell>
        <mxCell id="ACu0_U7MY-6dZaPbagmZ-482" value="" style="whiteSpace=wrap;html=1;aspect=fixed;" vertex="1" parent="1">
          <mxGeometry x="770" y="240" width="10" height="10" as="geometry" />
        </mxCell>
        <mxCell id="ACu0_U7MY-6dZaPbagmZ-483" value="" style="whiteSpace=wrap;html=1;aspect=fixed;fillColor=#FA9600;fontColor=#000000;strokeColor=#C73500;" vertex="1" parent="1">
          <mxGeometry x="780" y="240" width="10" height="10" as="geometry" />
        </mxCell>
        <mxCell id="ACu0_U7MY-6dZaPbagmZ-484" value="" style="whiteSpace=wrap;html=1;aspect=fixed;fillColor=#FA9600;fontColor=#000000;strokeColor=#C73500;" vertex="1" parent="1">
          <mxGeometry x="790" y="240" width="10" height="10" as="geometry" />
        </mxCell>
        <mxCell id="ACu0_U7MY-6dZaPbagmZ-485" value="" style="whiteSpace=wrap;html=1;aspect=fixed;fillColor=#FA9600;fontColor=#000000;strokeColor=#C73500;" vertex="1" parent="1">
          <mxGeometry x="800" y="240" width="10" height="10" as="geometry" />
        </mxCell>
        <mxCell id="ACu0_U7MY-6dZaPbagmZ-486" value="" style="whiteSpace=wrap;html=1;aspect=fixed;fillColor=#FA9600;fontColor=#000000;strokeColor=#C73500;" vertex="1" parent="1">
          <mxGeometry x="810" y="240" width="10" height="10" as="geometry" />
        </mxCell>
        <mxCell id="ACu0_U7MY-6dZaPbagmZ-487" value="" style="whiteSpace=wrap;html=1;aspect=fixed;fillColor=#FA9600;fontColor=#000000;strokeColor=#C73500;" vertex="1" parent="1">
          <mxGeometry x="820" y="240" width="10" height="10" as="geometry" />
        </mxCell>
        <mxCell id="ACu0_U7MY-6dZaPbagmZ-488" value="" style="whiteSpace=wrap;html=1;aspect=fixed;fillColor=#FA9600;fontColor=#000000;strokeColor=#C73500;" vertex="1" parent="1">
          <mxGeometry x="810" y="240" width="10" height="10" as="geometry" />
        </mxCell>
        <mxCell id="ACu0_U7MY-6dZaPbagmZ-489" value="" style="whiteSpace=wrap;html=1;aspect=fixed;fillColor=#FA9600;fontColor=#000000;strokeColor=#C73500;" vertex="1" parent="1">
          <mxGeometry x="820" y="240" width="10" height="10" as="geometry" />
        </mxCell>
        <mxCell id="ACu0_U7MY-6dZaPbagmZ-490" value="" style="whiteSpace=wrap;html=1;aspect=fixed;fillColor=#FA9600;fontColor=#000000;strokeColor=#C73500;" vertex="1" parent="1">
          <mxGeometry x="830" y="240" width="10" height="10" as="geometry" />
        </mxCell>
        <mxCell id="ACu0_U7MY-6dZaPbagmZ-491" value="" style="whiteSpace=wrap;html=1;aspect=fixed;fillColor=#FA9600;fontColor=#000000;strokeColor=#C73500;" vertex="1" parent="1">
          <mxGeometry x="840" y="240" width="10" height="10" as="geometry" />
        </mxCell>
        <mxCell id="ACu0_U7MY-6dZaPbagmZ-492" value="" style="whiteSpace=wrap;html=1;aspect=fixed;fillColor=#FA9600;fontColor=#000000;strokeColor=#C73500;" vertex="1" parent="1">
          <mxGeometry x="850" y="240" width="10" height="10" as="geometry" />
        </mxCell>
        <mxCell id="ACu0_U7MY-6dZaPbagmZ-493" value="" style="whiteSpace=wrap;html=1;aspect=fixed;" vertex="1" parent="1">
          <mxGeometry x="860" y="240" width="10" height="10" as="geometry" />
        </mxCell>
        <mxCell id="ACu0_U7MY-6dZaPbagmZ-494" value="" style="whiteSpace=wrap;html=1;aspect=fixed;" vertex="1" parent="1">
          <mxGeometry x="870" y="240" width="10" height="10" as="geometry" />
        </mxCell>
        <mxCell id="ACu0_U7MY-6dZaPbagmZ-495" value="" style="whiteSpace=wrap;html=1;aspect=fixed;" vertex="1" parent="1">
          <mxGeometry x="880" y="240" width="10" height="10" as="geometry" />
        </mxCell>
        <mxCell id="ACu0_U7MY-6dZaPbagmZ-496" value="" style="whiteSpace=wrap;html=1;aspect=fixed;" vertex="1" parent="1">
          <mxGeometry x="750" y="250" width="10" height="10" as="geometry" />
        </mxCell>
        <mxCell id="ACu0_U7MY-6dZaPbagmZ-497" value="" style="whiteSpace=wrap;html=1;aspect=fixed;" vertex="1" parent="1">
          <mxGeometry x="760" y="250" width="10" height="10" as="geometry" />
        </mxCell>
        <mxCell id="ACu0_U7MY-6dZaPbagmZ-498" value="" style="whiteSpace=wrap;html=1;aspect=fixed;" vertex="1" parent="1">
          <mxGeometry x="770" y="250" width="10" height="10" as="geometry" />
        </mxCell>
        <mxCell id="ACu0_U7MY-6dZaPbagmZ-499" value="" style="whiteSpace=wrap;html=1;aspect=fixed;fillColor=#FA9600;fontColor=#000000;strokeColor=#C73500;" vertex="1" parent="1">
          <mxGeometry x="780" y="250" width="10" height="10" as="geometry" />
        </mxCell>
        <mxCell id="ACu0_U7MY-6dZaPbagmZ-500" value="" style="whiteSpace=wrap;html=1;aspect=fixed;fillColor=#FA9600;fontColor=#000000;strokeColor=#C73500;" vertex="1" parent="1">
          <mxGeometry x="790" y="250" width="10" height="10" as="geometry" />
        </mxCell>
        <mxCell id="ACu0_U7MY-6dZaPbagmZ-501" value="" style="whiteSpace=wrap;html=1;aspect=fixed;fillColor=#FA9600;fontColor=#000000;strokeColor=#C73500;" vertex="1" parent="1">
          <mxGeometry x="800" y="250" width="10" height="10" as="geometry" />
        </mxCell>
        <mxCell id="ACu0_U7MY-6dZaPbagmZ-502" value="" style="whiteSpace=wrap;html=1;aspect=fixed;fillColor=#FA9600;fontColor=#000000;strokeColor=#C73500;" vertex="1" parent="1">
          <mxGeometry x="810" y="250" width="10" height="10" as="geometry" />
        </mxCell>
        <mxCell id="ACu0_U7MY-6dZaPbagmZ-503" value="" style="whiteSpace=wrap;html=1;aspect=fixed;fillColor=#FA9600;fontColor=#000000;strokeColor=#C73500;" vertex="1" parent="1">
          <mxGeometry x="820" y="250" width="10" height="10" as="geometry" />
        </mxCell>
        <mxCell id="ACu0_U7MY-6dZaPbagmZ-504" value="" style="whiteSpace=wrap;html=1;aspect=fixed;fillColor=#FA9600;fontColor=#000000;strokeColor=#C73500;" vertex="1" parent="1">
          <mxGeometry x="810" y="250" width="10" height="10" as="geometry" />
        </mxCell>
        <mxCell id="ACu0_U7MY-6dZaPbagmZ-505" value="" style="whiteSpace=wrap;html=1;aspect=fixed;fillColor=#FA9600;fontColor=#000000;strokeColor=#C73500;" vertex="1" parent="1">
          <mxGeometry x="820" y="250" width="10" height="10" as="geometry" />
        </mxCell>
        <mxCell id="ACu0_U7MY-6dZaPbagmZ-506" value="" style="whiteSpace=wrap;html=1;aspect=fixed;fillColor=#FA9600;fontColor=#000000;strokeColor=#C73500;" vertex="1" parent="1">
          <mxGeometry x="830" y="250" width="10" height="10" as="geometry" />
        </mxCell>
        <mxCell id="ACu0_U7MY-6dZaPbagmZ-507" value="" style="whiteSpace=wrap;html=1;aspect=fixed;fillColor=#FA9600;fontColor=#000000;strokeColor=#C73500;" vertex="1" parent="1">
          <mxGeometry x="840" y="250" width="10" height="10" as="geometry" />
        </mxCell>
        <mxCell id="ACu0_U7MY-6dZaPbagmZ-508" value="" style="whiteSpace=wrap;html=1;aspect=fixed;fillColor=#FA9600;fontColor=#000000;strokeColor=#C73500;" vertex="1" parent="1">
          <mxGeometry x="850" y="250" width="10" height="10" as="geometry" />
        </mxCell>
        <mxCell id="ACu0_U7MY-6dZaPbagmZ-509" value="" style="whiteSpace=wrap;html=1;aspect=fixed;" vertex="1" parent="1">
          <mxGeometry x="860" y="250" width="10" height="10" as="geometry" />
        </mxCell>
        <mxCell id="ACu0_U7MY-6dZaPbagmZ-510" value="" style="whiteSpace=wrap;html=1;aspect=fixed;" vertex="1" parent="1">
          <mxGeometry x="870" y="250" width="10" height="10" as="geometry" />
        </mxCell>
        <mxCell id="ACu0_U7MY-6dZaPbagmZ-511" value="" style="whiteSpace=wrap;html=1;aspect=fixed;" vertex="1" parent="1">
          <mxGeometry x="880" y="250" width="10" height="10" as="geometry" />
        </mxCell>
        <mxCell id="ACu0_U7MY-6dZaPbagmZ-512" value="" style="whiteSpace=wrap;html=1;aspect=fixed;" vertex="1" parent="1">
          <mxGeometry x="750" y="260" width="10" height="10" as="geometry" />
        </mxCell>
        <mxCell id="ACu0_U7MY-6dZaPbagmZ-513" value="" style="whiteSpace=wrap;html=1;aspect=fixed;" vertex="1" parent="1">
          <mxGeometry x="760" y="260" width="10" height="10" as="geometry" />
        </mxCell>
        <mxCell id="ACu0_U7MY-6dZaPbagmZ-514" value="" style="whiteSpace=wrap;html=1;aspect=fixed;" vertex="1" parent="1">
          <mxGeometry x="770" y="260" width="10" height="10" as="geometry" />
        </mxCell>
        <mxCell id="ACu0_U7MY-6dZaPbagmZ-515" value="" style="whiteSpace=wrap;html=1;aspect=fixed;fillColor=#FA9600;fontColor=#000000;strokeColor=#C73500;" vertex="1" parent="1">
          <mxGeometry x="780" y="260" width="10" height="10" as="geometry" />
        </mxCell>
        <mxCell id="ACu0_U7MY-6dZaPbagmZ-516" value="" style="whiteSpace=wrap;html=1;aspect=fixed;fillColor=#FA9600;fontColor=#000000;strokeColor=#C73500;" vertex="1" parent="1">
          <mxGeometry x="790" y="260" width="10" height="10" as="geometry" />
        </mxCell>
        <mxCell id="ACu0_U7MY-6dZaPbagmZ-517" value="" style="whiteSpace=wrap;html=1;aspect=fixed;fillColor=#FA9600;fontColor=#000000;strokeColor=#C73500;" vertex="1" parent="1">
          <mxGeometry x="800" y="260" width="10" height="10" as="geometry" />
        </mxCell>
        <mxCell id="ACu0_U7MY-6dZaPbagmZ-518" value="" style="whiteSpace=wrap;html=1;aspect=fixed;fillColor=#FA9600;fontColor=#000000;strokeColor=#C73500;" vertex="1" parent="1">
          <mxGeometry x="810" y="260" width="10" height="10" as="geometry" />
        </mxCell>
        <mxCell id="ACu0_U7MY-6dZaPbagmZ-519" value="" style="whiteSpace=wrap;html=1;aspect=fixed;fillColor=#FA9600;fontColor=#000000;strokeColor=#C73500;" vertex="1" parent="1">
          <mxGeometry x="820" y="260" width="10" height="10" as="geometry" />
        </mxCell>
        <mxCell id="ACu0_U7MY-6dZaPbagmZ-520" value="" style="whiteSpace=wrap;html=1;aspect=fixed;fillColor=#FA9600;fontColor=#000000;strokeColor=#C73500;" vertex="1" parent="1">
          <mxGeometry x="810" y="260" width="10" height="10" as="geometry" />
        </mxCell>
        <mxCell id="ACu0_U7MY-6dZaPbagmZ-521" value="" style="whiteSpace=wrap;html=1;aspect=fixed;fillColor=#FA9600;fontColor=#000000;strokeColor=#C73500;" vertex="1" parent="1">
          <mxGeometry x="820" y="260" width="10" height="10" as="geometry" />
        </mxCell>
        <mxCell id="ACu0_U7MY-6dZaPbagmZ-522" value="" style="whiteSpace=wrap;html=1;aspect=fixed;fillColor=#FA9600;fontColor=#000000;strokeColor=#C73500;" vertex="1" parent="1">
          <mxGeometry x="830" y="260" width="10" height="10" as="geometry" />
        </mxCell>
        <mxCell id="ACu0_U7MY-6dZaPbagmZ-523" value="" style="whiteSpace=wrap;html=1;aspect=fixed;fillColor=#FA9600;fontColor=#000000;strokeColor=#C73500;" vertex="1" parent="1">
          <mxGeometry x="840" y="260" width="10" height="10" as="geometry" />
        </mxCell>
        <mxCell id="ACu0_U7MY-6dZaPbagmZ-524" value="" style="whiteSpace=wrap;html=1;aspect=fixed;fillColor=#FA9600;fontColor=#000000;strokeColor=#C73500;" vertex="1" parent="1">
          <mxGeometry x="850" y="260" width="10" height="10" as="geometry" />
        </mxCell>
        <mxCell id="ACu0_U7MY-6dZaPbagmZ-525" value="" style="whiteSpace=wrap;html=1;aspect=fixed;" vertex="1" parent="1">
          <mxGeometry x="860" y="260" width="10" height="10" as="geometry" />
        </mxCell>
        <mxCell id="ACu0_U7MY-6dZaPbagmZ-526" value="" style="whiteSpace=wrap;html=1;aspect=fixed;" vertex="1" parent="1">
          <mxGeometry x="870" y="260" width="10" height="10" as="geometry" />
        </mxCell>
        <mxCell id="ACu0_U7MY-6dZaPbagmZ-527" value="" style="whiteSpace=wrap;html=1;aspect=fixed;" vertex="1" parent="1">
          <mxGeometry x="880" y="260" width="10" height="10" as="geometry" />
        </mxCell>
        <mxCell id="ACu0_U7MY-6dZaPbagmZ-528" value="" style="whiteSpace=wrap;html=1;aspect=fixed;" vertex="1" parent="1">
          <mxGeometry x="750" y="270" width="10" height="10" as="geometry" />
        </mxCell>
        <mxCell id="ACu0_U7MY-6dZaPbagmZ-529" value="" style="whiteSpace=wrap;html=1;aspect=fixed;" vertex="1" parent="1">
          <mxGeometry x="760" y="270" width="10" height="10" as="geometry" />
        </mxCell>
        <mxCell id="ACu0_U7MY-6dZaPbagmZ-530" value="" style="whiteSpace=wrap;html=1;aspect=fixed;" vertex="1" parent="1">
          <mxGeometry x="770" y="270" width="10" height="10" as="geometry" />
        </mxCell>
        <mxCell id="ACu0_U7MY-6dZaPbagmZ-531" value="" style="whiteSpace=wrap;html=1;aspect=fixed;fillColor=#FA9600;fontColor=#000000;strokeColor=#C73500;" vertex="1" parent="1">
          <mxGeometry x="780" y="270" width="10" height="10" as="geometry" />
        </mxCell>
        <mxCell id="ACu0_U7MY-6dZaPbagmZ-532" value="" style="whiteSpace=wrap;html=1;aspect=fixed;fillColor=#FA9600;fontColor=#000000;strokeColor=#C73500;" vertex="1" parent="1">
          <mxGeometry x="790" y="270" width="10" height="10" as="geometry" />
        </mxCell>
        <mxCell id="ACu0_U7MY-6dZaPbagmZ-533" value="" style="whiteSpace=wrap;html=1;aspect=fixed;fillColor=#FA9600;fontColor=#000000;strokeColor=#C73500;" vertex="1" parent="1">
          <mxGeometry x="800" y="270" width="10" height="10" as="geometry" />
        </mxCell>
        <mxCell id="ACu0_U7MY-6dZaPbagmZ-534" value="" style="whiteSpace=wrap;html=1;aspect=fixed;fillColor=#FA9600;fontColor=#000000;strokeColor=#C73500;" vertex="1" parent="1">
          <mxGeometry x="810" y="270" width="10" height="10" as="geometry" />
        </mxCell>
        <mxCell id="ACu0_U7MY-6dZaPbagmZ-535" value="" style="whiteSpace=wrap;html=1;aspect=fixed;fillColor=#FA9600;fontColor=#000000;strokeColor=#C73500;" vertex="1" parent="1">
          <mxGeometry x="820" y="270" width="10" height="10" as="geometry" />
        </mxCell>
        <mxCell id="ACu0_U7MY-6dZaPbagmZ-536" value="" style="whiteSpace=wrap;html=1;aspect=fixed;fillColor=#FA9600;fontColor=#000000;strokeColor=#C73500;" vertex="1" parent="1">
          <mxGeometry x="810" y="270" width="10" height="10" as="geometry" />
        </mxCell>
        <mxCell id="ACu0_U7MY-6dZaPbagmZ-537" value="" style="whiteSpace=wrap;html=1;aspect=fixed;fillColor=#FA9600;fontColor=#000000;strokeColor=#C73500;" vertex="1" parent="1">
          <mxGeometry x="820" y="270" width="10" height="10" as="geometry" />
        </mxCell>
        <mxCell id="ACu0_U7MY-6dZaPbagmZ-538" value="" style="whiteSpace=wrap;html=1;aspect=fixed;fillColor=#FA9600;fontColor=#000000;strokeColor=#C73500;" vertex="1" parent="1">
          <mxGeometry x="830" y="270" width="10" height="10" as="geometry" />
        </mxCell>
        <mxCell id="ACu0_U7MY-6dZaPbagmZ-539" value="" style="whiteSpace=wrap;html=1;aspect=fixed;fillColor=#FA9600;fontColor=#000000;strokeColor=#C73500;" vertex="1" parent="1">
          <mxGeometry x="840" y="270" width="10" height="10" as="geometry" />
        </mxCell>
        <mxCell id="ACu0_U7MY-6dZaPbagmZ-540" value="" style="whiteSpace=wrap;html=1;aspect=fixed;fillColor=#FA9600;fontColor=#000000;strokeColor=#C73500;" vertex="1" parent="1">
          <mxGeometry x="850" y="270" width="10" height="10" as="geometry" />
        </mxCell>
        <mxCell id="ACu0_U7MY-6dZaPbagmZ-541" value="" style="whiteSpace=wrap;html=1;aspect=fixed;" vertex="1" parent="1">
          <mxGeometry x="860" y="270" width="10" height="10" as="geometry" />
        </mxCell>
        <mxCell id="ACu0_U7MY-6dZaPbagmZ-542" value="" style="whiteSpace=wrap;html=1;aspect=fixed;" vertex="1" parent="1">
          <mxGeometry x="870" y="270" width="10" height="10" as="geometry" />
        </mxCell>
        <mxCell id="ACu0_U7MY-6dZaPbagmZ-543" value="" style="whiteSpace=wrap;html=1;aspect=fixed;" vertex="1" parent="1">
          <mxGeometry x="880" y="270" width="10" height="10" as="geometry" />
        </mxCell>
        <mxCell id="ACu0_U7MY-6dZaPbagmZ-544" value="" style="whiteSpace=wrap;html=1;aspect=fixed;" vertex="1" parent="1">
          <mxGeometry x="750" y="320" width="10" height="10" as="geometry" />
        </mxCell>
        <mxCell id="ACu0_U7MY-6dZaPbagmZ-545" value="" style="whiteSpace=wrap;html=1;aspect=fixed;" vertex="1" parent="1">
          <mxGeometry x="760" y="320" width="10" height="10" as="geometry" />
        </mxCell>
        <mxCell id="ACu0_U7MY-6dZaPbagmZ-546" value="" style="whiteSpace=wrap;html=1;aspect=fixed;" vertex="1" parent="1">
          <mxGeometry x="770" y="320" width="10" height="10" as="geometry" />
        </mxCell>
        <mxCell id="ACu0_U7MY-6dZaPbagmZ-547" value="" style="whiteSpace=wrap;html=1;aspect=fixed;" vertex="1" parent="1">
          <mxGeometry x="780" y="320" width="10" height="10" as="geometry" />
        </mxCell>
        <mxCell id="ACu0_U7MY-6dZaPbagmZ-548" value="" style="whiteSpace=wrap;html=1;aspect=fixed;" vertex="1" parent="1">
          <mxGeometry x="790" y="320" width="10" height="10" as="geometry" />
        </mxCell>
        <mxCell id="ACu0_U7MY-6dZaPbagmZ-549" value="" style="whiteSpace=wrap;html=1;aspect=fixed;fillColor=#a20025;fontColor=#ffffff;strokeColor=#6F0000;" vertex="1" parent="1">
          <mxGeometry x="800" y="320" width="10" height="10" as="geometry" />
        </mxCell>
        <mxCell id="ACu0_U7MY-6dZaPbagmZ-550" value="" style="whiteSpace=wrap;html=1;aspect=fixed;" vertex="1" parent="1">
          <mxGeometry x="810" y="320" width="10" height="10" as="geometry" />
        </mxCell>
        <mxCell id="ACu0_U7MY-6dZaPbagmZ-551" value="" style="whiteSpace=wrap;html=1;aspect=fixed;" vertex="1" parent="1">
          <mxGeometry x="820" y="320" width="10" height="10" as="geometry" />
        </mxCell>
        <mxCell id="ACu0_U7MY-6dZaPbagmZ-552" value="" style="whiteSpace=wrap;html=1;aspect=fixed;fillColor=#a20025;fontColor=#ffffff;strokeColor=#6F0000;" vertex="1" parent="1">
          <mxGeometry x="810" y="320" width="10" height="10" as="geometry" />
        </mxCell>
        <mxCell id="ACu0_U7MY-6dZaPbagmZ-553" value="" style="whiteSpace=wrap;html=1;aspect=fixed;fillColor=#a20025;fontColor=#ffffff;strokeColor=#6F0000;" vertex="1" parent="1">
          <mxGeometry x="820" y="320" width="10" height="10" as="geometry" />
        </mxCell>
        <mxCell id="ACu0_U7MY-6dZaPbagmZ-554" value="" style="whiteSpace=wrap;html=1;aspect=fixed;fillColor=#a20025;fontColor=#ffffff;strokeColor=#6F0000;" vertex="1" parent="1">
          <mxGeometry x="830" y="320" width="10" height="10" as="geometry" />
        </mxCell>
        <mxCell id="ACu0_U7MY-6dZaPbagmZ-555" value="" style="whiteSpace=wrap;html=1;aspect=fixed;" vertex="1" parent="1">
          <mxGeometry x="840" y="320" width="10" height="10" as="geometry" />
        </mxCell>
        <mxCell id="ACu0_U7MY-6dZaPbagmZ-556" value="" style="whiteSpace=wrap;html=1;aspect=fixed;" vertex="1" parent="1">
          <mxGeometry x="850" y="320" width="10" height="10" as="geometry" />
        </mxCell>
        <mxCell id="ACu0_U7MY-6dZaPbagmZ-557" value="" style="whiteSpace=wrap;html=1;aspect=fixed;" vertex="1" parent="1">
          <mxGeometry x="860" y="320" width="10" height="10" as="geometry" />
        </mxCell>
        <mxCell id="ACu0_U7MY-6dZaPbagmZ-558" value="" style="whiteSpace=wrap;html=1;aspect=fixed;" vertex="1" parent="1">
          <mxGeometry x="870" y="320" width="10" height="10" as="geometry" />
        </mxCell>
        <mxCell id="ACu0_U7MY-6dZaPbagmZ-559" value="" style="whiteSpace=wrap;html=1;aspect=fixed;" vertex="1" parent="1">
          <mxGeometry x="880" y="320" width="10" height="10" as="geometry" />
        </mxCell>
        <mxCell id="ACu0_U7MY-6dZaPbagmZ-560" value="" style="whiteSpace=wrap;html=1;aspect=fixed;" vertex="1" parent="1">
          <mxGeometry x="750" y="330" width="10" height="10" as="geometry" />
        </mxCell>
        <mxCell id="ACu0_U7MY-6dZaPbagmZ-561" value="" style="whiteSpace=wrap;html=1;aspect=fixed;" vertex="1" parent="1">
          <mxGeometry x="760" y="330" width="10" height="10" as="geometry" />
        </mxCell>
        <mxCell id="ACu0_U7MY-6dZaPbagmZ-562" value="" style="whiteSpace=wrap;html=1;aspect=fixed;" vertex="1" parent="1">
          <mxGeometry x="770" y="330" width="10" height="10" as="geometry" />
        </mxCell>
        <mxCell id="ACu0_U7MY-6dZaPbagmZ-563" value="" style="whiteSpace=wrap;html=1;aspect=fixed;" vertex="1" parent="1">
          <mxGeometry x="780" y="330" width="10" height="10" as="geometry" />
        </mxCell>
        <mxCell id="ACu0_U7MY-6dZaPbagmZ-564" value="" style="whiteSpace=wrap;html=1;aspect=fixed;fillColor=#a20025;fontColor=#ffffff;strokeColor=#6F0000;" vertex="1" parent="1">
          <mxGeometry x="790" y="330" width="10" height="10" as="geometry" />
        </mxCell>
        <mxCell id="ACu0_U7MY-6dZaPbagmZ-565" value="" style="whiteSpace=wrap;html=1;aspect=fixed;fillColor=#662A00;fontColor=#000000;strokeColor=#C73500;" vertex="1" parent="1">
          <mxGeometry x="800" y="330" width="10" height="10" as="geometry" />
        </mxCell>
        <mxCell id="ACu0_U7MY-6dZaPbagmZ-566" value="" style="whiteSpace=wrap;html=1;aspect=fixed;" vertex="1" parent="1">
          <mxGeometry x="810" y="330" width="10" height="10" as="geometry" />
        </mxCell>
        <mxCell id="ACu0_U7MY-6dZaPbagmZ-567" value="" style="whiteSpace=wrap;html=1;aspect=fixed;" vertex="1" parent="1">
          <mxGeometry x="820" y="330" width="10" height="10" as="geometry" />
        </mxCell>
        <mxCell id="ACu0_U7MY-6dZaPbagmZ-568" value="" style="whiteSpace=wrap;html=1;aspect=fixed;fillColor=#662A00;fontColor=#000000;strokeColor=#C73500;" vertex="1" parent="1">
          <mxGeometry x="810" y="330" width="10" height="10" as="geometry" />
        </mxCell>
        <mxCell id="ACu0_U7MY-6dZaPbagmZ-569" value="" style="whiteSpace=wrap;html=1;aspect=fixed;fillColor=#662A00;fontColor=#000000;strokeColor=#C73500;" vertex="1" parent="1">
          <mxGeometry x="820" y="330" width="10" height="10" as="geometry" />
        </mxCell>
        <mxCell id="ACu0_U7MY-6dZaPbagmZ-570" value="" style="whiteSpace=wrap;html=1;aspect=fixed;fillColor=#662A00;fontColor=#000000;strokeColor=#C73500;" vertex="1" parent="1">
          <mxGeometry x="830" y="330" width="10" height="10" as="geometry" />
        </mxCell>
        <mxCell id="ACu0_U7MY-6dZaPbagmZ-571" value="" style="whiteSpace=wrap;html=1;aspect=fixed;fillColor=#a20025;fontColor=#ffffff;strokeColor=#6F0000;" vertex="1" parent="1">
          <mxGeometry x="840" y="330" width="10" height="10" as="geometry" />
        </mxCell>
        <mxCell id="ACu0_U7MY-6dZaPbagmZ-572" value="" style="whiteSpace=wrap;html=1;aspect=fixed;" vertex="1" parent="1">
          <mxGeometry x="850" y="330" width="10" height="10" as="geometry" />
        </mxCell>
        <mxCell id="ACu0_U7MY-6dZaPbagmZ-573" value="" style="whiteSpace=wrap;html=1;aspect=fixed;" vertex="1" parent="1">
          <mxGeometry x="860" y="330" width="10" height="10" as="geometry" />
        </mxCell>
        <mxCell id="ACu0_U7MY-6dZaPbagmZ-574" value="" style="whiteSpace=wrap;html=1;aspect=fixed;" vertex="1" parent="1">
          <mxGeometry x="870" y="330" width="10" height="10" as="geometry" />
        </mxCell>
        <mxCell id="ACu0_U7MY-6dZaPbagmZ-575" value="" style="whiteSpace=wrap;html=1;aspect=fixed;" vertex="1" parent="1">
          <mxGeometry x="880" y="330" width="10" height="10" as="geometry" />
        </mxCell>
        <mxCell id="ACu0_U7MY-6dZaPbagmZ-576" value="" style="whiteSpace=wrap;html=1;aspect=fixed;" vertex="1" parent="1">
          <mxGeometry x="750" y="340" width="10" height="10" as="geometry" />
        </mxCell>
        <mxCell id="ACu0_U7MY-6dZaPbagmZ-577" value="" style="whiteSpace=wrap;html=1;aspect=fixed;" vertex="1" parent="1">
          <mxGeometry x="760" y="340" width="10" height="10" as="geometry" />
        </mxCell>
        <mxCell id="ACu0_U7MY-6dZaPbagmZ-578" value="" style="whiteSpace=wrap;html=1;aspect=fixed;" vertex="1" parent="1">
          <mxGeometry x="770" y="340" width="10" height="10" as="geometry" />
        </mxCell>
        <mxCell id="ACu0_U7MY-6dZaPbagmZ-579" value="" style="whiteSpace=wrap;html=1;aspect=fixed;direction=south;fillColor=#a20025;fontColor=#ffffff;strokeColor=#6F0000;" vertex="1" parent="1">
          <mxGeometry x="780" y="340" width="10" height="10" as="geometry" />
        </mxCell>
        <mxCell id="ACu0_U7MY-6dZaPbagmZ-580" value="" style="whiteSpace=wrap;html=1;aspect=fixed;fillColor=#CC5500;fontColor=#000000;strokeColor=#C73500;" vertex="1" parent="1">
          <mxGeometry x="790" y="340" width="10" height="10" as="geometry" />
        </mxCell>
        <mxCell id="ACu0_U7MY-6dZaPbagmZ-581" value="" style="whiteSpace=wrap;html=1;aspect=fixed;fillColor=#CC5500;fontColor=#000000;strokeColor=#C73500;" vertex="1" parent="1">
          <mxGeometry x="800" y="340" width="10" height="10" as="geometry" />
        </mxCell>
        <mxCell id="ACu0_U7MY-6dZaPbagmZ-582" value="" style="whiteSpace=wrap;html=1;aspect=fixed;fillColor=#fa6800;fontColor=#000000;strokeColor=#C73500;" vertex="1" parent="1">
          <mxGeometry x="810" y="340" width="10" height="10" as="geometry" />
        </mxCell>
        <mxCell id="ACu0_U7MY-6dZaPbagmZ-583" value="" style="whiteSpace=wrap;html=1;aspect=fixed;fillColor=#fa6800;fontColor=#000000;strokeColor=#C73500;" vertex="1" parent="1">
          <mxGeometry x="820" y="340" width="10" height="10" as="geometry" />
        </mxCell>
        <mxCell id="ACu0_U7MY-6dZaPbagmZ-584" value="" style="whiteSpace=wrap;html=1;aspect=fixed;fillColor=#CC5500;fontColor=#000000;strokeColor=#C73500;" vertex="1" parent="1">
          <mxGeometry x="810" y="340" width="10" height="10" as="geometry" />
        </mxCell>
        <mxCell id="ACu0_U7MY-6dZaPbagmZ-585" value="" style="whiteSpace=wrap;html=1;aspect=fixed;fillColor=#CC5500;fontColor=#000000;strokeColor=#C73500;" vertex="1" parent="1">
          <mxGeometry x="820" y="340" width="10" height="10" as="geometry" />
        </mxCell>
        <mxCell id="ACu0_U7MY-6dZaPbagmZ-586" value="" style="whiteSpace=wrap;html=1;aspect=fixed;fillColor=#CC5500;fontColor=#000000;strokeColor=#C73500;" vertex="1" parent="1">
          <mxGeometry x="830" y="340" width="10" height="10" as="geometry" />
        </mxCell>
        <mxCell id="ACu0_U7MY-6dZaPbagmZ-587" value="" style="whiteSpace=wrap;html=1;aspect=fixed;fillColor=#CC5500;fontColor=#000000;strokeColor=#C73500;" vertex="1" parent="1">
          <mxGeometry x="840" y="340" width="10" height="10" as="geometry" />
        </mxCell>
        <mxCell id="ACu0_U7MY-6dZaPbagmZ-588" value="" style="whiteSpace=wrap;html=1;aspect=fixed;fillColor=#a20025;fontColor=#ffffff;strokeColor=#6F0000;" vertex="1" parent="1">
          <mxGeometry x="850" y="340" width="10" height="10" as="geometry" />
        </mxCell>
        <mxCell id="ACu0_U7MY-6dZaPbagmZ-589" value="" style="whiteSpace=wrap;html=1;aspect=fixed;" vertex="1" parent="1">
          <mxGeometry x="860" y="340" width="10" height="10" as="geometry" />
        </mxCell>
        <mxCell id="ACu0_U7MY-6dZaPbagmZ-590" value="" style="whiteSpace=wrap;html=1;aspect=fixed;" vertex="1" parent="1">
          <mxGeometry x="870" y="340" width="10" height="10" as="geometry" />
        </mxCell>
        <mxCell id="ACu0_U7MY-6dZaPbagmZ-591" value="" style="whiteSpace=wrap;html=1;aspect=fixed;" vertex="1" parent="1">
          <mxGeometry x="880" y="340" width="10" height="10" as="geometry" />
        </mxCell>
        <mxCell id="ACu0_U7MY-6dZaPbagmZ-592" value="" style="whiteSpace=wrap;html=1;aspect=fixed;" vertex="1" parent="1">
          <mxGeometry x="750" y="350" width="10" height="10" as="geometry" />
        </mxCell>
        <mxCell id="ACu0_U7MY-6dZaPbagmZ-593" value="" style="whiteSpace=wrap;html=1;aspect=fixed;" vertex="1" parent="1">
          <mxGeometry x="760" y="350" width="10" height="10" as="geometry" />
        </mxCell>
        <mxCell id="ACu0_U7MY-6dZaPbagmZ-594" value="" style="whiteSpace=wrap;html=1;aspect=fixed;fillColor=#a20025;fontColor=#ffffff;strokeColor=#6F0000;" vertex="1" parent="1">
          <mxGeometry x="770" y="350" width="10" height="10" as="geometry" />
        </mxCell>
        <mxCell id="ACu0_U7MY-6dZaPbagmZ-595" value="" style="whiteSpace=wrap;html=1;aspect=fixed;fillColor=#fa6800;fontColor=#000000;strokeColor=#C73500;" vertex="1" parent="1">
          <mxGeometry x="780" y="350" width="10" height="10" as="geometry" />
        </mxCell>
        <mxCell id="ACu0_U7MY-6dZaPbagmZ-596" value="" style="whiteSpace=wrap;html=1;aspect=fixed;fillColor=#fa6800;fontColor=#000000;strokeColor=#C73500;" vertex="1" parent="1">
          <mxGeometry x="790" y="350" width="10" height="10" as="geometry" />
        </mxCell>
        <mxCell id="ACu0_U7MY-6dZaPbagmZ-597" value="" style="whiteSpace=wrap;html=1;aspect=fixed;fillColor=#fa6800;fontColor=#000000;strokeColor=#C73500;" vertex="1" parent="1">
          <mxGeometry x="800" y="350" width="10" height="10" as="geometry" />
        </mxCell>
        <mxCell id="ACu0_U7MY-6dZaPbagmZ-598" value="" style="whiteSpace=wrap;html=1;aspect=fixed;fillColor=#fa6800;fontColor=#000000;strokeColor=#C73500;" vertex="1" parent="1">
          <mxGeometry x="810" y="350" width="10" height="10" as="geometry" />
        </mxCell>
        <mxCell id="ACu0_U7MY-6dZaPbagmZ-599" value="" style="whiteSpace=wrap;html=1;aspect=fixed;fillColor=#fa6800;fontColor=#000000;strokeColor=#C73500;" vertex="1" parent="1">
          <mxGeometry x="820" y="350" width="10" height="10" as="geometry" />
        </mxCell>
        <mxCell id="ACu0_U7MY-6dZaPbagmZ-600" value="" style="whiteSpace=wrap;html=1;aspect=fixed;fillColor=#fa6800;fontColor=#000000;strokeColor=#C73500;" vertex="1" parent="1">
          <mxGeometry x="810" y="350" width="10" height="10" as="geometry" />
        </mxCell>
        <mxCell id="ACu0_U7MY-6dZaPbagmZ-601" value="" style="whiteSpace=wrap;html=1;aspect=fixed;fillColor=#fa6800;fontColor=#000000;strokeColor=#C73500;" vertex="1" parent="1">
          <mxGeometry x="820" y="350" width="10" height="10" as="geometry" />
        </mxCell>
        <mxCell id="ACu0_U7MY-6dZaPbagmZ-602" value="" style="whiteSpace=wrap;html=1;aspect=fixed;fillColor=#fa6800;fontColor=#000000;strokeColor=#C73500;" vertex="1" parent="1">
          <mxGeometry x="830" y="350" width="10" height="10" as="geometry" />
        </mxCell>
        <mxCell id="ACu0_U7MY-6dZaPbagmZ-603" value="" style="whiteSpace=wrap;html=1;aspect=fixed;fillColor=#fa6800;fontColor=#000000;strokeColor=#C73500;" vertex="1" parent="1">
          <mxGeometry x="840" y="350" width="10" height="10" as="geometry" />
        </mxCell>
        <mxCell id="ACu0_U7MY-6dZaPbagmZ-604" value="" style="whiteSpace=wrap;html=1;aspect=fixed;fillColor=#fa6800;fontColor=#000000;strokeColor=#C73500;" vertex="1" parent="1">
          <mxGeometry x="850" y="350" width="10" height="10" as="geometry" />
        </mxCell>
        <mxCell id="ACu0_U7MY-6dZaPbagmZ-605" value="" style="whiteSpace=wrap;html=1;aspect=fixed;fillColor=#a20025;fontColor=#ffffff;strokeColor=#6F0000;" vertex="1" parent="1">
          <mxGeometry x="860" y="350" width="10" height="10" as="geometry" />
        </mxCell>
        <mxCell id="ACu0_U7MY-6dZaPbagmZ-606" value="" style="whiteSpace=wrap;html=1;aspect=fixed;" vertex="1" parent="1">
          <mxGeometry x="870" y="350" width="10" height="10" as="geometry" />
        </mxCell>
        <mxCell id="ACu0_U7MY-6dZaPbagmZ-607" value="" style="whiteSpace=wrap;html=1;aspect=fixed;" vertex="1" parent="1">
          <mxGeometry x="880" y="350" width="10" height="10" as="geometry" />
        </mxCell>
        <mxCell id="ACu0_U7MY-6dZaPbagmZ-608" value="" style="whiteSpace=wrap;html=1;aspect=fixed;" vertex="1" parent="1">
          <mxGeometry x="750" y="360" width="10" height="10" as="geometry" />
        </mxCell>
        <mxCell id="ACu0_U7MY-6dZaPbagmZ-609" value="" style="whiteSpace=wrap;html=1;aspect=fixed;" vertex="1" parent="1">
          <mxGeometry x="760" y="360" width="10" height="10" as="geometry" />
        </mxCell>
        <mxCell id="ACu0_U7MY-6dZaPbagmZ-610" value="" style="whiteSpace=wrap;html=1;aspect=fixed;fillColor=#a20025;fontColor=#ffffff;strokeColor=#6F0000;" vertex="1" parent="1">
          <mxGeometry x="770" y="360" width="10" height="10" as="geometry" />
        </mxCell>
        <mxCell id="ACu0_U7MY-6dZaPbagmZ-611" value="" style="whiteSpace=wrap;html=1;aspect=fixed;fillColor=#FA9600;fontColor=#000000;strokeColor=#C73500;" vertex="1" parent="1">
          <mxGeometry x="780" y="360" width="10" height="10" as="geometry" />
        </mxCell>
        <mxCell id="ACu0_U7MY-6dZaPbagmZ-612" value="" style="whiteSpace=wrap;html=1;aspect=fixed;fillColor=#FA9600;fontColor=#000000;strokeColor=#C73500;" vertex="1" parent="1">
          <mxGeometry x="790" y="360" width="10" height="10" as="geometry" />
        </mxCell>
        <mxCell id="ACu0_U7MY-6dZaPbagmZ-613" value="" style="whiteSpace=wrap;html=1;aspect=fixed;fillColor=#FA9600;fontColor=#000000;strokeColor=#C73500;" vertex="1" parent="1">
          <mxGeometry x="800" y="360" width="10" height="10" as="geometry" />
        </mxCell>
        <mxCell id="ACu0_U7MY-6dZaPbagmZ-614" value="" style="whiteSpace=wrap;html=1;aspect=fixed;fillColor=#FA9600;fontColor=#000000;strokeColor=#C73500;" vertex="1" parent="1">
          <mxGeometry x="810" y="360" width="10" height="10" as="geometry" />
        </mxCell>
        <mxCell id="ACu0_U7MY-6dZaPbagmZ-615" value="" style="whiteSpace=wrap;html=1;aspect=fixed;fillColor=#FA9600;fontColor=#000000;strokeColor=#C73500;" vertex="1" parent="1">
          <mxGeometry x="820" y="360" width="10" height="10" as="geometry" />
        </mxCell>
        <mxCell id="ACu0_U7MY-6dZaPbagmZ-616" value="" style="whiteSpace=wrap;html=1;aspect=fixed;fillColor=#FA9600;fontColor=#000000;strokeColor=#C73500;" vertex="1" parent="1">
          <mxGeometry x="810" y="360" width="10" height="10" as="geometry" />
        </mxCell>
        <mxCell id="ACu0_U7MY-6dZaPbagmZ-617" value="" style="whiteSpace=wrap;html=1;aspect=fixed;fillColor=#FA9600;fontColor=#000000;strokeColor=#C73500;" vertex="1" parent="1">
          <mxGeometry x="820" y="360" width="10" height="10" as="geometry" />
        </mxCell>
        <mxCell id="ACu0_U7MY-6dZaPbagmZ-618" value="" style="whiteSpace=wrap;html=1;aspect=fixed;fillColor=#FA9600;fontColor=#000000;strokeColor=#C73500;" vertex="1" parent="1">
          <mxGeometry x="830" y="360" width="10" height="10" as="geometry" />
        </mxCell>
        <mxCell id="ACu0_U7MY-6dZaPbagmZ-619" value="" style="whiteSpace=wrap;html=1;aspect=fixed;fillColor=#FA9600;fontColor=#000000;strokeColor=#C73500;" vertex="1" parent="1">
          <mxGeometry x="840" y="360" width="10" height="10" as="geometry" />
        </mxCell>
        <mxCell id="ACu0_U7MY-6dZaPbagmZ-620" value="" style="whiteSpace=wrap;html=1;aspect=fixed;fillColor=#FA9600;fontColor=#000000;strokeColor=#C73500;" vertex="1" parent="1">
          <mxGeometry x="850" y="360" width="10" height="10" as="geometry" />
        </mxCell>
        <mxCell id="ACu0_U7MY-6dZaPbagmZ-621" value="" style="whiteSpace=wrap;html=1;aspect=fixed;fillColor=#a20025;fontColor=#ffffff;strokeColor=#6F0000;" vertex="1" parent="1">
          <mxGeometry x="860" y="360" width="10" height="10" as="geometry" />
        </mxCell>
        <mxCell id="ACu0_U7MY-6dZaPbagmZ-622" value="" style="whiteSpace=wrap;html=1;aspect=fixed;" vertex="1" parent="1">
          <mxGeometry x="870" y="360" width="10" height="10" as="geometry" />
        </mxCell>
        <mxCell id="ACu0_U7MY-6dZaPbagmZ-623" value="" style="whiteSpace=wrap;html=1;aspect=fixed;" vertex="1" parent="1">
          <mxGeometry x="880" y="360" width="10" height="10" as="geometry" />
        </mxCell>
        <mxCell id="ACu0_U7MY-6dZaPbagmZ-624" value="" style="whiteSpace=wrap;html=1;aspect=fixed;" vertex="1" parent="1">
          <mxGeometry x="750" y="370" width="10" height="10" as="geometry" />
        </mxCell>
        <mxCell id="ACu0_U7MY-6dZaPbagmZ-625" value="" style="whiteSpace=wrap;html=1;aspect=fixed;" vertex="1" parent="1">
          <mxGeometry x="760" y="370" width="10" height="10" as="geometry" />
        </mxCell>
        <mxCell id="ACu0_U7MY-6dZaPbagmZ-626" value="" style="whiteSpace=wrap;html=1;aspect=fixed;fillColor=#a20025;fontColor=#ffffff;strokeColor=#6F0000;" vertex="1" parent="1">
          <mxGeometry x="770" y="370" width="10" height="10" as="geometry" />
        </mxCell>
        <mxCell id="ACu0_U7MY-6dZaPbagmZ-627" value="" style="whiteSpace=wrap;html=1;aspect=fixed;fillColor=#FA9600;fontColor=#000000;strokeColor=#C73500;" vertex="1" parent="1">
          <mxGeometry x="780" y="370" width="10" height="10" as="geometry" />
        </mxCell>
        <mxCell id="ACu0_U7MY-6dZaPbagmZ-628" value="" style="whiteSpace=wrap;html=1;aspect=fixed;fillColor=#FA9600;fontColor=#000000;strokeColor=#C73500;" vertex="1" parent="1">
          <mxGeometry x="790" y="370" width="10" height="10" as="geometry" />
        </mxCell>
        <mxCell id="ACu0_U7MY-6dZaPbagmZ-629" value="" style="whiteSpace=wrap;html=1;aspect=fixed;fillColor=#FA9600;fontColor=#000000;strokeColor=#C73500;" vertex="1" parent="1">
          <mxGeometry x="800" y="370" width="10" height="10" as="geometry" />
        </mxCell>
        <mxCell id="ACu0_U7MY-6dZaPbagmZ-630" value="" style="whiteSpace=wrap;html=1;aspect=fixed;fillColor=#FA9600;fontColor=#000000;strokeColor=#C73500;" vertex="1" parent="1">
          <mxGeometry x="810" y="370" width="10" height="10" as="geometry" />
        </mxCell>
        <mxCell id="ACu0_U7MY-6dZaPbagmZ-631" value="" style="whiteSpace=wrap;html=1;aspect=fixed;fillColor=#FA9600;fontColor=#000000;strokeColor=#C73500;" vertex="1" parent="1">
          <mxGeometry x="820" y="370" width="10" height="10" as="geometry" />
        </mxCell>
        <mxCell id="ACu0_U7MY-6dZaPbagmZ-632" value="" style="whiteSpace=wrap;html=1;aspect=fixed;fillColor=#FA9600;fontColor=#000000;strokeColor=#C73500;" vertex="1" parent="1">
          <mxGeometry x="810" y="370" width="10" height="10" as="geometry" />
        </mxCell>
        <mxCell id="ACu0_U7MY-6dZaPbagmZ-633" value="" style="whiteSpace=wrap;html=1;aspect=fixed;fillColor=#FA9600;fontColor=#000000;strokeColor=#C73500;" vertex="1" parent="1">
          <mxGeometry x="820" y="370" width="10" height="10" as="geometry" />
        </mxCell>
        <mxCell id="ACu0_U7MY-6dZaPbagmZ-634" value="" style="whiteSpace=wrap;html=1;aspect=fixed;fillColor=#FA9600;fontColor=#000000;strokeColor=#C73500;" vertex="1" parent="1">
          <mxGeometry x="830" y="370" width="10" height="10" as="geometry" />
        </mxCell>
        <mxCell id="ACu0_U7MY-6dZaPbagmZ-635" value="" style="whiteSpace=wrap;html=1;aspect=fixed;fillColor=#FA9600;fontColor=#000000;strokeColor=#C73500;" vertex="1" parent="1">
          <mxGeometry x="840" y="370" width="10" height="10" as="geometry" />
        </mxCell>
        <mxCell id="ACu0_U7MY-6dZaPbagmZ-636" value="" style="whiteSpace=wrap;html=1;aspect=fixed;fillColor=#FA9600;fontColor=#000000;strokeColor=#C73500;" vertex="1" parent="1">
          <mxGeometry x="850" y="370" width="10" height="10" as="geometry" />
        </mxCell>
        <mxCell id="ACu0_U7MY-6dZaPbagmZ-637" value="" style="whiteSpace=wrap;html=1;aspect=fixed;fillColor=#a20025;fontColor=#ffffff;strokeColor=#6F0000;" vertex="1" parent="1">
          <mxGeometry x="860" y="370" width="10" height="10" as="geometry" />
        </mxCell>
        <mxCell id="ACu0_U7MY-6dZaPbagmZ-638" value="" style="whiteSpace=wrap;html=1;aspect=fixed;" vertex="1" parent="1">
          <mxGeometry x="870" y="370" width="10" height="10" as="geometry" />
        </mxCell>
        <mxCell id="ACu0_U7MY-6dZaPbagmZ-639" value="" style="whiteSpace=wrap;html=1;aspect=fixed;" vertex="1" parent="1">
          <mxGeometry x="880" y="370" width="10" height="10" as="geometry" />
        </mxCell>
        <mxCell id="ACu0_U7MY-6dZaPbagmZ-640" value="" style="whiteSpace=wrap;html=1;aspect=fixed;" vertex="1" parent="1">
          <mxGeometry x="750" y="380" width="10" height="10" as="geometry" />
        </mxCell>
        <mxCell id="ACu0_U7MY-6dZaPbagmZ-641" value="" style="whiteSpace=wrap;html=1;aspect=fixed;" vertex="1" parent="1">
          <mxGeometry x="760" y="380" width="10" height="10" as="geometry" />
        </mxCell>
        <mxCell id="ACu0_U7MY-6dZaPbagmZ-642" value="" style="whiteSpace=wrap;html=1;aspect=fixed;fillColor=#a20025;fontColor=#ffffff;strokeColor=#6F0000;" vertex="1" parent="1">
          <mxGeometry x="770" y="380" width="10" height="10" as="geometry" />
        </mxCell>
        <mxCell id="ACu0_U7MY-6dZaPbagmZ-643" value="" style="whiteSpace=wrap;html=1;aspect=fixed;fillColor=#FA9600;fontColor=#000000;strokeColor=#C73500;" vertex="1" parent="1">
          <mxGeometry x="780" y="380" width="10" height="10" as="geometry" />
        </mxCell>
        <mxCell id="ACu0_U7MY-6dZaPbagmZ-644" value="" style="whiteSpace=wrap;html=1;aspect=fixed;fillColor=#FA9600;fontColor=#000000;strokeColor=#C73500;" vertex="1" parent="1">
          <mxGeometry x="790" y="380" width="10" height="10" as="geometry" />
        </mxCell>
        <mxCell id="ACu0_U7MY-6dZaPbagmZ-645" value="" style="whiteSpace=wrap;html=1;aspect=fixed;fillColor=#FA9600;fontColor=#000000;strokeColor=#C73500;" vertex="1" parent="1">
          <mxGeometry x="800" y="380" width="10" height="10" as="geometry" />
        </mxCell>
        <mxCell id="ACu0_U7MY-6dZaPbagmZ-646" value="" style="whiteSpace=wrap;html=1;aspect=fixed;fillColor=#FA9600;fontColor=#000000;strokeColor=#C73500;" vertex="1" parent="1">
          <mxGeometry x="810" y="380" width="10" height="10" as="geometry" />
        </mxCell>
        <mxCell id="ACu0_U7MY-6dZaPbagmZ-647" value="" style="whiteSpace=wrap;html=1;aspect=fixed;fillColor=#FA9600;fontColor=#000000;strokeColor=#C73500;" vertex="1" parent="1">
          <mxGeometry x="820" y="380" width="10" height="10" as="geometry" />
        </mxCell>
        <mxCell id="ACu0_U7MY-6dZaPbagmZ-648" value="" style="whiteSpace=wrap;html=1;aspect=fixed;fillColor=#FA9600;fontColor=#000000;strokeColor=#C73500;" vertex="1" parent="1">
          <mxGeometry x="810" y="380" width="10" height="10" as="geometry" />
        </mxCell>
        <mxCell id="ACu0_U7MY-6dZaPbagmZ-649" value="" style="whiteSpace=wrap;html=1;aspect=fixed;fillColor=#FA9600;fontColor=#000000;strokeColor=#C73500;" vertex="1" parent="1">
          <mxGeometry x="820" y="380" width="10" height="10" as="geometry" />
        </mxCell>
        <mxCell id="ACu0_U7MY-6dZaPbagmZ-650" value="" style="whiteSpace=wrap;html=1;aspect=fixed;fillColor=#FA9600;fontColor=#000000;strokeColor=#C73500;" vertex="1" parent="1">
          <mxGeometry x="830" y="380" width="10" height="10" as="geometry" />
        </mxCell>
        <mxCell id="ACu0_U7MY-6dZaPbagmZ-651" value="" style="whiteSpace=wrap;html=1;aspect=fixed;fillColor=#FA9600;fontColor=#000000;strokeColor=#C73500;" vertex="1" parent="1">
          <mxGeometry x="840" y="380" width="10" height="10" as="geometry" />
        </mxCell>
        <mxCell id="ACu0_U7MY-6dZaPbagmZ-652" value="" style="whiteSpace=wrap;html=1;aspect=fixed;fillColor=#FA9600;fontColor=#000000;strokeColor=#C73500;" vertex="1" parent="1">
          <mxGeometry x="850" y="380" width="10" height="10" as="geometry" />
        </mxCell>
        <mxCell id="ACu0_U7MY-6dZaPbagmZ-653" value="" style="whiteSpace=wrap;html=1;aspect=fixed;fillColor=#a20025;fontColor=#ffffff;strokeColor=#6F0000;" vertex="1" parent="1">
          <mxGeometry x="860" y="380" width="10" height="10" as="geometry" />
        </mxCell>
        <mxCell id="ACu0_U7MY-6dZaPbagmZ-654" value="" style="whiteSpace=wrap;html=1;aspect=fixed;" vertex="1" parent="1">
          <mxGeometry x="870" y="380" width="10" height="10" as="geometry" />
        </mxCell>
        <mxCell id="ACu0_U7MY-6dZaPbagmZ-655" value="" style="whiteSpace=wrap;html=1;aspect=fixed;" vertex="1" parent="1">
          <mxGeometry x="880" y="380" width="10" height="10" as="geometry" />
        </mxCell>
        <mxCell id="ACu0_U7MY-6dZaPbagmZ-656" value="" style="whiteSpace=wrap;html=1;aspect=fixed;" vertex="1" parent="1">
          <mxGeometry x="750" y="390" width="10" height="10" as="geometry" />
        </mxCell>
        <mxCell id="ACu0_U7MY-6dZaPbagmZ-657" value="" style="whiteSpace=wrap;html=1;aspect=fixed;" vertex="1" parent="1">
          <mxGeometry x="760" y="390" width="10" height="10" as="geometry" />
        </mxCell>
        <mxCell id="ACu0_U7MY-6dZaPbagmZ-658" value="" style="whiteSpace=wrap;html=1;aspect=fixed;fillColor=#a20025;fontColor=#ffffff;strokeColor=#6F0000;" vertex="1" parent="1">
          <mxGeometry x="770" y="390" width="10" height="10" as="geometry" />
        </mxCell>
        <mxCell id="ACu0_U7MY-6dZaPbagmZ-659" value="" style="whiteSpace=wrap;html=1;aspect=fixed;fillColor=#FA9600;fontColor=#000000;strokeColor=#C73500;" vertex="1" parent="1">
          <mxGeometry x="780" y="390" width="10" height="10" as="geometry" />
        </mxCell>
        <mxCell id="ACu0_U7MY-6dZaPbagmZ-660" value="" style="whiteSpace=wrap;html=1;aspect=fixed;fillColor=#FA9600;fontColor=#000000;strokeColor=#C73500;" vertex="1" parent="1">
          <mxGeometry x="790" y="390" width="10" height="10" as="geometry" />
        </mxCell>
        <mxCell id="ACu0_U7MY-6dZaPbagmZ-661" value="" style="whiteSpace=wrap;html=1;aspect=fixed;fillColor=#FA9600;fontColor=#000000;strokeColor=#C73500;" vertex="1" parent="1">
          <mxGeometry x="800" y="390" width="10" height="10" as="geometry" />
        </mxCell>
        <mxCell id="ACu0_U7MY-6dZaPbagmZ-662" value="" style="whiteSpace=wrap;html=1;aspect=fixed;fillColor=#FA9600;fontColor=#000000;strokeColor=#C73500;" vertex="1" parent="1">
          <mxGeometry x="810" y="390" width="10" height="10" as="geometry" />
        </mxCell>
        <mxCell id="ACu0_U7MY-6dZaPbagmZ-663" value="" style="whiteSpace=wrap;html=1;aspect=fixed;fillColor=#FA9600;fontColor=#000000;strokeColor=#C73500;" vertex="1" parent="1">
          <mxGeometry x="820" y="390" width="10" height="10" as="geometry" />
        </mxCell>
        <mxCell id="ACu0_U7MY-6dZaPbagmZ-664" value="" style="whiteSpace=wrap;html=1;aspect=fixed;fillColor=#FA9600;fontColor=#000000;strokeColor=#C73500;" vertex="1" parent="1">
          <mxGeometry x="810" y="390" width="10" height="10" as="geometry" />
        </mxCell>
        <mxCell id="ACu0_U7MY-6dZaPbagmZ-665" value="" style="whiteSpace=wrap;html=1;aspect=fixed;fillColor=#FA9600;fontColor=#000000;strokeColor=#C73500;" vertex="1" parent="1">
          <mxGeometry x="820" y="390" width="10" height="10" as="geometry" />
        </mxCell>
        <mxCell id="ACu0_U7MY-6dZaPbagmZ-666" value="" style="whiteSpace=wrap;html=1;aspect=fixed;fillColor=#FA9600;fontColor=#000000;strokeColor=#C73500;" vertex="1" parent="1">
          <mxGeometry x="830" y="390" width="10" height="10" as="geometry" />
        </mxCell>
        <mxCell id="ACu0_U7MY-6dZaPbagmZ-667" value="" style="whiteSpace=wrap;html=1;aspect=fixed;fillColor=#FA9600;fontColor=#000000;strokeColor=#C73500;" vertex="1" parent="1">
          <mxGeometry x="840" y="390" width="10" height="10" as="geometry" />
        </mxCell>
        <mxCell id="ACu0_U7MY-6dZaPbagmZ-668" value="" style="whiteSpace=wrap;html=1;aspect=fixed;fillColor=#FA9600;fontColor=#000000;strokeColor=#C73500;" vertex="1" parent="1">
          <mxGeometry x="850" y="390" width="10" height="10" as="geometry" />
        </mxCell>
        <mxCell id="ACu0_U7MY-6dZaPbagmZ-669" value="" style="whiteSpace=wrap;html=1;aspect=fixed;fillColor=#a20025;fontColor=#ffffff;strokeColor=#6F0000;" vertex="1" parent="1">
          <mxGeometry x="860" y="390" width="10" height="10" as="geometry" />
        </mxCell>
        <mxCell id="ACu0_U7MY-6dZaPbagmZ-670" value="" style="whiteSpace=wrap;html=1;aspect=fixed;" vertex="1" parent="1">
          <mxGeometry x="870" y="390" width="10" height="10" as="geometry" />
        </mxCell>
        <mxCell id="ACu0_U7MY-6dZaPbagmZ-671" value="" style="whiteSpace=wrap;html=1;aspect=fixed;" vertex="1" parent="1">
          <mxGeometry x="880" y="390" width="10" height="10" as="geometry" />
        </mxCell>
        <mxCell id="ACu0_U7MY-6dZaPbagmZ-672" value="" style="endArrow=classic;html=1;rounded=0;exitX=1;exitY=1;exitDx=0;exitDy=0;entryX=0;entryY=0;entryDx=0;entryDy=0;" edge="1" parent="1" source="ACu0_U7MY-6dZaPbagmZ-536" target="ACu0_U7MY-6dZaPbagmZ-553">
          <mxGeometry width="50" height="50" relative="1" as="geometry">
            <mxPoint x="670" y="290" as="sourcePoint" />
            <mxPoint x="670" y="330" as="targetPoint" />
          </mxGeometry>
        </mxCell>
        <mxCell id="ACu0_U7MY-6dZaPbagmZ-673" value="Shading" style="text;html=1;align=center;verticalAlign=middle;whiteSpace=wrap;rounded=0;" vertex="1" parent="1">
          <mxGeometry x="750" y="290" width="70" height="30" as="geometry" />
        </mxCell>
        <mxCell id="ACu0_U7MY-6dZaPbagmZ-674" value="" style="rounded=0;whiteSpace=wrap;html=1;fillColor=none;" vertex="1" parent="1">
          <mxGeometry x="220" y="130" width="180" height="320" as="geometry" />
        </mxCell>
        <mxCell id="ACu0_U7MY-6dZaPbagmZ-675" value="" style="rounded=0;whiteSpace=wrap;html=1;fillColor=none;" vertex="1" parent="1">
          <mxGeometry x="400" y="130" width="170" height="320" as="geometry" />
        </mxCell>
        <mxCell id="ACu0_U7MY-6dZaPbagmZ-676" value="" style="rounded=0;whiteSpace=wrap;html=1;fillColor=none;" vertex="1" parent="1">
          <mxGeometry x="570" y="130" width="340" height="320" as="geometry" />
        </mxCell>
        <mxCell id="ACu0_U7MY-6dZaPbagmZ-677" value="" style="rounded=0;whiteSpace=wrap;html=1;fillColor=none;" vertex="1" parent="1">
          <mxGeometry x="910" y="130" width="130" height="320" as="geometry" />
        </mxCell>
        <mxCell id="ACu0_U7MY-6dZaPbagmZ-679" value="Buffer" style="rounded=1;whiteSpace=wrap;html=1;" vertex="1" parent="1">
          <mxGeometry x="1060" y="150" width="80" height="40" as="geometry" />
        </mxCell>
        <mxCell id="ACu0_U7MY-6dZaPbagmZ-680" value="Fragment 이후의 연산에 사용할 데이터들을 생성" style="rounded=1;whiteSpace=wrap;html=1;" vertex="1" parent="1">
          <mxGeometry x="920" y="200" width="100" height="65" as="geometry" />
        </mxCell>
        <mxCell id="ACu0_U7MY-6dZaPbagmZ-681" value="Prepass" style="rounded=1;whiteSpace=wrap;html=1;" vertex="1" parent="1">
          <mxGeometry x="940" y="150" width="80" height="40" as="geometry" />
        </mxCell>
        <mxCell id="ACu0_U7MY-6dZaPbagmZ-682" value="" style="rounded=0;whiteSpace=wrap;html=1;fillColor=none;" vertex="1" parent="1">
          <mxGeometry x="1040" y="130" width="120" height="320" as="geometry" />
        </mxCell>
        <mxCell id="ACu0_U7MY-6dZaPbagmZ-683" value="Depth" style="rounded=1;whiteSpace=wrap;html=1;" vertex="1" parent="1">
          <mxGeometry x="920" y="275" width="100" height="35" as="geometry" />
        </mxCell>
        <mxCell id="ACu0_U7MY-6dZaPbagmZ-684" value="Normal" style="rounded=1;whiteSpace=wrap;html=1;" vertex="1" parent="1">
          <mxGeometry x="920" y="315" width="100" height="35" as="geometry" />
        </mxCell>
        <mxCell id="ACu0_U7MY-6dZaPbagmZ-685" value="G-Buffer data" style="rounded=1;whiteSpace=wrap;html=1;" vertex="1" parent="1">
          <mxGeometry x="920" y="357.5" width="100" height="35" as="geometry" />
        </mxCell>
        <mxCell id="ACu0_U7MY-6dZaPbagmZ-686" value="Shadow map" style="rounded=1;whiteSpace=wrap;html=1;" vertex="1" parent="1">
          <mxGeometry x="920" y="400" width="100" height="35" as="geometry" />
        </mxCell>
        <mxCell id="ACu0_U7MY-6dZaPbagmZ-688" value="Prepass를&lt;div&gt;거친 데이터 보관&lt;/div&gt;" style="rounded=1;whiteSpace=wrap;html=1;" vertex="1" parent="1">
          <mxGeometry x="1050" y="200" width="100" height="65" as="geometry" />
        </mxCell>
        <mxCell id="ACu0_U7MY-6dZaPbagmZ-689" value="" style="rounded=0;whiteSpace=wrap;html=1;fillColor=none;" vertex="1" parent="1">
          <mxGeometry x="1160" y="130" width="120" height="320" as="geometry" />
        </mxCell>
        <mxCell id="ACu0_U7MY-6dZaPbagmZ-690" value="Deferred&amp;nbsp;&lt;div&gt;Lighting&lt;/div&gt;" style="rounded=1;whiteSpace=wrap;html=1;" vertex="1" parent="1">
          <mxGeometry x="1180" y="150" width="80" height="40" as="geometry" />
        </mxCell>
        <mxCell id="ACu0_U7MY-6dZaPbagmZ-691" value="G-Buffer&amp;nbsp;&lt;div&gt;기반으로&amp;nbsp;&lt;/div&gt;&lt;div&gt;더 사실적인 조명 연산&lt;/div&gt;" style="rounded=1;whiteSpace=wrap;html=1;" vertex="1" parent="1">
          <mxGeometry x="1170" y="200" width="100" height="65" as="geometry" />
        </mxCell>
        <mxCell id="ACu0_U7MY-6dZaPbagmZ-692" value="" style="rounded=0;whiteSpace=wrap;html=1;fillColor=none;" vertex="1" parent="1">
          <mxGeometry x="1280" y="130" width="120" height="320" as="geometry" />
        </mxCell>
        <mxCell id="ACu0_U7MY-6dZaPbagmZ-693" value="Opaque" style="rounded=1;whiteSpace=wrap;html=1;" vertex="1" parent="1">
          <mxGeometry x="1300" y="150" width="80" height="40" as="geometry" />
        </mxCell>
        <mxCell id="ACu0_U7MY-6dZaPbagmZ-694" value="불투명 개체&amp;nbsp;&lt;div&gt;처리&lt;/div&gt;" style="rounded=1;whiteSpace=wrap;html=1;" vertex="1" parent="1">
          <mxGeometry x="1290" y="200" width="100" height="65" as="geometry" />
        </mxCell>
        <mxCell id="ACu0_U7MY-6dZaPbagmZ-695" value="" style="rounded=0;whiteSpace=wrap;html=1;fillColor=none;" vertex="1" parent="1">
          <mxGeometry x="1400" y="130" width="120" height="320" as="geometry" />
        </mxCell>
        <mxCell id="ACu0_U7MY-6dZaPbagmZ-696" value="Transparent" style="rounded=1;whiteSpace=wrap;html=1;" vertex="1" parent="1">
          <mxGeometry x="1420" y="150" width="80" height="40" as="geometry" />
        </mxCell>
        <mxCell id="ACu0_U7MY-6dZaPbagmZ-697" value="투명 개체 처리" style="rounded=1;whiteSpace=wrap;html=1;" vertex="1" parent="1">
          <mxGeometry x="1410" y="200" width="100" height="65" as="geometry" />
        </mxCell>
        <mxCell id="ACu0_U7MY-6dZaPbagmZ-698" value="" style="rounded=0;whiteSpace=wrap;html=1;fillColor=none;" vertex="1" parent="1">
          <mxGeometry x="1520" y="130" width="120" height="320" as="geometry" />
        </mxCell>
        <mxCell id="ACu0_U7MY-6dZaPbagmZ-699" value="Post&lt;div&gt;Processing&lt;/div&gt;" style="rounded=1;whiteSpace=wrap;html=1;" vertex="1" parent="1">
          <mxGeometry x="1540" y="150" width="80" height="40" as="geometry" />
        </mxCell>
        <mxCell id="ACu0_U7MY-6dZaPbagmZ-700" value="후처리&amp;nbsp;&lt;div&gt;(전체적인 Viewport 의 Filtering)&lt;/div&gt;" style="rounded=1;whiteSpace=wrap;html=1;" vertex="1" parent="1">
          <mxGeometry x="1530" y="200" width="100" height="65" as="geometry" />
        </mxCell>
        <mxCell id="ACu0_U7MY-6dZaPbagmZ-701" value="" style="rounded=0;whiteSpace=wrap;html=1;fillColor=none;" vertex="1" parent="1">
          <mxGeometry x="1640" y="130" width="120" height="320" as="geometry" />
        </mxCell>
        <mxCell id="ACu0_U7MY-6dZaPbagmZ-702" value="Render&lt;div&gt;Buffer&lt;/div&gt;" style="rounded=1;whiteSpace=wrap;html=1;" vertex="1" parent="1">
          <mxGeometry x="1660" y="150" width="80" height="40" as="geometry" />
        </mxCell>
        <mxCell id="ACu0_U7MY-6dZaPbagmZ-703" value="출력 전&amp;nbsp;&lt;div&gt;대기 버퍼&lt;/div&gt;" style="rounded=1;whiteSpace=wrap;html=1;" vertex="1" parent="1">
          <mxGeometry x="1650" y="200" width="100" height="65" as="geometry" />
        </mxCell>
        <mxCell id="ACu0_U7MY-6dZaPbagmZ-704" value="" style="rounded=0;whiteSpace=wrap;html=1;fillColor=none;" vertex="1" parent="1">
          <mxGeometry x="1760" y="130" width="120" height="320" as="geometry" />
        </mxCell>
        <mxCell id="ACu0_U7MY-6dZaPbagmZ-705" value="Output" style="rounded=1;whiteSpace=wrap;html=1;" vertex="1" parent="1">
          <mxGeometry x="1780" y="150" width="80" height="40" as="geometry" />
        </mxCell>
        <mxCell id="ACu0_U7MY-6dZaPbagmZ-706" value="Buffer 의 데이터를 전기적 신호로 출력.&amp;nbsp;&lt;div&gt;단위 :Pixel&lt;/div&gt;" style="rounded=1;whiteSpace=wrap;html=1;" vertex="1" parent="1">
          <mxGeometry x="1770" y="200" width="100" height="65" as="geometry" />
        </mxCell>
      </root>
    </mxGraphModel>
  </diagram>
</mxfile>
